<svg xmlns="http://www.w3.org/2000/svg" xmlns:svg="http://www.w3.org/2000/svg" version="1.1" id="svg5" xml:space="preserve" viewBox="14.1 59.32 181.95 28.88"><defs id="defs2"/><g id="layer1"><path style="fill:#000000;stroke-width:0.0467504" d="m 195.95503,88.145816 -0.0468,-0.0464 0.0358,-0.02197 0.0358,-0.02197 0.0361,0.02212 0.0361,0.02212 -0.0251,0.04625 -0.0251,0.04625 z m -109.003491,-4.496424 -0.537233,-0.05054 -0.388001,-0.0526 -0.388001,-0.0526 -0.248805,-0.0224 -0.248804,-0.0224 -0.726882,-0.0091 -0.726882,-0.0091 -0.367395,0.03578 -0.367396,0.03578 -0.322936,-0.0078 -0.322943,-0.0078 -0.164148,-0.05207 -0.164155,-0.05207 -0.18445,-0.137256 -0.184449,-0.137256 V 82.960033 82.81211 l 0.140253,-0.127496 0.140248,-0.127495 0.04508,-0.201379 0.04508,-0.201379 0.02444,-0.196569 0.02445,-0.196569 0.03784,-0.03755 0.03784,-0.03755 0.01879,-0.205249 0.01879,-0.205249 0.03229,-0.201379 0.03229,-0.201379 -5.97e-4,-0.08811 -5.97e-4,-0.08811 0.08805,-0.186493 0.08805,-0.186493 0.09588,-0.237993 0.09589,-0.237993 0.05955,-0.12815 0.05955,-0.128151 0.08284,-0.244635 0.08284,-0.244635 0.02255,-0.176429 0.02256,-0.17643 0.03511,-0.05492 0.0351,-0.05492 0.03459,-0.677364 0.03459,-0.677365 0.03629,-0.464131 0.03629,-0.46413 0.163916,-0.09633 0.16391,-0.09633 0.276722,-0.05108 0.276723,-0.05108 v 0.02571 0.02571 l 0.114078,-0.114755 0.114079,-0.114756 0.215746,-0.100936 0.215741,-0.100935 0.46088,0.02055 0.46088,0.02055 0.252774,0.05602 0.25278,0.05602 0.481856,0.04047 0.48185,0.04047 0.45922,0.07277 0.459221,0.07277 0.447694,-0.02658 0.447694,-0.02658 0.298462,7.18e-4 0.298463,7.17e-4 0.417848,0.06473 0.417847,0.06473 0.119385,0.03736 0.119385,0.03736 0.129396,0.07221 0.129401,0.07221 -0.03222,0.20698 -0.03222,0.206979 -0.07904,0.05164 -0.07903,0.05164 -0.227064,0.04843 -0.227064,0.04843 -1.210833,-0.01781 -1.210833,-0.01781 -0.341173,-0.07709 -0.341172,-0.07708 -0.268617,-0.03045 -0.268616,-0.03045 -0.634454,-0.0022 -0.634454,-0.0022 -0.06535,0.10069 -0.06535,0.100689 -0.03522,0.237993 -0.03522,0.237993 -0.02746,0.164764 -0.02746,0.164765 -0.02948,0.457679 -0.02948,0.457679 -0.02489,0.09326 -0.02489,0.09326 0.04085,0.03589 0.04085,0.03589 0.358155,0.06851 0.358156,0.0685 1.701236,0.04206 1.701237,0.04206 0.33595,0.09952 0.335949,0.09952 0.03713,0.113875 0.03713,0.113874 v 0.135498 0.135498 l -0.14183,0.08173 -0.141823,0.08173 -0.320794,0.05273 -0.320787,0.05273 -0.447694,-0.02307 -0.447694,-0.02308 -0.05969,-0.02708 -0.05969,-0.02708 -1.074466,-0.04194 -1.074465,-0.04194 -0.546658,-0.01963 -0.546652,-0.01963 -0.03641,0.03613 -0.0364,0.03613 -0.06262,0.176365 -0.06262,0.176365 -0.04867,0.20775 -0.04866,0.207751 -0.06578,0.176699 -0.06579,0.1767 -0.03167,0.38445 -0.03167,0.384451 -0.05267,0.347835 -0.05266,0.347836 0.02235,0.01444 0.02235,0.01443 0.73257,0.01347 0.732571,0.01347 0.358155,0.04108 0.358155,0.04108 0.835695,0.0069 0.835695,0.0069 0.191034,0.06139 0.19104,0.06139 h 0.144886 0.144886 l 0.07669,0.05668 0.0767,0.05668 0.02313,0.228551 0.02313,0.228551 -0.18587,0.101583 -0.185871,0.101583 -0.428956,0.07 -0.428957,0.07 -0.02985,-0.0045 -0.02985,-0.0045 -0.537233,-0.05054 z m -54.618656,-0.100608 -0.596925,-0.04527 -0.328309,-0.04587 -0.328309,-0.04587 -0.30773,-0.09126 -0.307729,-0.09126 -0.501598,-0.299396 -0.501596,-0.299396 -0.452609,-0.494293 -0.452609,-0.494293 -0.102078,-0.2563 -0.102078,-0.256301 -0.08966,-0.12815 -0.08966,-0.12815 -0.165696,-0.311221 -0.165695,-0.311222 -0.100331,-0.248981 -0.10033,-0.248981 0.03043,-0.410076 0.03043,-0.410077 0.06353,-0.270203 0.06353,-0.270204 -0.06788,-0.05017 -0.06789,-0.05017 h 0.05889 0.05889 l 0.0913,-0.15561 0.0913,-0.155611 0.0979,-0.193725 0.0979,-0.193724 -0.03152,-0.03128 -0.03151,-0.03128 0.0849,-0.01998 0.0849,-0.01998 0.197159,-0.242994 0.197159,-0.242994 0.430599,-0.262613 0.430599,-0.262613 0.200344,-0.09793 0.200345,-0.09793 0.346842,-0.09409 0.346841,-0.09409 0.381185,-0.07222 0.381184,-0.07222 0.328392,0.03724 0.328392,0.03724 0.204506,0.05241 0.204508,0.05241 0.03773,-0.105383 0.03774,-0.105384 0.101079,-0.05401 0.101079,-0.05401 0.149155,-0.04748 0.149156,-0.04748 0.482563,0.0024 0.482564,0.0024 0.353207,0.06317 0.353208,0.06317 0.417847,0.08907 0.417848,0.08907 0.211898,0.08522 0.211897,0.08522 0.299723,0.09316 0.299722,0.09316 0.44346,0.308134 0.443461,0.308134 0.163008,0.161405 0.163008,0.161403 0.07576,0.07317 0.07576,0.07317 0.308028,0.292975 0.308028,0.292976 0.105952,0.137303 0.105952,0.137304 h 0.04864 0.04864 v 0.08365 0.08365 l 0.119385,0.208349 0.119385,0.208348 v 0.09245 0.09245 h 0.06555 0.06555 l -0.02078,0.488938 -0.02078,0.488939 -0.461813,0.563723 -0.461812,0.563723 -0.176252,0.183072 -0.176252,0.183071 -0.08565,0.112429 -0.08565,0.112428 -0.654177,0.400172 -0.654177,0.400172 -0.602281,0.312959 -0.602282,0.312959 -0.31799,0.09659 -0.31799,0.09659 -0.21836,0.05401 -0.218359,0.054 -0.408412,0.0234 -0.408412,0.0234 -0.208924,0.01315 -0.208924,0.01315 -0.596925,-0.04527 z m 1.356668,-0.896237 0.146341,-0.03413 0.412499,-0.189112 0.4125,-0.189111 0.639868,-0.379905 0.639868,-0.379905 0.223934,-0.19387 0.223936,-0.19387 0.03622,-0.01831 0.03622,-0.01831 0.20957,-0.243962 0.20957,-0.243961 -0.05301,-0.05811 -0.05302,-0.05811 h 0.132301 0.132299 l -0.03928,-0.02409 -0.03928,-0.02409 0.0547,-0.04043 0.0547,-0.04043 0.129033,-0.211537 0.129033,-0.211538 -0.0014,-0.302485 -0.0014,-0.302485 -0.09576,-0.162898 -0.09576,-0.162897 -0.103878,-0.237993 -0.103878,-0.237993 -0.236928,-0.216568 -0.236927,-0.216568 -0.258589,-0.259418 -0.258589,-0.259418 -0.124895,-0.08238 -0.124894,-0.08238 h 0.04939 0.04939 l -0.114075,-0.06407 -0.114075,-0.06407 -0.183086,-0.12815 -0.183086,-0.12815 -0.08505,-0.01177 -0.08505,-0.01177 -0.269349,-0.105461 -0.269349,-0.105462 -0.238038,-0.06407 -0.23804,-0.06407 -0.626771,-0.02008 -0.626771,-0.02008 -0.124596,0.0883 -0.124596,0.0883 -0.293252,0.04739 -0.293252,0.04739 -0.143052,0.0016 -0.143053,0.0016 -0.305892,0.124541 -0.305891,0.12454 -0.277618,0.182049 -0.277619,0.18205 -0.197707,0.233471 -0.197707,0.233471 -0.04007,0.09154 -0.04007,0.09154 -0.09876,0.219685 -0.09876,0.219686 -0.08962,0.2563 -0.08962,0.256301 8e-4,0.355447 7.99e-4,0.355448 0.08407,0.102231 0.08407,0.102231 0.03793,0.146458 0.03792,0.146457 0.03171,0.109843 0.03171,0.109843 0.110272,0.183071 0.110272,0.183072 0.07346,0.201378 0.07346,0.201379 0.413233,0.494293 0.413232,0.494293 0.310645,0.17529 0.310644,0.17529 0.264881,0.04737 0.26488,0.04738 0.639803,-0.01148 0.639803,-0.01148 0.146341,-0.03413 z m -3.714523,-4.141209 v -0.03661 h 0.05617 0.05617 l 0.03689,0.03661 0.03689,0.03662 h -0.09306 -0.09306 z m -8.784063,4.687067 -0.259354,-0.06265 -0.208923,-0.04578 -0.208924,-0.04578 -0.417848,-0.07599 -0.417847,-0.07599 -0.278554,-0.112572 -0.278553,-0.112573 -0.363141,-0.213124 -0.363142,-0.213125 v -0.02043 -0.02043 l -0.194,-0.1376 -0.194001,-0.137601 -0.193978,-0.148119 -0.193978,-0.148119 -0.289645,-0.292511 -0.289645,-0.29251 -0.133472,-0.213416 -0.133471,-0.213415 -0.0642,-0.09154 -0.0642,-0.09154 0.01035,-0.07323 0.01035,-0.07323 -0.144321,-0.421064 -0.144321,-0.421065 0.0233,-0.175814 0.0233,-0.175814 0.12057,-0.318479 0.12057,-0.318479 0.0189,-0.109843 0.0189,-0.109843 0.06894,-0.07818 0.06894,-0.07819 0.03135,-0.153051 0.03135,-0.153051 0.156373,-0.125753 0.156374,-0.125753 h 0.04541 0.04541 l 0.235444,-0.137304 0.235444,-0.137303 0.264217,-0.155447 0.264217,-0.155447 0.119385,-0.07766 0.119385,-0.07766 0.309044,-0.141383 0.309045,-0.141382 0.0383,-0.03801 0.0383,-0.03801 0.458502,-0.189696 0.458503,-0.189695 0.05969,-0.03082 0.05969,-0.03081 0.328309,-0.124604 0.328308,-0.124604 0.268617,-0.08858 0.268616,-0.08858 0.416181,-0.08401 0.416182,-0.08401 0.359821,-0.0073 0.359822,-0.0073 0.292978,0.03892 0.29298,0.03892 0.227838,0.147986 0.227838,0.147986 0.0015,0.116339 0.0015,0.116339 -0.164154,0.07921 -0.164155,0.07921 -0.20129,0.0516 -0.201291,0.0516 -0.335942,-5.49e-4 -0.335942,-5.49e-4 -0.438615,0.137706 -0.438616,0.137706 -0.290035,0.146606 -0.290034,0.146605 -0.420431,0.197614 -0.420431,0.197614 v 0.03122 0.03123 h -0.08386 -0.08386 l -0.535792,0.329585 -0.535793,0.329585 -0.245888,0.29725 -0.245888,0.297249 v 0.07066 0.07066 l -0.08621,0.10226 -0.08621,0.10226 -0.03424,0.287131 -0.03424,0.287131 -0.02497,0.01531 -0.02496,0.01531 0.05568,0.08983 0.05568,0.08983 0.06014,0.325622 0.06014,0.325623 0.240765,0.322226 0.240766,0.322226 0.05692,0.05492 0.05692,0.05492 0.145643,0.164764 0.145643,0.164765 0.408057,0.282713 0.408057,0.282714 0.207912,0.09542 0.207912,0.09542 0.23589,0.0749 0.235889,0.0749 0.491382,0.0188 0.491381,0.0188 0.298718,-0.05993 0.298717,-0.05993 h 0.150001 0.15 l 0.316324,0.04138 0.316324,0.04138 0.319146,0.193768 0.319148,0.193768 -0.03798,0.106065 -0.03798,0.106065 -0.460245,0.134884 -0.460245,0.134884 -0.46561,0.05667 -0.465609,0.05667 -0.468887,-0.0069 -0.468887,-0.0069 -0.259354,-0.06265 z m 50.956829,-0.109992 -0.179078,-0.02465 -0.183703,-0.05872 -0.183698,-0.05872 -0.226139,-0.169276 -0.226139,-0.169277 0.04088,-0.226653 0.04088,-0.226654 0.01936,-0.12815 0.01936,-0.12815 0.0426,-0.06407 0.0426,-0.06408 -0.03727,-0.05956 -0.03726,-0.05956 0.06739,-0.0498 0.06739,-0.0498 -0.03143,-0.08286 -0.03144,-0.08286 0.05097,-0.274608 0.05097,-0.274607 0.03249,-0.207443 0.03249,-0.207443 0.08561,-0.1587 0.08561,-0.1587 0.06979,-0.2563 0.06979,-0.256301 0.05682,-0.219685 0.05682,-0.219686 0.0532,-0.38445 0.0532,-0.384451 0.06207,-0.237993 0.06207,-0.237993 0.06282,-0.292914 0.06282,-0.292915 0.01159,-0.38445 0.01158,-0.38445 -0.07962,-0.194988 -0.07962,-0.194989 0.1051,-0.142959 0.105101,-0.14296 0.245163,-0.07002 0.245169,-0.07002 0.328309,0.02534 0.328309,0.02534 0.144754,0.04866 0.144755,0.04866 0.511863,-0.0106 0.511863,-0.0106 0.238771,0.0024 0.23877,0.0024 0.298462,0.03607 0.298463,0.03607 0.194001,0.03808 0.194,0.03808 8.96e-4,-0.02491 8.95e-4,-0.0249 0.04386,0.04035 0.04386,0.04035 0.388002,0.08176 0.388001,0.08176 0.305996,0.103003 0.305996,0.103003 0.318573,0.134418 0.318579,0.134419 0.296421,0.280955 0.296427,0.280956 0.318304,0.457904 0.31831,0.457905 -0.02586,0.04134 -0.02587,0.04134 0.05451,0.03343 0.0545,0.03343 0.0065,0.328019 0.0065,0.32802 -0.03675,0.527674 -0.03675,0.527675 -0.0895,0.161692 -0.0895,0.161692 -0.09604,0.116148 -0.09604,0.116149 -0.201557,0.174002 -0.201552,0.174003 v 0.02621 0.02621 l -0.135825,0.07439 -0.135818,0.07439 -0.112132,0.109843 -0.112133,0.109843 -0.493711,0.347836 -0.493711,0.347836 -0.34772,0.207667 -0.347727,0.207667 -0.955081,0.296505 -0.95508,0.296504 -0.298462,0.03283 -0.298463,0.03283 -0.925234,-0.0028 -0.925234,-0.0028 -0.179078,-0.02465 z m 2.268316,-0.986149 0.298462,-0.105409 0.298463,-0.09077 0.298463,-0.09077 0.195582,-0.123342 0.195583,-0.123343 0.416265,-0.273482 0.416266,-0.273481 v -0.04689 -0.04689 h 0.05051 0.05051 l 0.29272,-0.274568 0.29272,-0.274569 0.04829,-3.6e-5 0.04829,-3.7e-5 -0.03271,-0.03246 -0.03271,-0.03247 0.08888,-0.04525 0.08888,-0.04525 v -0.05173 -0.05173 l 0.08421,-0.08109 0.08421,-0.08109 0.0375,-0.713979 0.03751,-0.713979 -0.121725,-0.209618 -0.121719,-0.209617 v -0.06499 -0.06499 l -0.14174,-0.213431 -0.141746,-0.213432 -0.0669,-0.04104 -0.06746,-0.04104 v -0.04101 -0.04101 l -0.21069,-0.150981 -0.210691,-0.150981 -0.311619,-0.10913 -0.311619,-0.10913 -0.268616,-0.05717 -0.268616,-0.05717 -0.208924,-5.12e-4 -0.208924,-5.13e-4 -0.328309,0.07654 -0.328309,0.07654 -0.02985,-0.0065 -0.02985,-0.0065 -0.03894,0.140521 -0.03894,0.140522 -0.03462,0.292914 -0.03462,0.292915 -0.06024,0.274607 -0.06025,0.274607 -0.03727,0.329529 -0.03727,0.329529 -0.0454,0.03661 -0.04541,0.03661 -0.04467,0.219686 -0.04467,0.219686 -0.01791,0.12815 -0.0179,0.12815 -0.0939,0.311222 -0.0939,0.311222 -0.117702,0.347836 -0.117707,0.347836 -0.0018,0.165006 -0.0018,0.165006 -0.05459,0.11676 -0.05459,0.116761 -0.0419,0.239962 -0.04189,0.239963 0.200949,0.05351 0.200949,0.05351 0.298462,5.79e-4 0.298463,5.78e-4 0.298463,-0.105409 z m -9.339783,0.927968 -0.206826,-0.05503 -0.119032,-0.07837 -0.119032,-0.07837 -0.01412,-0.148929 -0.01412,-0.14893 0.116501,-0.204454 0.116501,-0.204455 0.0362,-0.161689 0.0362,-0.161688 0.04334,-0.05492 0.04334,-0.05492 0.01086,-0.581392 0.01085,-0.581393 0.02262,-0.02274 0.02262,-0.02274 0.04041,-0.585829 0.04041,-0.585829 0.05019,-0.401998 0.05019,-0.401998 -0.02843,-0.02822 -0.02843,-0.02822 h 0.06321 0.06321 l 0.0012,-0.173918 0.0012,-0.173918 0.06029,-0.25589 0.06029,-0.255891 0.02899,-0.293324 0.02899,-0.293324 0.06229,-0.190115 0.06229,-0.190115 0.01841,-0.304178 0.01841,-0.304179 0.0079,-0.09984 0.0079,-0.09984 0.150428,-0.06046 0.150427,-0.06046 0.344533,-0.0441 0.344533,-0.0441 0.08704,0.02508 0.08704,0.02508 0.272843,0.08344 0.272843,0.08344 0.158333,0.172768 0.158329,0.172768 -0.05895,0.124495 -0.05895,0.124496 -0.02757,0.340763 -0.02757,0.340762 -0.02306,0.02538 -0.02307,0.02538 -0.01245,0.269912 -0.01245,0.269912 -0.05599,0.09034 -0.05599,0.09034 0.0033,0.09743 0.0033,0.09743 -0.06322,0.256301 -0.06322,0.2563 -0.05967,0.823822 -0.05967,0.823822 -0.02851,0.164764 -0.02851,0.164765 -0.03282,0.38445 -0.03282,0.38445 0.0062,0.05492 0.0062,0.05492 0.01814,0.183071 0.01814,0.183072 -0.111509,0.297919 -0.111509,0.297918 V 82.568588 82.753 l -0.15005,0.109381 -0.150052,0.109382 -0.27843,0.05819 -0.27843,0.05819 -0.332598,-0.0014 -0.332599,-0.0014 -0.206827,-0.05503 z m -7.296141,-0.03463 -0.03899,-0.02392 -0.576626,-0.0685 -0.576626,-0.0685 -0.756103,-0.02173 -0.756103,-0.02173 -0.137148,0.0017 -0.137149,0.0017 -0.294548,-0.09155 -0.294549,-0.09155 -0.0983,-0.09202 -0.0983,-0.09203 0.03164,-0.144681 0.03164,-0.144681 0.08509,-0.05219 0.08509,-0.05219 0.372134,-0.115225 0.372135,-0.115226 0.220212,0.01281 0.220213,0.01281 0.155145,0.06266 0.155145,0.06266 0.680551,0.03845 0.68055,0.03845 0.23877,0.0333 0.23877,0.0333 0.378303,8.93e-4 0.378302,8.97e-4 0.382101,-0.131069 0.382102,-0.13107 0.110156,-0.09777 0.110155,-0.09777 0.188983,-0.251257 0.188983,-0.251257 -3.59e-4,-0.188115 -3.58e-4,-0.188114 -0.06561,-0.14496 -0.06561,-0.14496 -0.224963,-0.203197 -0.224963,-0.203196 -0.173713,-0.109523 -0.173714,-0.109522 -0.296458,-0.162545 -0.296458,-0.162545 -0.328309,-0.08746 -0.328309,-0.08746 -0.104462,-0.01972 -0.104462,-0.01972 v -0.02891 -0.02891 l -0.313386,-0.02618 -0.313386,-0.02618 -0.285749,-0.06879 -0.285749,-0.06879 h -0.107472 -0.107458 l -0.331465,-0.145591 -0.331464,-0.14559 -0.191425,-0.174785 -0.191425,-0.174785 0.0469,-0.311221 0.0469,-0.311222 -0.0038,-0.155611 -0.0038,-0.155611 h 0.05218 0.05218 v -0.05492 -0.05492 h 0.06322 0.06321 l -0.03627,-0.036 -0.03627,-0.036 0.234714,-0.211146 0.234714,-0.211147 0.141268,-0.09744 0.141268,-0.09744 0.149232,-0.153125 0.149231,-0.153125 0.47754,-0.281316 0.47754,-0.281315 0.527794,-0.158026 0.527794,-0.158025 0.116493,0.01869 0.116493,0.01869 0.191409,-0.03421 0.191408,-0.03421 0.435277,0.03996 0.435276,0.03996 0.254093,0.06894 0.254093,0.06894 0.204441,0.156044 0.204443,0.156045 0.0165,0.04688 0.01655,0.04688 0.01989,0.06103 0.01989,0.06103 -0.115443,0.07081 -0.115443,0.07081 -0.271449,0.07365 -0.27145,0.07365 -0.361302,-0.02507 -0.361303,-0.02507 -0.106929,-0.0351 -0.106929,-0.0351 -0.300297,0.07924 -0.300297,0.07924 -0.137628,0.100325 -0.137627,0.100325 -0.129611,0.04255 -0.129611,0.04255 v 0.04863 0.04863 l -0.30411,0.252151 -0.30411,0.252151 -0.0746,0.09154 -0.0746,0.09154 -0.06215,0.164764 -0.06215,0.164765 -0.0011,0.106032 -0.0011,0.106033 0.158382,0.08242 0.158382,0.08242 0.134045,0.072 0.134045,0.072 0.283803,0.02351 0.283803,0.02351 0.447693,0.115482 0.447694,0.115482 0.378252,0.11315 0.378251,0.113149 0.219298,0.12815 0.219297,0.12815 0.2083,0.114569 0.2083,0.114569 0.380664,0.303174 0.380664,0.303175 0.168948,0.223007 0.168948,0.223007 0.06411,0.321345 0.06411,0.321344 -0.06658,0.154642 -0.06658,0.154641 -0.238935,0.329529 -0.238935,0.329529 -0.188822,0.122938 -0.188821,0.122938 -0.537233,0.216844 -0.537233,0.216844 -0.474017,0.09205 -0.474018,0.09205 -0.482267,0.01901 -0.482267,0.01901 -0.03899,-0.02392 z m 37.294849,-0.460392 -0.293144,-0.07294 -0.177138,-0.07737 -0.177138,-0.07737 0.03908,-0.735598 0.03909,-0.735597 0.05837,-0.183072 0.05837,-0.183071 0.05936,-0.347836 0.05936,-0.347836 0.06315,-0.274607 0.06315,-0.274608 0.04968,-1.427958 0.04968,-1.427958 -0.01978,-0.06407 -0.01979,-0.06407 h 0.05979 0.05979 l -0.03374,-0.03349 -0.03374,-0.03349 0.194377,-0.07301 0.19437,-0.07301 0.259364,-0.04231 0.25937,-0.04231 0.412159,0.121345 0.412159,0.121345 1.8e-5,0.02746 1.2e-5,0.02746 h 0.0521 0.0521 l 0.400531,-0.201379 0.400531,-0.201378 h 0.01045 0.01045 l 0.5265,-0.109843 0.526506,-0.109843 h 0.27957 0.27957 l 0.542277,0.08408 0.542271,0.08408 0.18984,0.08984 0.18983,0.08984 0.38437,0.193435 0.38435,0.193436 0.42815,0.392393 0.42814,0.392394 0.11605,0.164764 0.11605,0.164765 0.0846,0.292914 0.0846,0.292914 v 0.173918 0.173918 h -0.0597 -0.0597 l 0.009,0.02746 0.009,0.02746 -0.0488,0.07323 -0.0488,0.07323 -0.25131,0.183072 -0.25132,0.183071 -0.35106,0.144187 -0.35105,0.144186 -0.0597,0.04132 -0.0597,0.04131 -0.29846,0.09751 -0.29846,0.09751 -0.806673,0.192975 -0.806678,0.192975 8.35e-4,0.05492 8.36e-4,0.05492 0.328309,0.138258 0.328309,0.138258 0.398482,0.126284 0.39848,0.126284 0.0381,0.03781 0.0381,0.03782 0.45881,0.20715 0.4588,0.207149 0.25878,0.138602 0.25877,0.138602 0.57692,0.182459 0.57692,0.182458 0.11543,0.0526 0.11543,0.0526 0.0202,0.212398 0.0202,0.212399 -0.16042,0.102708 -0.16042,0.102708 -0.33338,0.05949 -0.33338,0.05949 -0.32676,-0.04481 -0.32676,-0.04481 -0.27017,-0.07792 -0.27016,-0.07792 -0.17908,-0.102585 -0.17907,-0.102586 -0.42944,-0.196127 -0.429434,-0.196127 -0.170434,-0.104044 -0.170428,-0.104045 -0.295526,-0.127862 -0.29552,-0.127861 -0.23877,-0.08788 -0.23877,-0.08788 -0.149231,-0.08089 -0.149231,-0.08089 -0.295866,-0.08559 -0.295866,-0.08559 -0.211521,-0.116234 -0.21152,-0.116234 -0.179078,-0.06038 -0.179077,-0.06038 -0.106163,-0.0453 -0.106158,-0.0453 -0.05708,0.05492 -0.05708,0.05492 -0.0021,0.292915 -0.0021,0.292914 -0.06559,0.2563 -0.06559,0.256301 0.0073,0.201378 0.0073,0.201379 0.06643,0.200311 0.06643,0.200312 -0.200973,0.105593 -0.200967,0.105593 -0.192084,0.05109 -0.192085,0.05109 -0.225763,-0.002 -0.225763,-0.002 -0.29315,-0.07294 z m 2.382388,-3.261839 0.23877,-0.04307 0.04477,0.0067 0.04477,0.0067 v -0.03662 -0.03661 l 0.134308,-3.7e-5 0.134308,-3.6e-5 0.95508,-0.290159 0.955081,-0.290159 0.27588,-0.140018 0.27589,-0.140017 0.065,-0.109843 0.065,-0.109843 0.0398,-0.15566 0.0398,-0.15566 -0.34312,-0.411862 -0.34313,-0.411862 -0.186821,-0.12212 -0.186832,-0.12212 -0.161188,-0.0518 -0.161193,-0.0518 h -0.183961 -0.183954 l -0.195493,0.0501 -0.195493,0.0501 -0.586247,0.385079 -0.586246,0.385078 -0.238346,0.01961 -0.238346,0.01961 -0.05129,0.03146 -0.05129,0.03146 -0.01716,0.868477 -0.01716,0.868477 0.209992,-2.19e-4 0.209987,-2.2e-4 0.23877,-0.04307 z m -57.121981,3.15806 -0.212685,-0.133601 v -0.135352 -0.135351 l 0.11811,-0.265862 0.11811,-0.265862 0.06035,-0.292915 0.06035,-0.292914 0.06413,-0.201379 0.06413,-0.201379 0.06026,-0.183071 0.06026,-0.183072 0.05374,-0.09154 0.05374,-0.09154 0.02795,-0.09154 0.02795,-0.09154 0.155767,-0.329529 0.155768,-0.329529 0.01396,-0.03661 0.01396,-0.03661 0.102344,-0.124622 0.102343,-0.124622 v -0.0872 -0.0872 l 0.09837,-0.09209 0.09837,-0.09209 0.05108,-0.355146 0.05108,-0.355147 0.02803,-0.150619 0.02803,-0.150618 0.147398,-0.288753 0.147399,-0.288754 0.06702,-0.329529 0.06702,-0.329528 0.0215,-0.210559 0.0215,-0.210558 0.138758,-0.15288 0.138757,-0.152881 0.119385,-0.01254 0.119385,-0.01254 0.289022,-0.02158 0.289022,-0.02158 0.311814,0.06016 0.311813,0.06016 0.19009,0.106496 0.190091,0.106496 v 0.04014 0.04014 l 0.119385,0.14354 0.119385,0.14354 v 0.09211 0.09211 l 0.120116,0.119881 0.120116,0.119881 0.06467,0.146458 0.06467,0.146457 0.419653,0.549215 0.419654,0.549214 0.106424,0.146457 0.106424,0.146458 0.218697,0.30988 0.218697,0.309881 0.185892,0.239334 0.185892,0.239334 0.165167,0.105904 0.165167,0.105904 0.09682,0.125147 0.09682,0.125146 0.08503,0.02001 0.08503,0.02001 v 0.06749 0.06749 l 0.07479,0.02928 0.07479,0.02928 0.177713,0.164764 0.177713,0.164765 0.23217,0.164764 0.23217,0.164764 0.06214,0.08238 0.06214,0.08238 h 0.04334 0.04334 l 0.04048,-0.118997 0.04048,-0.118996 0.02952,-0.164765 0.02952,-0.164764 0.03654,-0.05492 0.03654,-0.05492 0.01989,-0.108175 0.01989,-0.108174 0.05943,-0.03645 0.05943,-0.03645 -1.79e-4,-0.07506 -1.79e-4,-0.07506 0.0955,-0.2563 0.0955,-0.2563 0.173492,-0.311222 0.173492,-0.311221 -2.39e-4,-0.138274 -2.39e-4,-0.138274 0.119837,-0.301098 0.119838,-0.301098 0.08831,-0.183071 0.08831,-0.183072 0.06069,-0.217991 0.06069,-0.21799 0.05947,-0.03648 0.05956,-0.03648 V 76.63492 76.457423 l 0.164155,-0.09355 0.164154,-0.09355 0.221469,-0.06946 0.221469,-0.06946 h 0.259308 0.259308 l 0.27701,0.107756 0.27701,0.107756 0.09697,0.115017 0.09697,0.115017 0.0045,0.09779 0.0045,0.09779 -0.122368,0.147127 -0.122368,0.147127 -0.04069,0.182212 -0.04069,0.182212 -0.08837,0.219686 -0.08837,0.219686 -0.08554,0.178122 -0.08554,0.178123 v 0.231628 0.231627 l -0.05985,0.02269 -0.05985,0.02269 -0.120632,0.162426 -0.120632,0.162426 -0.06341,0.100807 -0.06341,0.100808 -0.04851,0.164764 -0.04851,0.164764 -0.09559,0.212319 -0.09559,0.212319 v 0.06528 0.06528 l -0.112185,0.235005 -0.112185,0.235006 -0.130318,0.347836 -0.130318,0.347836 -0.05228,0.12815 -0.05228,0.12815 -0.09826,0.183072 -0.09826,0.183071 -0.07128,0.152921 -0.07128,0.152922 -0.117682,0.07988 -0.117682,0.07988 -0.284618,0.08853 -0.284618,0.08853 -0.401846,-0.02218 -0.401846,-0.02218 -0.161561,-0.03748 -0.16156,-0.03748 -0.07052,-0.133521 -0.07052,-0.133521 -0.272665,-0.329528 -0.272665,-0.329529 -0.151822,-0.146457 -0.151821,-0.146458 -0.06345,-0.03661 -0.06345,-0.03661 -0.235051,-0.214971 -0.23505,-0.214971 -0.149248,-0.07983 -0.14925,-0.07983 -0.01909,-0.05303 -0.01909,-0.05303 -0.174912,-0.111586 -0.174912,-0.111586 v -0.02421 -0.02421 l -0.247364,-0.202887 -0.247363,-0.202888 h -0.05462 -0.05462 l 0.02937,-0.02915 0.02937,-0.02915 -0.179188,-0.199686 -0.179188,-0.199687 -0.259424,-0.38445 -0.259424,-0.38445 -0.153599,-0.164765 -0.153599,-0.164764 -7.16e-4,-0.06146 -7.23e-4,-0.06146 -0.07995,-0.04904 -0.07995,-0.04904 -0.03105,-0.05427 -0.03105,-0.05427 -0.07234,0.164765 -0.07234,0.164764 -0.147126,0.292914 -0.147125,0.292915 -0.03267,0.09154 -0.03267,0.09154 -0.05028,0.146457 -0.05028,0.146457 -0.153667,0.288434 -0.153667,0.288435 v 0.08868 0.08868 l -0.08226,0.09887 -0.08226,0.09887 -0.09828,0.267491 -0.09828,0.267492 0.03229,0.03205 0.03229,0.03205 -0.05701,0.02161 -0.05701,0.02161 -10e-4,0.290854 -0.001,0.290854 -0.102118,0.120284 -0.102118,0.120283 0.0071,0.252579 0.0071,0.252579 -0.200068,0.122718 -0.200063,0.122718 h -0.11853 -0.118532 l -0.170977,0.05525 -0.170978,0.05525 -0.369316,-0.0056 -0.369317,-0.0056 z m 87.595018,-0.335219 -0.32831,-0.03101 -0.53723,-0.09405 -0.53724,-0.09405 -0.22623,-0.03575 -0.22624,-0.03575 -0.34084,-0.116183 -0.34084,-0.116184 -0.35659,-0.146532 -0.3566,-0.146532 -0.13103,-0.09376 -0.13103,-0.09376 -0.27436,-0.183071 -0.27436,-0.183072 -0.16239,-0.146457 -0.1624,-0.146457 -0.16264,-0.12815 -0.16265,-0.128151 -0.0966,-0.164764 -0.0966,-0.164764 -0.0237,-0.237993 -0.0237,-0.237993 -0.061,-0.201379 -0.061,-0.201379 -0.0295,-0.2563 -0.0295,-0.2563 -0.0378,-0.411911 -0.0378,-0.411911 h 0.0772 0.0772 l -0.0352,-0.02162 -0.0353,-0.02162 0.0909,-0.152301 0.0909,-0.1523 0.0131,-0.05492 0.0131,-0.05492 0.0653,-0.09154 0.0653,-0.09154 0.14961,-0.204786 0.1496,-0.204785 0.43768,-0.243132 0.43766,-0.243131 0.23877,-0.07102 0.23877,-0.07102 0.41731,-0.04516 0.41731,-0.04516 0.35869,-0.104086 0.3587,-0.104086 0.24115,-2.9e-5 0.24115,-2.9e-5 0.35577,0.05954 0.35578,0.05953 0.23877,0.02876 0.23877,0.02876 0.29846,0.05357 0.29846,0.05357 0.388,0.136421 0.38801,0.13642 0.388,0.122057 0.388,0.122058 0.34322,0.194638 0.34323,0.194637 0.2078,0.266983 0.20779,0.266983 0.14354,0.117467 0.14356,0.117468 0.11854,0.146457 0.11854,0.146457 0.10379,0.2563 0.1038,0.256301 0.027,0.09121 0.027,0.09121 0.10068,0.06821 0.10069,0.06821 -0.003,0.463019 -0.003,0.463019 -0.0502,0.237993 -0.0502,0.237993 -0.17102,0.233904 -0.17102,0.233904 v 0.04778 0.04778 l -0.10446,0.04785 -0.10446,0.04784 -0.12874,0.167869 -0.12874,0.167869 -0.21675,0.198274 -0.21675,0.198274 -0.14389,0.121607 -0.1439,0.121607 -0.22858,0.101568 -0.22858,0.101568 -0.37167,0.07889 -0.37165,0.07889 -0.58177,-0.0045 -0.58176,-0.0045 -0.32831,-0.03101 z m 1.21321,-0.933796 0.22408,-0.1133 0.20842,-0.197921 0.20842,-0.197922 0.29573,-0.366143 0.29573,-0.366143 0.0457,-0.146457 0.0457,-0.146457 -0.009,-0.201379 -0.009,-0.201379 -0.0944,-0.2563 -0.0944,-0.2563 -0.0901,-0.199748 -0.0901,-0.199747 -0.27308,-0.33977 -0.27307,-0.339769 -0.0564,-0.02138 -0.0564,-0.02138 0.0371,-0.0368 0.0371,-0.0368 -0.11399,-0.07967 -0.11399,-0.07967 -0.14333,-0.133916 -0.14332,-0.133916 -0.45032,-0.18647 -0.45033,-0.186471 -0.0766,1.1e-5 -0.0766,1.1e-5 -0.29449,-0.09154 -0.2945,-0.09154 h -0.16424 -0.16423 l -0.12901,0.09209 -0.129,0.09209 -0.46982,0.03288 -0.46983,0.03288 -0.10159,0.01423 -0.10161,0.01423 -0.12843,0.0713 -0.12843,0.07129 -0.1489,0.155842 -0.14889,0.155843 -0.11116,0.179441 -0.11116,0.179441 -0.064,0.315891 -0.064,0.315892 0.0606,0.209306 0.0606,0.209306 0.0606,0.467209 0.0605,0.467209 0.0563,0.0637 0.0563,0.0637 0.1012,0.173918 0.1012,0.173918 h 0.0508 0.0508 l 0.0824,0.118996 0.0824,0.118997 0.36626,0.243737 0.36626,0.243739 0.25439,0.09145 0.2544,0.09144 0.53633,0.127775 0.53634,0.127774 0.0895,0.02111 0.0895,0.02111 0.4498,-0.0081 0.4498,-0.0081 z m -15.00218,0.788306 -0.26862,-0.0322 -0.71631,-0.0014 -0.71631,-0.0014 -0.20553,-0.04141 -0.20554,-0.04141 -0.25708,-0.09525 -0.25708,-0.09525 v -0.194194 -0.194184 l 0.21573,-0.282068 0.21573,-0.282068 0.045,-0.183072 0.045,-0.183071 0.10613,-0.146457 0.10612,-0.146458 0.081,-0.402757 0.081,-0.402757 0.0598,-0.274608 0.0598,-0.274607 0.0585,-0.237993 0.0585,-0.237993 0.0903,-0.421065 0.0903,-0.421064 -0.007,-0.72441 -0.007,-0.724409 0.1067,-0.07232 0.1067,-0.07232 0.28824,-0.05251 0.28824,-0.05251 0.13474,0.01973 0.13474,0.01973 0.18912,0.02398 0.18911,0.02398 0.19407,0.106493 0.19406,0.106493 0.24359,-0.07881 0.24359,-0.07881 0.77601,-0.07155 0.776,-0.07155 0.41785,0.05029 0.41784,0.05029 0.28404,0.03829 0.28403,0.03829 0.79043,0.241575 0.79043,0.241576 0.23877,0.08732 0.23877,0.08732 0.11978,0.0849 0.11979,0.0849 0.14883,0.06357 0.14884,0.06357 0.52231,0.313983 0.52231,0.313982 v 0.03392 0.03392 l 0.13347,0.173519 0.13348,0.173519 8.3e-4,0.567522 8.4e-4,0.567521 -0.14206,0.146458 -0.14207,0.146457 -0.1613,0.241871 -0.16131,0.241872 -0.29356,0.284557 -0.29355,0.284557 -0.29846,0.164848 -0.29847,0.164848 -0.41784,0.191484 -0.41785,0.191484 -0.35816,0.146452 -0.35815,0.146453 -0.54556,0.152402 -0.54555,0.152403 -0.43937,0.09235 -0.43938,0.09235 -0.43653,0.07241 -0.43653,0.07241 -0.69763,0.01412 -0.69762,0.01412 -0.26862,-0.0322 z m 1.34308,-0.935648 0.41785,-0.05604 0.19602,-0.05219 0.19603,-0.05219 h 0.10542 0.10542 l 0.0567,-0.03219 0.0567,-0.03219 0.20892,-0.04097 0.20892,-0.04097 0.48705,-0.177821 0.48704,-0.177822 0.35128,-0.160932 0.35128,-0.160933 0.32115,-0.228449 0.32116,-0.228449 0.23917,-0.22923 0.23917,-0.22923 0.12833,-0.221228 0.12833,-0.221228 -0.0209,-0.359676 -0.0209,-0.359676 -0.13314,-0.10636 -0.13314,-0.10636 -0.23856,-0.167743 -0.23855,-0.167743 -0.17929,-0.05641 -0.1793,-0.05641 -0.34622,-0.195936 -0.34623,-0.195936 -0.6387,-0.187332 -0.6387,-0.187333 -0.41785,0.04305 -0.41784,0.04305 -0.26862,0.04961 -0.26862,0.04961 -0.36594,0.04005 -0.36594,0.04004 -0.0882,-0.02077 -0.0882,-0.02076 -0.044,0.615216 -0.044,0.615217 -0.0163,0.1513 -0.0163,0.1513 -0.039,0.03866 -0.0389,0.03866 -0.0318,0.157878 -0.0318,0.157879 -0.0522,0.183071 -0.0522,0.183072 -0.063,0.347836 -0.063,0.347836 -0.0667,0.457679 -0.0667,0.457678 -0.11342,0.160266 -0.11341,0.160265 v 0.02768 0.02768 l 0.40293,0.03701 0.40292,0.03701 0.20893,-0.01603 0.20892,-0.01603 z m 64.55008,0.885488 -0.0372,-0.02366 -0.29109,-0.03246 -0.29108,-0.03246 -0.32831,-0.07143 -0.32831,-0.07143 -0.53723,-0.174259 -0.53724,-0.174259 -0.32293,-0.168903 -0.32293,-0.168902 -0.33369,-0.216719 -0.33368,-0.216719 -0.10446,-0.05687 -0.10447,-0.05687 v -0.03042 -0.03042 l -0.14923,-0.134707 -0.14923,-0.134707 v -0.04992 -0.04992 l -0.11762,-0.101321 -0.11762,-0.101321 0.0289,-0.01772 0.0289,-0.01771 -0.0851,-0.417524 -0.0851,-0.417523 0.0218,-0.292915 0.0218,-0.292914 0.0347,-0.29143 0.0347,-0.29143 0.0771,-0.05641 0.077,-0.05641 0.2445,-0.317881 0.2445,-0.317882 0.33517,-0.315416 0.33516,-0.315416 0.46768,-0.274669 0.46768,-0.274668 0.19607,-0.08873 0.19607,-0.08873 0.43426,-0.110888 0.43425,-0.110889 h 0.50863 0.50862 l 0.33284,0.05318 0.33284,0.05318 0.30178,0.100749 0.30178,0.100749 0.14429,0.105185 0.1443,0.105184 v 0.05886 0.05886 l -0.12202,0.15461 -0.12202,0.15461 -0.3406,0.02314 -0.34059,0.02314 -0.29847,-0.02503 -0.29846,-0.02503 -0.22329,0.0016 -0.22329,0.0016 -0.25425,0.09179 -0.25425,0.09179 -0.36716,0.233858 -0.36717,0.233859 -0.21484,0.17264 -0.21483,0.17264 v 0.02161 0.02161 l -0.10014,0.133684 -0.10014,0.133683 -0.11889,0.105889 -0.11888,0.105889 -0.0182,0.09549 -0.0182,0.09549 -0.0484,0.263967 -0.0484,0.263967 0.0237,0.257787 0.0238,0.257787 h 0.053 0.053 v -0.04628 -0.04628 l 0.46261,-0.275312 0.46262,-0.275311 0.26862,-0.07742 0.26861,-0.07742 0.35125,-0.06629 0.35125,-0.06629 0.36506,-10e-4 0.36507,-0.001 0.388,0.02687 0.388,0.02687 0.29846,0.03152 0.29846,0.03152 0.32831,0.09994 0.32831,0.09994 0.12762,0.04389 0.12762,0.04389 0.24999,0.106263 0.24999,0.106263 0.11606,0.139553 0.11607,0.139552 h -0.0339 -0.0339 l 0.17311,0.155611 0.17311,0.15561 0.0698,0.0814 0.0698,0.0814 0.0584,0.188917 0.0584,0.188916 -0.25027,0.35213 -0.25027,0.35213 -0.26228,0.274607 -0.26228,0.274608 -0.0993,0.06846 -0.0993,0.06846 -0.29846,0.116859 -0.29846,0.116859 -0.38261,0.116748 -0.38261,0.116748 h -0.15761 -0.15761 l -0.0567,0.03424 -0.0567,0.03424 -0.50739,0.02456 -0.50739,0.02456 -0.0372,-0.02366 z m 0.76088,-1.023451 0.42183,-0.123997 0.25484,-0.185386 0.25485,-0.185385 0.15094,-0.194064 0.15095,-0.194063 -0.0118,-0.12815 -0.0117,-0.12815 -0.0655,-0.12815 -0.0655,-0.12815 -0.14246,-0.115135 -0.14246,-0.115134 -0.16187,-0.03827 -0.16187,-0.03827 -0.30251,-0.02303 -0.3025,-0.02303 -0.39893,0.09796 -0.39894,0.09796 -0.40625,0.266824 -0.40624,0.266825 -0.52221,0.02668 -0.52221,0.02668 -0.14596,-0.08411 -0.14596,-0.08411 v 0.06366 0.06365 l 0.48287,0.336332 0.48287,0.336332 0.38028,0.155714 0.38029,0.155714 0.28593,0.06938 0.28592,0.06938 0.18076,0.0037 0.18076,0.0037 z m -18.68589,0.489179 -0.26074,-0.147421 -0.0288,-0.118033 -0.0288,-0.118034 0.067,-0.02611 0.067,-0.02611 V 79.876568 78.82256 l -0.0736,-0.585829 -0.0736,-0.585829 -0.009,-0.970279 -0.009,-0.970279 0.008,-0.05733 0.008,-0.05733 0.23197,-0.07997 0.23198,-0.07997 h 0.27711 0.27711 l 0.34153,0.106173 0.34153,0.106173 0.14283,0.09397 0.14282,0.09397 -0.044,0.413145 -0.044,0.413144 -0.002,0.494293 -0.002,0.494293 0.0673,0.732286 0.0673,0.732286 0.0308,0.347836 0.0308,0.347836 0.0276,0.622444 0.0276,0.622443 -0.0982,0.164764 -0.0981,0.164765 -0.12445,0.06326 -0.12446,0.06326 -0.55348,8.13e-4 -0.5535,8.13e-4 -0.26073,-0.14742 z m -28.16405,0.07607 -0.16304,-0.03179 -0.17689,-0.08573 -0.17688,-0.08573 -0.003,-0.04577 -0.003,-0.04577 h -0.0553 -0.0554 l 0.0226,-0.109781 0.0226,-0.109781 0.0884,-0.119059 0.0884,-0.119058 0.0699,-0.347836 0.0699,-0.347836 0.0481,-0.03661 0.0481,-0.03662 0.002,-0.09154 0.002,-0.09154 0.0586,-0.238203 0.0586,-0.238203 0.0653,-0.105315 0.0653,-0.105316 -0.0338,-0.06531 -0.0338,-0.06531 0.0608,-0.02304 0.0608,-0.02305 -0.008,-0.253424 -0.008,-0.253423 0.0748,-0.05532 0.0748,-0.05532 0.0245,-0.19305 0.0245,-0.193049 0.0573,-0.311222 0.0573,-0.311221 0.0556,-0.208465 0.0556,-0.208464 0.0429,-0.04259 0.0429,-0.04258 -0.0769,-0.142933 -0.0769,-0.142932 0.084,-0.100312 0.084,-0.100312 0.1795,-0.109843 0.17949,-0.109843 0.0895,-0.01831 0.0895,-0.01831 0.47504,0.01038 0.47504,0.01037 0.0967,0.0537 0.0967,0.0537 h 0.12147 0.12147 l 0.15721,0.09644 0.15723,0.09644 0.0615,0.140009 0.0615,0.140011 0.0581,0.02201 0.0581,0.02201 v 0.04626 0.04626 l 0.194,0.212586 0.194,0.212586 0.18088,0.205826 0.18089,0.205827 0.0877,0.08967 0.0877,0.08967 0.0463,0.03848 0.0463,0.03848 0.186,0.183071 0.18599,0.183072 0.20044,0.191662 0.20043,0.191661 v 0.05243 0.05243 l 0.0558,0.0122 0.0558,0.01221 0.44062,0.406886 0.44062,0.406886 0.075,-0.103961 0.075,-0.103963 -0.0284,-0.02832 -0.0284,-0.02832 0.0814,-0.311222 0.0814,-0.311222 0.0357,-0.254055 0.0357,-0.254056 0.0252,-0.025 0.0252,-0.025 0.0643,-0.306774 0.0643,-0.306774 0.0224,-0.164765 0.0224,-0.164764 0.0844,-0.458792 0.0844,-0.458792 0.0667,-0.07646 0.0667,-0.07645 -0.0312,-0.01913 -0.0312,-0.01913 0.17681,-0.07722 0.1768,-0.07722 h 0.26815 0.26814 l 0.43895,0.109074 0.43896,0.109075 0.10937,0.08178 0.10938,0.08178 -0.0307,0.09291 -0.0307,0.09291 -0.12722,0.292914 -0.12722,0.292915 -0.0605,0.274607 -0.0605,0.274607 -0.054,0.366144 -0.054,0.366143 -0.002,0.08057 -0.002,0.08057 -0.0531,0.02013 -0.0531,0.02013 0.0302,0.138097 0.0302,0.138097 -0.12391,0.365343 -0.12392,0.365343 -0.029,0.201379 -0.029,0.201378 -0.002,0.201379 -0.002,0.201379 v 0.05492 0.05492 l -0.0496,0.339759 -0.0497,0.339759 -0.1148,0.09399 -0.11481,0.09399 -0.23549,0.04953 -0.2355,0.04953 -0.54051,-0.03051 -0.54051,-0.03051 -0.34864,-0.233085 -0.34864,-0.233085 -0.14587,-0.12815 -0.14589,-0.12815 -0.23348,-0.201379 -0.23349,-0.201378 -0.003,-0.02738 -0.003,-0.02738 -0.4274,-0.430296 -0.42739,-0.430295 -0.17739,-0.125756 -0.17738,-0.125757 -0.0987,-0.130543 -0.0987,-0.130544 -0.2193,-0.201379 -0.2193,-0.201379 -0.11861,-0.09154 -0.11861,-0.09154 -0.0645,0.03944 -0.0645,0.03944 -0.0241,0.216864 -0.0241,0.216864 -0.0891,0.201379 -0.089,0.201378 -0.0423,0.229659 -0.0424,0.229659 -0.0518,0.01965 -0.0518,0.01965 -0.003,0.171758 -0.003,0.171757 -0.0532,0.146457 -0.0532,0.146457 -0.0598,0.146457 -0.0598,0.146458 -0.0271,0.311221 -0.0271,0.311222 -0.0616,0.0957 -0.0616,0.09569 -0.10903,0.02883 -0.10904,0.02883 -0.0895,0.01634 -0.0895,0.01634 -0.41784,0.01327 -0.41785,0.01327 -0.16304,-0.03179 z m 33.68039,-0.175184 -0.26861,-0.0088 -0.29846,-0.04174 -0.29847,-0.04174 -0.14313,-0.108359 -0.14314,-0.108359 0.005,-0.09751 0.005,-0.09751 0.09,-0.437136 0.09,-0.437136 -0.0299,-0.0297 -0.0299,-0.0297 h 0.0504 0.0504 l 0.0743,-0.466832 0.0743,-0.466832 0.0284,-0.109843 0.0283,-0.109843 0.0259,-0.183072 0.0259,-0.183071 0.0363,-0.439372 0.0363,-0.439372 0.055,-0.274607 0.055,-0.274607 0.0103,-0.512601 0.0103,-0.5126 0.0703,-0.06287 0.0703,-0.06287 0.22781,-0.111047 0.22781,-0.111047 0.33503,8.05e-4 0.33502,8.06e-4 0.25369,0.07063 0.2537,0.07063 v 0.03333 0.03333 l 0.1343,-0.01567 0.13431,-0.01567 0.10446,0.108775 0.10447,0.108776 v 0.05544 0.05544 l 0.1965,0.25013 0.19652,0.25013 0.0915,0.09154 0.0915,0.09154 0.22875,0.237993 0.22875,0.237993 0.27414,0.269648 0.27415,0.269648 0.47754,0.444331 0.47754,0.444331 0.0215,0.03037 0.0215,0.03037 0.19248,0.179279 0.19249,0.179279 0.1507,0.07271 0.15069,0.07271 0.0314,-0.227436 0.0314,-0.227435 -0.0169,-0.164764 -0.0169,-0.164765 0.12432,-1.213416 0.12433,-1.213416 -0.0787,-0.201105 -0.0787,-0.201105 -0.007,-0.09624 -0.007,-0.09624 0.11311,-0.103246 0.1131,-0.103246 0.26083,-0.04279 0.26083,-0.04279 h 0.30278 0.30276 l 0.25587,0.112708 0.25586,0.112707 0.0782,0.08965 0.0782,0.08965 -0.005,0.392628 -0.005,0.392629 -0.0952,0.475986 -0.0953,0.475986 -0.0303,0.201379 -0.0303,0.201379 -0.004,1.546281 -0.004,1.54628 0.0392,0.03889 0.0392,0.03889 -0.0721,0.05332 -0.0721,0.05332 h 0.0417 0.0417 l -0.17174,0.08864 -0.17174,0.08864 -0.37422,0.05948 -0.37421,0.05948 -0.13017,-0.02282 -0.13016,-0.02282 -0.25068,-0.06091 -0.25067,-0.06091 -0.0564,-0.07355 -0.0564,-0.07355 -0.39595,-0.267802 -0.39594,-0.267803 -0.15404,-0.153262 -0.15404,-0.153262 -0.0681,-0.03691 -0.0681,-0.0369 -0.13574,-0.164473 -0.13573,-0.164474 -0.35673,-0.249256 -0.35673,-0.249256 v -0.04504 -0.04504 l -0.17665,-0.126767 -0.17665,-0.126767 -0.002,-0.03216 -0.002,-0.03216 -0.48947,-0.443822 -0.48948,-0.443821 -0.0733,-0.04575 -0.0733,-0.04575 -0.0331,0.192208 -0.0331,0.192208 -0.0304,0.439372 -0.0304,0.439371 -0.0538,0.366144 -0.0538,0.366143 -0.0725,0.585829 -0.0725,0.585829 -0.057,0.0955 -0.057,0.0955 -0.16042,0.07174 -0.16041,0.07174 -0.0895,0.01598 -0.0895,0.01598 -0.26862,-0.0088 z m -22.56377,-0.04544 -0.32831,-0.02607 -0.17922,-0.05692 -0.17921,-0.05692 -0.10688,-0.07244 -0.10687,-0.07244 -0.0344,-0.130064 -0.0344,-0.130063 0.11478,-0.103317 0.11477,-0.103317 0.10644,-0.274607 0.10643,-0.274608 0.16654,-0.2563 0.16654,-0.2563 0.0969,-0.204597 0.0969,-0.204597 v -0.06267 -0.06268 l 0.0915,-0.108526 0.0915,-0.108526 0.0521,-0.15511 0.0521,-0.155109 0.12997,-0.201379 0.12997,-0.201378 0.23465,-0.436068 0.23464,-0.436067 0.0416,-0.113148 0.0415,-0.113147 0.002,-0.188729 0.002,-0.188728 0.0384,0.01456 0.0384,0.01456 0.0367,-0.08213 0.0367,-0.08213 0.10419,-0.07323 0.10418,-0.07323 0.21651,-0.09921 0.21651,-0.09921 0.0414,-0.175394 0.0414,-0.175395 0.143,-0.187654 0.14301,-0.187654 0.29652,-0.05949 0.29654,-0.05949 h 0.11681 0.1168 l 0.38869,0.07364 0.38869,0.07364 0.17166,0.100279 0.17165,0.100278 0.11723,0.219686 0.11723,0.219686 0.0501,0.0224 0.0501,0.0224 -0.0154,0.01421 -0.0155,0.01421 0.13662,0.274607 0.13661,0.274608 0.0138,0.03661 0.0138,0.03661 0.0617,0.09154 0.0617,0.09154 0.22191,0.402662 0.22192,0.402662 0.0636,0.07332 0.0636,0.07332 0.16516,0.12815 0.16515,0.12815 -0.0625,0.189406 -0.0625,0.189407 0.10163,0.213351 0.10164,0.213351 0.11945,0.201379 0.11945,0.201378 0.0331,0.09154 0.0331,0.09154 0.35525,0.419909 0.35525,0.419909 0.21502,0.198696 0.21501,0.198694 0.0161,0.125624 0.0161,0.125625 -0.15568,0.144296 -0.15568,0.144297 -0.13979,0.02152 -0.13979,0.02152 -0.13514,-0.002 -0.13514,-0.002 -0.26861,-0.01349 -0.26862,-0.01349 -0.19091,-0.06155 -0.19092,-0.06155 -0.1561,-0.125534 -0.1561,-0.125536 -0.3611,-0.487793 -0.3611,-0.487793 -0.0873,-0.146457 -0.0873,-0.146457 -0.0205,-0.05956 -0.0205,-0.05956 -0.11868,-0.160126 -0.11868,-0.160125 -0.12336,-0.215669 -0.12335,-0.215669 -0.0188,-0.01151 -0.0188,-0.01151 -0.38573,0.03164 -0.38574,0.03164 -0.464,0.02482 -0.464,0.02482 -0.0814,0.119522 -0.0814,0.119522 -0.0439,0.161035 -0.0439,0.161036 -0.0445,0.01831 -0.0445,0.01831 -0.27363,0.549215 -0.27362,0.549214 0.004,0.26683 0.004,0.26683 -0.10279,0.06967 -0.10279,0.06967 -0.27322,0.0571 -0.27321,0.0571 -0.0938,-0.0048 -0.0938,-0.0048 -0.32831,-0.02607 z m 3.44122,-3.552721 -0.0359,-0.110034 -0.13606,-0.210341 -0.13607,-0.210341 h -0.0566 -0.0566 l -0.16458,0.292914 -0.16459,0.292915 -0.002,0.02746 -0.002,0.02746 h 0.39546 0.39546 l -0.0359,-0.110034 z m -134.372572,3.299642 -0.0327,-0.03245 0.118714,-0.01904 0.118714,-0.01904 v 0.05149 0.05149 h -0.08602 -0.08602 z m 141.616472,-0.01332 v -0.02746 l -0.0746,-9.85e-4 -0.0746,-9.85e-4 -0.20218,-0.102854 -0.20217,-0.102854 -0.0156,-0.308073 -0.0156,-0.308071 -0.0661,-0.549215 -0.0661,-0.549214 -0.0306,-0.311222 -0.0306,-0.311222 -0.0566,-0.274607 -0.0566,-0.274607 -0.0383,-0.439372 -0.0383,-0.439372 -0.0505,-0.439372 -0.0505,-0.439371 -0.0475,-0.183072 -0.0476,-0.183071 -1.164,0.0066 -1.16401,0.0066 -0.4988,0.0039 -0.4988,0.0039 -0.30424,-0.10543 -0.30423,-0.105429 -0.0448,-0.102837 -0.0448,-0.102837 0.0667,-0.07683 0.0667,-0.07683 0.15438,-0.118995 0.15439,-0.118996 0.13042,-10e-7 0.13042,-10e-7 0.16804,-0.03984 0.16804,-0.03984 1.52216,-0.01602 1.52216,-0.01602 1.10431,0.0044 1.10432,0.0044 1.01668,0.0096 1.0167,0.0096 0.26669,0.0728 0.2667,0.0728 0.194,0.122463 0.19401,0.122463 v 0.13136 0.131359 l -0.0932,0.08159 -0.0932,0.08158 -0.19038,0.06212 -0.19037,0.06212 -0.53724,-0.0081 -0.53723,-0.0081 -0.23877,-0.01958 -0.23877,-0.01958 -0.582,-0.02062 -0.582,-0.02062 v 0.03355 0.03355 l 0.054,0.03478 0.054,0.03478 0.0325,0.787207 0.0325,0.787208 0.057,0.292914 0.057,0.292915 0.0376,0.439372 0.0376,0.439371 0.0303,0.311222 0.0303,0.311222 0.0939,0.329528 0.0938,0.329529 0.0293,0.241583 0.0293,0.241583 -0.0912,0.108223 -0.0912,0.108223 -0.26276,0.0829 -0.26277,0.08289 -0.36836,-0.01164 -0.36837,-0.01164 v -0.02746 z M 20.125762,79.238739 v -0.02319 l 0.149232,-0.0175 0.149231,-0.0175 v 0.04069 0.04069 h -0.149231 -0.149232 z m 7.197901,-0.283115 -0.04675,-0.0464 0.03582,-0.02197 0.03582,-0.02197 0.03607,0.02212 0.03606,0.02212 -0.02514,0.04625 -0.02513,0.04625 z m 135.079227,-4.269125 -0.29846,-0.04617 -0.28116,-0.08487 -0.28115,-0.08487 -0.0383,-0.106959 -0.0383,-0.106959 0.0716,-0.156812 0.0716,-0.156811 0.1285,-0.0355 0.12849,-0.0355 0.2994,-0.0467 0.29939,-0.0467 0.487,0.15019 0.48699,0.15019 0.0352,0.0681 0.0352,0.06811 -0.0103,0.167398 -0.0103,0.167399 -0.21438,0.07273 -0.21438,0.07273 -0.17908,0.01859 -0.17908,0.01859 z m -96.088979,-0.03429 -0.342171,-0.0451 -0.0368,-0.02257 -0.0368,-0.02257 -0.282803,-0.149386 -0.282802,-0.149387 -0.01248,-0.212191 -0.01248,-0.212192 0.120475,-0.09395 0.120475,-0.09395 0.204646,-0.05957 0.204646,-0.05957 h 0.244533 0.244534 l 0.303562,0.133771 0.303563,0.133771 0.06108,0.09507 0.06109,0.09507 0.04154,0.20618 0.04155,0.20618 -0.168021,0.08673 -0.16802,0.08673 -0.118649,0.06408 -0.118651,0.06407 -0.01492,-0.0031 -0.01492,-0.0031 -0.342171,-0.0451 z m -8.033068,-2.312701 -0.495827,-0.05224 -0.112097,-0.0368 -0.112098,-0.0368 h -0.15612 -0.156119 l -0.179756,-0.05702 -0.179755,-0.05702 -1.205131,-0.01335 -1.205132,-0.01335 -0.507386,-0.02415 -0.507387,-0.02415 -0.20331,-0.06109 -0.203311,-0.06109 -0.114616,-0.182567 -0.114617,-0.182566 0.08845,-0.09204 0.08845,-0.09204 0.06533,-0.217257 0.06533,-0.217257 v -0.380133 -0.380132 l 0.05511,-0.06316 0.05511,-0.06316 0.02942,-0.218194 0.02942,-0.218194 0.118573,-0.347836 0.118572,-0.347836 0.03813,-0.38445 0.03813,-0.38445 0.05774,-0.402758 0.05774,-0.402757 0.05866,-0.421065 0.05866,-0.421064 0.03299,-0.237993 0.03299,-0.237993 0.02636,-0.329529 0.02636,-0.329529 0.05516,-0.347836 0.05516,-0.347836 0.0084,-0.786895 0.0084,-0.786895 0.05024,-0.14677 0.05024,-0.14677 0.0081,-0.211946 0.0081,-0.211947 0.156398,-0.107666 0.156398,-0.107667 0.111279,-0.02166 0.111279,-0.02166 0.09806,-0.116402 0.09806,-0.116401 0.09529,-0.04791 0.09529,-0.04791 0.23877,-0.06762 0.23877,-0.06762 0.600371,-0.01888 0.600371,-0.01888 0.354709,-0.04446 0.35471,-0.04446 0.686463,0.08456 0.686464,0.08456 0.933073,-0.0095 0.933073,-0.0095 0.424932,0.209118 0.424932,0.209117 v 0.07097 0.07097 l -0.06169,0.0707 -0.06169,0.0707 -0.236583,0.07403 -0.236583,0.07403 -0.273293,0.02298 -0.273293,0.02298 -0.398439,-0.0405 -0.398439,-0.0405 -0.686464,-0.03967 -0.686464,-0.03967 -0.537232,-0.03497 -0.537233,-0.03497 -0.537233,0.07864 -0.537232,0.07864 -0.06605,0.0097 -0.06604,0.0097 -0.0667,0.158777 -0.0667,0.158778 -0.09319,0.530907 -0.09319,0.530908 -0.06919,0.183071 -0.06919,0.183072 -0.01503,0.64075 -0.01503,0.640751 -0.05378,0.274607 -0.05378,0.274607 0.01444,0.01141 0.01444,0.01141 0.618112,-0.04643 0.618112,-0.04643 0.23877,0.0035 0.23877,0.0035 1.343082,0.0333 1.343082,0.0333 0.179077,0.05913 0.179078,0.05913 0.182191,0.12212 0.182192,0.122121 0.0755,0.06162 0.0755,0.06162 -0.102651,0.09609 -0.102651,0.0961 -0.244574,0.0792 -0.244576,0.0792 -0.537232,-0.004 -0.537233,-0.004 -0.298463,-0.01602 -0.298462,-0.01602 -0.925234,-0.02756 -0.925234,-0.02756 -0.298463,0.04376 -0.298463,0.04376 -0.246716,0.0029 -0.246716,0.0029 -0.03921,0.441405 -0.03921,0.441406 -0.06239,0.530907 -0.06239,0.530908 -0.01896,0.12815 -0.01896,0.12815 -0.06907,0.237993 -0.06907,0.237993 -0.05503,0.549214 -0.05503,0.549215 -0.04719,0.247056 -0.04719,0.247056 0.180421,0.03343 0.180421,0.03343 0.857405,0.02231 0.857404,0.02231 0.396139,0.03555 0.396138,0.03555 0.157738,0.01865 0.157738,0.01865 0.750249,0.03204 0.750247,0.03204 0.283807,0.08695 0.283807,0.08695 0.203705,0.180165 0.203704,0.180165 -0.100865,0.09444 -0.100865,0.09444 -0.03162,0.06055 -0.03162,0.06055 -0.248234,0.02443 -0.248235,0.02443 -0.47754,0.01321 -0.477541,0.01321 -0.495826,-0.05224 z m 6.286001,-0.112375 -0.179078,-0.01576 -0.22222,-0.05888 -0.22222,-0.05888 0.02919,-0.02897 0.02919,-0.02897 -0.04818,-0.01827 -0.04818,-0.01827 -0.01443,-0.131467 -0.01443,-0.131466 0.08086,-0.173173 0.08086,-0.173173 -0.01938,-0.125751 -0.01938,-0.125751 0.125053,-0.203778 0.125052,-0.203777 0.109279,-0.343929 0.109279,-0.343928 0.04968,-0.02221 0.04968,-0.02221 0.0099,-0.109843 0.0099,-0.109842 0.126285,-0.384451 0.126286,-0.38445 0.08228,-0.164764 0.08228,-0.164765 0.06738,-0.311221 0.06738,-0.311222 0.05586,-0.219686 0.05586,-0.219686 0.03255,-0.38445 0.03255,-0.38445 0.02609,-0.12815 0.02609,-0.12815 0.0354,-0.787208 0.0354,-0.787208 0.02508,-0.12815 0.02508,-0.12815 0.0628,-0.329529 0.0628,-0.329528 0.08529,-0.329529 0.08529,-0.329529 0.03637,-0.329529 0.03637,-0.329529 0.05561,-0.247424 0.05561,-0.247425 -0.01098,-0.02718 -0.01098,-0.02718 0.04456,-0.18321 0.04456,-0.18321 0.100881,-0.08186 0.100882,-0.08186 0.352733,-0.03993 0.352733,-0.03993 0.244192,0.066 0.244193,0.066 0.04022,0.03527 0.04022,0.03527 0.07916,-0.04029 0.07916,-0.04029 0.415824,-0.096 0.415824,-0.096 0.27064,0.03638 0.27064,0.03638 0.47754,0.122624 0.47754,0.122625 0.305226,0.181012 0.305232,0.181013 0.261334,0.123031 0.261339,0.123032 0.478054,0.146699 0.478054,0.1467 0.454707,0.180382 0.454708,0.180382 0.187387,0.14303 0.187393,0.14303 0.498701,0.601507 0.498701,0.601507 0.186205,0.31564 0.186199,0.31564 0.06092,0.247197 0.06092,0.247197 0.06138,0.146457 0.06138,0.146457 -0.06407,0.366143 -0.06408,0.366143 -0.05348,0.347836 -0.05347,0.347836 -0.05267,0.494988 -0.05267,0.494988 -0.398608,0.496646 -0.398603,0.496646 v 0.03824 0.03824 l -0.08888,0.04525 -0.08888,0.04525 0.03271,0.03247 0.03271,0.03247 h -0.06674 -0.06674 l 0.03462,0.03436 0.03463,0.03436 -0.0805,0.02971 -0.08049,0.02971 -0.142749,0.164764 -0.142749,0.164765 -0.183101,0.146457 -0.183094,0.146457 -0.112103,0.109843 -0.112103,0.109843 -0.350657,0.210321 -0.350652,0.210322 -0.191703,0.06028 -0.191702,0.06028 -0.155237,0.07942 -0.15523,0.07942 -0.56108,0.121832 -0.561074,0.121833 -0.05969,0.02835 -0.05969,0.02835 -0.328309,0.07645 -0.328308,0.07645 -0.09704,1.8e-5 -0.09703,1.9e-5 -0.344688,0.0935 -0.344683,0.0935 -0.679892,0.08831 -0.679897,0.08831 -0.04964,0.01882 -0.04964,0.01882 -1.126913,0.01536 -1.126913,0.01536 z m 2.577815,-0.895865 0.168041,-0.04028 0.156639,-0.01612 0.156639,-0.01612 0.320901,-0.07533 0.320901,-0.07533 0.283719,-0.03472 0.283718,-0.03472 0.432592,-0.11282 0.432592,-0.11282 0.23877,-0.101232 0.23877,-0.101231 0.425237,-0.214488 0.425244,-0.214488 0.355278,-0.274607 0.355278,-0.274608 0.30405,-0.329528 0.30405,-0.329529 0.103811,-0.164765 0.103805,-0.164764 0.04466,-0.03661 0.04466,-0.03662 0.04297,-0.183071 0.04296,-0.183072 0.04674,-0.03661 0.04675,-0.03661 0.03284,-0.164765 0.03284,-0.164764 0.113075,-0.407956 0.113082,-0.407955 -0.01816,-0.611312 -0.01816,-0.611312 -0.05514,-0.04255 -0.05514,-0.04255 -0.03779,-0.12815 -0.03778,-0.12815 -0.01855,-0.05492 -0.01855,-0.05492 -0.06234,-0.09154 -0.06234,-0.09154 -0.07458,-0.146457 -0.07459,-0.146457 -0.07713,-0.109843 -0.07713,-0.109843 -0.281504,-0.347836 -0.281498,-0.347836 -0.135263,-0.109843 -0.135257,-0.109843 -0.229697,-0.07323 -0.229697,-0.07323 -0.538199,-0.184904 -0.538194,-0.184904 -0.204757,-0.0714 -0.204758,-0.0714 -0.334105,-0.203652 -0.334111,-0.203651 -0.308049,-0.0618 -0.308043,-0.0618 -0.138015,-1.46e-4 -0.138015,-1.47e-4 -0.20197,-0.07553 -0.20197,-0.07553 -0.04802,0.02989 -0.04803,0.02989 -0.06482,0.402758 -0.06482,0.402757 -0.0299,0.237993 -0.0299,0.237993 -0.05548,0.09154 -0.05548,0.09154 3.5e-5,0.12815 3.5e-5,0.12815 -0.03695,0.09154 -0.03695,0.09153 -0.05484,0.311222 -0.05484,0.311222 -0.05982,0.659057 -0.05982,0.659058 -0.02837,0.494293 -0.02837,0.494293 -0.0373,0.164765 -0.0373,0.164764 -0.04706,0.03661 -0.04706,0.03662 -0.03789,0.366143 -0.03789,0.366143 -0.09061,0.421064 -0.09061,0.421065 -0.112411,0.38445 -0.112411,0.38445 -0.127344,0.292915 -0.127343,0.292914 -0.01701,0.07358 -0.01701,0.07357 -0.05622,0.07288 -0.05622,0.07288 0.01697,0.164764 0.01697,0.164765 0.01241,0.08238 0.01241,0.08238 h 0.520556 0.520555 l 0.16804,-0.04028 z m 28.193679,0.740345 -0.208924,-0.02745 -0.123545,-0.04115 -0.123546,-0.04115 -0.07634,-0.141873 -0.07633,-0.141872 0.06752,-0.144133 0.06752,-0.144133 0.04153,-0.732286 0.04153,-0.732286 0.0013,-0.210549 0.0013,-0.21055 0.03704,1.7e-5 0.03703,1.7e-5 -0.02318,-0.466832 -0.02318,-0.466833 -0.0373,-0.05492 -0.03729,-0.05492 -0.01586,-0.146457 -0.01586,-0.146457 -0.03962,-1.720873 -0.03962,-1.720872 -0.01468,-0.03492 -0.01468,-0.03492 -0.257132,0.217993 -0.257125,0.217993 -0.462116,0.274607 -0.462109,0.274608 -0.112401,0.110926 -0.112402,0.110926 -0.284936,0.242758 -0.28493,0.242758 -0.202065,0.268759 -0.202065,0.268759 -0.06288,0.209684 -0.06287,0.209684 -0.09468,0.08863 -0.09467,0.08863 -0.310533,0.08346 -0.310532,0.08346 -0.358155,0.0051 -0.358155,0.0051 -0.02985,-0.02152 -0.02985,-0.02153 -0.169157,-0.06608 -0.169156,-0.06608 -0.110396,-0.151249 -0.110401,-0.151249 0.03213,-0.09853 0.03213,-0.09853 -0.230109,-0.245578 -0.230114,-0.245578 -0.179078,-0.194396 -0.179077,-0.194396 -0.23877,-0.227859 -0.238771,-0.22786 -0.221202,-0.160009 -0.221203,-0.16001 -0.05786,-0.06342 -0.05786,-0.06342 -0.02732,0.018 -0.02732,0.018 -0.04233,0.494076 -0.04233,0.494074 -0.03007,0.02984 -0.03007,0.02984 0.0024,0.187711 0.0024,0.187712 -0.04144,0.03896 -0.04144,0.03896 -0.07714,0.439372 -0.07714,0.439371 -0.0104,0.09154 -0.0104,0.09154 -0.04236,0.0188 -0.04236,0.0188 -0.06852,0.457187 -0.06852,0.457187 -0.05527,0.178915 -0.05526,0.178916 v 0.198788 0.198788 l -0.05708,0.06542 -0.05708,0.06542 -0.02514,0.197627 -0.02513,0.197628 -0.06803,0.15268 -0.06804,0.152681 -0.0867,0.323305 -0.0867,0.323306 -0.05462,0.183071 -0.05463,0.183072 0.01272,0.173918 0.01272,0.173918 h -0.03987 -0.03987 l -0.06447,0.08679 -0.06447,0.08679 -0.314985,0.09628 -0.314986,0.09628 h -0.323386 -0.323384 l -0.225345,-0.07768 -0.22534,-0.07768 -0.03291,-0.124399 -0.03291,-0.1244 0.09349,-0.209826 0.0935,-0.209827 0.04442,-0.146457 0.04442,-0.146458 0.08839,-0.12815 0.08838,-0.12815 0.07236,-0.329528 0.07236,-0.329529 0.08355,-0.219686 0.08355,-0.219686 0.03356,-0.2563 0.03356,-0.2563 0.05905,-0.345184 0.05904,-0.345185 0.05907,-0.20403 0.05907,-0.204031 0.02308,-0.09154 0.02307,-0.09154 0.0369,-0.183072 0.03689,-0.183071 0.03032,-0.113284 0.03032,-0.113284 0.02903,-0.175988 0.02903,-0.175988 0.0644,-0.223328 0.0644,-0.223329 0.02614,-0.109843 0.02613,-0.109843 0.03288,-0.38445 0.03288,-0.38445 0.06041,-0.366143 0.06041,-0.366143 0.02301,-0.84213 0.02301,-0.842129 0.08358,-0.203878 0.08358,-0.203878 0.06207,-0.07114 0.06207,-0.07114 0.109989,-0.05921 0.10999,-0.05921 0.208924,-0.02263 0.208923,-0.02263 0.221233,-0.02305 0.221226,-0.02305 0.176738,0.08699 0.176737,0.08699 0.243725,0.103064 0.243731,0.103064 v 0.185629 0.185629 l 0.06265,0.242215 0.06265,0.242214 0.0655,0.183072 0.06549,0.183071 0.08836,0.128151 0.08837,0.12815 0.07634,0.09154 0.07634,0.09154 0.118776,0.207545 0.118776,0.207544 0.313213,0.231827 0.313212,0.231828 0.05987,0.02377 0.05987,0.02376 -0.03667,0.05862 -0.03667,0.05862 h 0.0548 0.0548 l 0.26242,0.228839 0.262414,0.22884 0.03719,0.06407 0.03719,0.06407 h 0.09329 0.09329 l 0.03664,-0.05858 0.03665,-0.05858 0.129717,-0.07957 0.129718,-0.07957 0.335717,-0.293875 0.335723,-0.293876 0.214905,-0.144656 0.214905,-0.144657 0.169502,-0.109843 0.169503,-0.109843 0.28665,-0.219686 0.286649,-0.219685 0.04869,-0.0122 0.04868,-0.0122 v -0.03645 -0.03645 l 0.294284,-0.207641 0.29429,-0.207642 0.127575,-0.164764 0.127575,-0.164764 0.223817,-0.267727 0.223817,-0.267727 0.264629,-0.09689 0.264635,-0.09689 0.371884,0.0067 0.371878,0.0067 0.186277,0.101625 0.186276,0.101626 0.08342,0.09873 0.08341,0.09872 -0.03194,0.432182 -0.03194,0.432182 -0.02724,1.61103 -0.02724,1.611029 -0.01018,0.237993 -0.01018,0.237993 0.03989,0.494294 0.03989,0.494293 0.04283,0.494293 0.04283,0.494293 -0.0044,0.164764 -0.0044,0.164765 -0.03913,0.366143 -0.03913,0.366143 -0.06047,0.370494 -0.06048,0.370494 0.129909,0.178721 0.129909,0.17872 0.01649,0.05086 0.0165,0.05086 -0.09459,0.08855 -0.09459,0.08855 -0.229464,0.0718 -0.229458,0.0718 -0.253884,0.01524 -0.253884,0.01524 -0.208924,-0.02745 z m 9.013572,-0.139089 -0.20892,-0.0144 -0.16697,-0.04046 -0.16697,-0.04046 -0.0927,-0.109919 -0.0927,-0.109921 0.004,-0.72774 0.004,-0.72774 0.0558,-0.136615 0.0558,-0.136616 0.0381,-0.659057 0.0381,-0.659058 0.033,-0.646995 0.0329,-0.646995 -0.16123,-0.231748 -0.16122,-0.231748 -0.32179,-0.448012 -0.32179,-0.448012 v -0.03549 -0.03549 l -0.26483,-0.380314 -0.26483,-0.380314 -0.16794,-0.166123 -0.16794,-0.166123 -0.23328,-0.214947 -0.23327,-0.214948 -0.11302,-0.155983 -0.11302,-0.155983 -0.2989,-0.301696 -0.29891,-0.301695 -0.17611,-0.09154 -0.17611,-0.09154 5.9e-4,-0.139746 6e-4,-0.139747 0.1534,-0.123359 0.15339,-0.123359 0.17392,-0.02343 0.17392,-0.02343 0.0159,0.009 0.0159,0.009 0.13066,-0.04289 0.13067,-0.04289 0.31582,0.04155 0.31582,0.04154 0.25426,0.169081 0.25427,0.169079 6.6e-4,0.08022 6.5e-4,0.08022 0.0576,0.02182 0.0576,0.02183 0.39232,0.495782 0.39233,0.495783 0.2082,0.185654 0.2082,0.185653 0.21554,0.278332 0.21554,0.278332 0.13597,0.219686 0.13597,0.219686 0.067,0.106602 0.067,0.106602 0.25277,-0.271367 0.25276,-0.271366 0.26736,-0.216156 0.26735,-0.216157 0.20299,-0.168294 0.20298,-0.168293 0.43871,-0.333153 0.43871,-0.333153 v -0.01996 -0.01996 l 0.17908,-0.117587 0.17908,-0.117587 V 63.4784 63.42839 l 0.14422,-0.200021 0.14421,-0.200021 0.22886,-0.08849 0.22886,-0.08849 0.32323,-0.01896 0.32322,-0.01896 0.18691,0.06764 0.1869,0.06764 0.13157,0.109151 0.13156,0.109151 v 0.03505 0.03505 l 0.0746,0.01537 0.0746,0.01537 -0.0895,0.104176 -0.0895,0.104176 -0.18578,0.112348 -0.18577,0.112347 -0.12415,0.173759 -0.12413,0.173758 -0.23521,0.201475 -0.23521,0.201476 -0.3686,0.247209 -0.36861,0.24721 -0.49327,0.404217 -0.49327,0.404218 -0.36435,0.419604 -0.36436,0.419605 -0.0352,0.287144 -0.0352,0.287146 -0.0508,0.06069 -0.0508,0.06069 -0.0456,0.2563 -0.0456,0.2563 -0.0181,0.201379 -0.0181,0.201378 -0.0297,0.860437 -0.0297,0.860436 -0.0551,0.183071 -0.0551,0.183072 -0.0122,0.38526 -0.0122,0.38526 0.0672,0.163955 0.0672,0.163954 0.0323,0.08117 0.0323,0.08117 -0.19451,0.15064 -0.19451,0.15064 -0.14301,0.03335 -0.14301,0.03335 -0.13168,0.01337 -0.13167,0.01337 -0.20893,-0.0144 z m -77.4212,-0.306199 -0.328309,-0.06724 -0.268616,-0.0028 -0.268617,-0.0028 -0.388001,-0.05649 -0.388002,-0.05649 -0.835695,0.03809 -0.835695,0.03809 -0.626772,-0.0047 -0.626771,-0.0047 -0.447694,0.02722 -0.447694,0.02721 -0.820538,0.0056 -0.820538,0.0056 -3.58e-4,-0.01831 -3.58e-4,-0.01831 -0.270898,-0.104979 -0.270899,-0.104978 0.01354,-0.160476 0.01354,-0.160475 h 0.04357 0.04357 l 0.121307,-0.247146 0.121308,-0.247147 0.06068,-0.347836 0.06068,-0.347836 0.03742,-0.823822 0.03742,-0.823822 0.02066,-0.420581 0.02066,-0.420581 0.07391,-0.238476 0.07391,-0.238477 0.0419,-0.03661 0.0419,-0.03662 -0.0013,-0.209631 -0.0013,-0.209632 0.08047,-0.05947 0.08047,-0.05947 0.0076,-0.243498 0.0076,-0.243498 0.04516,-0.06231 0.04516,-0.0623 0.0086,-0.193995 0.0086,-0.193995 -0.05414,-0.5126 -0.05414,-0.5126 4.18e-4,-0.421065 4.18e-4,-0.421064 0.04806,-0.366143 0.04806,-0.366144 0.166662,-0.09855 0.166663,-0.09855 0.228045,-0.02209 0.228044,-0.02209 0.144701,-0.01281 0.144702,-0.01281 0.317915,0.129475 0.317916,0.129475 v 0.196692 0.196691 l -0.07462,0.08189 -0.07462,0.08188 -0.02985,0.01831 -0.02985,0.01831 -0.01783,0.05112 -0.01783,0.05112 -0.01778,0.257055 -0.01778,0.257055 0.0497,0.387495 0.0497,0.387495 0.03356,0.329529 0.03356,0.329529 -0.06116,0.347836 -0.06116,0.347836 -0.05162,0.219685 -0.05162,0.219686 -0.06537,0.09693 -0.06537,0.09692 0.03087,0.01894 0.03087,0.01894 -0.07689,0.08552 -0.07689,0.08552 -0.04861,0.219686 -0.04861,0.219685 -0.05395,0.622444 -0.05395,0.622443 -0.03802,0.530907 -0.03802,0.530908 -0.05703,0.421064 -0.05703,0.421065 -0.0495,0.175222 -0.0495,0.175222 0.04297,0.01629 0.04297,0.01629 0.410509,-0.01517 0.410509,-0.01516 0.167677,-0.0024 0.167677,-0.0024 -0.0291,-0.02889 -0.0291,-0.02888 0.965738,-0.0099 0.965738,-0.0099 0.179078,-0.03262 0.179077,-0.03263 0.599034,-0.04334 0.599035,-0.04334 0.326199,0.0558 0.3262,0.0558 0.284544,0.0217 0.284544,0.0217 0.09485,-0.06874 0.09485,-0.06874 0.168173,-0.113716 0.168171,-0.113715 h 0.176724 0.176723 l 0.216861,0.147236 0.216861,0.147235 0.09548,0.146364 0.09548,0.146365 0.150353,0.07254 0.150353,0.07254 h -0.04521 -0.0452 l 0.0595,0.04577 0.0595,0.04577 -0.02394,0.0903 -0.02394,0.0903 -0.09107,0.08525 -0.09107,0.08525 -0.161032,0.03561 -0.161033,0.03561 -0.217051,0.07259 -0.217036,0.0726 -0.260488,-0.0038 -0.260489,-0.0038 z m 95.1773,-0.14181 -0.24119,-0.02432 -0.22423,-0.104905 -0.22423,-0.104904 0.004,-0.333024 0.004,-0.333025 -0.0355,-0.109843 -0.0355,-0.109842 -0.12114,-0.384451 -0.12113,-0.38445 -0.032,-0.03235 -0.032,-0.03235 -0.0166,-0.132418 -0.0166,-0.132418 -0.0606,-0.183071 -0.0606,-0.183072 -0.0614,-0.172573 -0.0614,-0.172573 -0.14222,-0.266798 -0.14223,-0.266799 -0.10391,-0.384451 -0.10391,-0.38445 -0.0545,-0.06358 -0.0545,-0.06358 v -0.05074 -0.05074 l -0.15108,-0.288434 -0.15108,-0.288435 -0.037,-0.05492 -0.037,-0.05492 -0.0169,-0.03661 -0.0168,-0.03661 -0.26587,-0.494293 -0.26587,-0.494293 -0.12721,-0.329529 -0.1272,-0.329529 -0.064,-0.164764 -0.064,-0.164765 -0.0195,-0.07323 -0.0195,-0.07323 -0.0935,-0.2563 -0.0935,-0.2563 -0.001,-0.14012 -10e-4,-0.140121 0.16415,-0.09789 0.16416,-0.09789 0.35096,-0.07161 0.35096,-0.07161 0.12658,0.09128 0.12658,0.09128 0.24923,0.102438 0.24924,0.102439 0.0382,0.06099 0.0382,0.06099 0.0341,0.311221 0.034,0.311222 0.0586,0.04557 0.0586,0.04557 -0.0313,0.07339 -0.0313,0.07339 0.0515,0.01952 0.0515,0.01952 -0.0324,0.05176 -0.0324,0.05176 0.21992,0.539096 0.21992,0.539095 0.17711,0.271309 0.17711,0.271308 0.0785,0.244244 0.0785,0.244245 0.0718,0.109843 0.0718,0.109843 0.0861,0.273747 0.0861,0.273747 0.0581,0.03564 0.0581,0.03564 v 0.08537 0.08537 l 0.12509,0.227685 0.12508,0.227684 0.0834,0.267408 0.0834,0.267408 0.058,0.06646 0.058,0.06646 -0.0349,0.02141 -0.0349,0.02141 0.0412,0.134626 0.0412,0.134627 0.0558,-0.03426 0.0559,-0.03426 0.46966,-0.593224 0.46966,-0.593224 0.0367,-0.137035 0.0367,-0.137035 0.19855,-0.240653 0.19855,-0.240653 0.16742,-0.134644 0.16743,-0.134644 0.18692,-3.69e-4 0.18691,-3.7e-4 0.38552,0.08275 0.38552,0.08275 0.24483,0.146457 0.24483,0.146458 -0.0205,0.09154 -0.0206,0.09154 0.004,0.107409 0.004,0.107409 0.0471,0.03905 0.0471,0.03905 0.0111,0.109843 0.0111,0.109843 0.11912,0.09921 0.11912,0.09921 v 0.04275 0.04275 l 0.21174,0.266414 0.21174,0.266415 0.0327,0.140842 0.0327,0.140843 0.0939,0.12815 0.0939,0.12815 0.13287,0.200086 0.13286,0.200086 0.0605,0.01236 0.0605,0.01236 0.1872,-0.303986 0.18719,-0.303986 0.36208,-0.530907 0.36208,-0.530908 0.13954,-0.201378 0.13955,-0.201379 0.20592,-0.292914 0.20592,-0.292915 0.0431,-0.09154 0.0431,-0.09154 0.0811,-0.05688 0.0811,-0.05688 0.24709,-0.4008 0.2471,-0.400801 0.14758,-0.237993 0.14758,-0.237993 0.0895,-0.164765 0.0895,-0.164764 0.0772,-0.183071 0.0772,-0.183072 0.19034,-0.329529 0.19033,-0.329529 0.0595,-0.09594 0.0595,-0.09594 0.148,-0.04136 0.14801,-0.04136 h 0.32748 0.32749 l 0.2951,0.09173 0.29511,0.09173 0.0909,0.107834 0.0909,0.107835 v 0.07165 0.07165 l -0.28543,0.159003 -0.28543,0.159004 -0.18839,0.274608 -0.18839,0.274607 -0.12878,0.2563 -0.12879,0.2563 -0.076,0.12815 -0.076,0.12815 -0.0734,0.146458 -0.0734,0.146457 -0.2702,0.421065 -0.2702,0.421064 -0.11338,0.137545 -0.11339,0.137546 -0.30269,0.539819 -0.3027,0.53982 -0.0312,0.08238 -0.0312,0.08238 h -0.0527 -0.0527 v 0.04773 0.04773 l -0.14691,0.181107 -0.14691,0.181107 -0.21095,0.347836 -0.21096,0.347836 v 0.05031 0.05031 l -0.23813,0.291829 -0.23813,0.29183 -0.0907,0.187363 -0.0907,0.187363 -0.19137,0.121109 -0.19137,0.121109 -0.22335,0.03689 -0.22335,0.03689 -0.32768,-0.0066 -0.32767,-0.0066 -0.2015,-0.131719 -0.2015,-0.131719 -0.0894,-0.09154 -0.0894,-0.09154 -0.19481,-0.311221 -0.19481,-0.311222 -0.31923,-0.402757 -0.31923,-0.402758 -0.20274,-0.329528 -0.20274,-0.329529 h -0.10519 -0.1052 l -0.14802,0.219686 -0.14801,0.219685 -0.18648,0.237993 -0.18649,0.237993 -0.0128,0.03662 -0.0128,0.03661 -0.10211,0.146457 -0.10212,0.146458 -0.0847,0.19928 -0.0847,0.199281 -0.0648,0.04787 -0.0648,0.04787 h 0.0387 0.0387 l -0.093,0.110337 -0.093,0.110336 0.0382,0.176766 0.0382,0.176765 -0.0948,0.106502 -0.0948,0.106501 -0.11623,0.08313 -0.11623,0.08313 -0.21137,0.05417 -0.21138,0.05417 -0.13623,-0.0046 -0.13622,-0.0046 -0.24119,-0.02432 z m -88.512117,-0.06101 -0.288996,-0.04792 -0.140985,-0.05666 -0.140986,-0.05666 -0.03705,-0.121136 -0.03705,-0.121136 0.03911,-0.217823 0.03911,-0.217824 0.02135,-0.237993 0.02135,-0.237993 0.100202,-0.604136 0.100203,-0.604136 0.01978,-0.157493 0.01978,-0.157493 0.03084,-0.06219 0.03084,-0.06219 0.03314,-0.274607 0.03314,-0.274607 0.03165,-0.823822 0.03165,-0.823822 0.0047,-0.03661 0.0047,-0.03662 -0.0427,-0.823822 -0.0427,-0.823822 -0.06951,-0.146457 -0.06951,-0.146457 0.0095,-0.957277 0.0095,-0.957277 0.06715,-0.07696 0.06715,-0.07696 0.24355,-0.07621 0.243549,-0.07621 0.287486,0.02425 0.287487,0.02425 0.233607,0.09291 0.233606,0.09291 0.06459,0.11454 0.06459,0.11454 -0.01795,0.146457 -0.01794,0.146457 -0.03955,0.128151 -0.03955,0.12815 -0.02084,0.677364 -0.02084,0.677365 0.05894,0.695672 0.05894,0.695672 -0.0041,0.292914 -0.0041,0.292915 -0.03122,0.805515 -0.03122,0.805514 -0.03498,0.274608 -0.03498,0.274607 -0.05936,0.292915 -0.05936,0.292914 -0.05348,0.274607 -0.05348,0.274608 -0.0044,0.494293 -0.0044,0.494293 0.05574,0.201379 0.05574,0.201378 -0.08348,0.09927 -0.08348,0.09926 -0.253361,0.08916 -0.25336,0.08916 -0.119385,0.01713 -0.119385,0.01713 -0.288996,-0.04792 z m 14.458958,-0.08653 -0.215934,-0.07204 -0.188157,-0.179855 -0.188157,-0.179854 -0.431604,-0.249946 -0.431604,-0.249947 -0.06161,-0.0659 -0.06161,-0.06589 -0.39226,-0.210745 -0.392261,-0.210745 -0.342442,-0.164764 -0.342441,-0.164765 -1.453076,-0.892158 -1.453075,-0.892158 -0.03067,0.123257 -0.03067,0.123258 -0.04564,0.292915 -0.04564,0.292914 -0.0089,0.311222 -0.0089,0.311222 -0.07083,0.258507 -0.07083,0.258506 -3.58e-4,0.34563 -3.58e-4,0.345629 0.01812,0.215671 0.01812,0.21567 -0.224763,0.111563 -0.224764,0.111562 -0.342315,0.01437 -0.342316,0.01437 -0.220827,-0.05756 -0.220829,-0.05756 -0.08781,-0.119279 -0.08781,-0.119278 -0.03845,-0.08206 -0.03845,-0.08205 0.04329,-0.04296 0.04329,-0.04296 0.01644,-0.09467 0.01644,-0.09467 0.06967,-0.2563 0.06967,-0.2563 0.02778,-0.338683 0.02778,-0.338682 0.04067,3.1e-5 0.04067,3.1e-5 4.18e-4,-0.283792 4.17e-4,-0.283792 0.109217,-0.530907 0.109218,-0.530908 0.01744,-0.567522 0.01744,-0.567522 -0.04883,-0.329528 -0.04884,-0.329529 -0.03402,-0.951972 -0.03402,-0.951972 -0.03633,-0.201379 -0.03633,-0.201379 -0.0029,-0.659057 -0.0029,-0.659058 0.09383,-0.110526 0.09383,-0.110527 0.289148,-0.06357 0.289147,-0.06357 0.119385,0.001 0.119385,10e-4 0.295793,0.09983 0.295792,0.09983 0.116743,0.123319 0.116742,0.123319 -0.07573,0.286044 -0.07573,0.286043 -0.02966,0.304616 -0.02966,0.304617 -0.0056,1.171658 -0.0056,1.171658 0.04649,0.247621 0.04649,0.247622 0.338398,-0.195553 0.338398,-0.195552 0.298463,-0.167074 0.298462,-0.167073 0.298463,-0.111853 0.298462,-0.111854 0.442314,-0.154235 0.442313,-0.154234 0.448633,-0.197435 0.448634,-0.197435 0.213365,-0.107362 0.213365,-0.107361 0.0913,-0.04748 0.0913,-0.04748 0.281777,-0.124122 0.281775,-0.124122 v -0.03041 -0.03041 h 0.07842 0.07842 l 0.601236,-0.375297 0.601236,-0.375297 0.588005,-0.38445 0.588006,-0.38445 0.165115,-0.08572 0.165116,-0.08572 -0.02838,-0.02817 -0.02838,-0.02817 0.222225,-0.136763 0.222224,-0.136762 0.153022,-0.04883 0.153023,-0.04883 0.363302,-0.02521 0.363303,-0.02521 0.110446,0.105004 0.110446,0.105003 0.164155,0.08564 0.164154,0.08564 v 0.123951 0.123951 l -0.522309,0.216849 -0.52231,0.216849 -0.213546,0.141085 -0.213545,0.141085 -0.195318,0.156325 -0.195318,0.156326 0.03139,0.05017 0.03139,0.05017 -0.169878,0.02084 -0.169877,0.02084 -0.03583,0.06925 -0.03583,0.06925 -0.441749,0.25263 -0.441749,0.252629 -0.19876,0.09526 -0.19876,0.09526 -0.145171,0.0469 -0.145171,0.0469 -0.451754,0.213933 -0.451755,0.213933 -0.171594,0.08069 -0.171595,0.08069 -0.18656,0.07796 -0.186561,0.07796 -0.304858,0.131747 -0.304858,0.131748 -0.262221,0.08175 -0.262221,0.08175 -0.507386,0.204552 -0.507387,0.204553 -0.373078,0.232163 -0.373078,0.232164 v 0.0486 0.0486 l -0.176033,0.115588 -0.176032,0.115588 0.03672,0.0622 0.03672,0.0622 0.169159,0.133419 0.16916,0.13342 v 0.04587 0.04587 l 1.40973,0.855067 1.40973,0.855068 h 0.0199 0.0199 l 0.256894,0.106346 0.256895,0.106346 0.447485,0.257392 0.447485,0.257391 0.119385,0.07805 0.119385,0.07805 0.268616,0.16643 0.268616,0.166429 0.404997,0.184969 0.404996,0.184968 0.206852,0.172844 0.206852,0.172844 v 0.07559 0.07559 l -0.148449,0.09825 -0.148448,0.09825 -0.254476,0.03425 -0.254476,0.03425 -0.358155,0.01628 -0.358155,0.01628 -0.215935,-0.07204 z m 89.619739,-0.448028 -0.52164,-0.178572 -0.0663,-0.05387 -0.0663,-0.05387 h -0.038 -0.0381 l -0.31352,-0.135188 -0.31352,-0.135188 -0.3806,-0.201485 -0.38059,-0.201485 -0.29743,-0.221695 -0.29742,-0.221696 -0.26747,-0.173623 -0.26746,-0.173623 -0.13053,-0.119292 -0.13052,-0.119291 -0.20138,-0.284985 -0.20139,-0.284986 -0.0532,-0.02016 -0.0532,-0.02016 0.0301,-0.06099 0.0302,-0.06099 -0.10299,-0.1911 -0.10298,-0.191101 0.0385,-0.381364 0.0385,-0.381365 0.0708,-0.141514 0.0707,-0.141514 0.0494,-0.07323 0.0494,-0.07323 0.13334,-0.201379 0.13334,-0.201379 0.49204,-0.622443 0.49204,-0.622443 0.30806,-0.28168 0.30806,-0.281679 0.23349,-0.113432 0.2335,-0.113431 0.436,-0.09203 0.436,-0.09203 0.21579,0.03861 0.21579,0.03861 0.29159,-0.03483 0.2916,-0.03483 0.47754,-0.07894 0.47754,-0.07894 0.29846,-0.03355 0.29847,-0.03355 0.80585,0.02433 0.80584,0.02433 0.2256,0.04852 0.22559,0.04852 0.34149,0.136495 0.34148,0.136496 0.34323,0.218898 0.34324,0.218899 v 0.02903 0.02903 l 0.18457,0.128941 0.18456,0.12894 0.14356,0.24763 0.14356,0.247631 0.0824,0.219686 0.0824,0.219685 0.0183,0.146458 0.0183,0.146457 -0.004,0.2563 -0.004,0.2563 -0.0267,0.593129 -0.0267,0.593129 -0.0639,0.04762 -0.0639,0.04762 -0.0367,0.201379 -0.0367,0.201379 -0.30354,0.366143 -0.30354,0.366143 -0.13649,0.09154 -0.13649,0.09154 -0.15665,0.192225 -0.15665,0.192225 h -0.0686 -0.0686 l 0.0374,0.02295 0.0374,0.02295 -0.087,0.103165 -0.087,0.103164 -0.3046,0.224504 -0.3046,0.224505 -0.32303,0.191915 -0.32303,0.191915 -0.7183,0.172931 -0.71829,0.172931 -0.65463,-0.007 -0.65463,-0.007 -0.52164,-0.178572 z m 1.71683,-0.692117 0.32831,-0.07625 0.20892,-0.096 0.20893,-0.096 0.087,-0.07488 0.087,-0.07488 0.15181,-0.09448 0.15182,-0.09448 0.17379,-0.161824 0.17379,-0.161825 0.16586,-0.149385 0.16586,-0.149384 0.3114,-0.381523 0.31141,-0.381523 0.0816,-0.2563 0.0816,-0.2563 0.0583,-0.578369 0.0583,-0.57837 -0.0275,-0.300374 -0.0276,-0.300374 -0.11743,-0.247073 -0.11744,-0.247072 -0.24963,-0.277388 -0.24964,-0.277388 -0.0829,-0.01952 -0.0829,-0.01952 -0.002,-0.04185 -0.002,-0.04185 -0.2335,-0.09903 -0.23349,-0.09903 -0.57238,-0.05178 -0.57238,-0.05178 -0.19171,0.04127 -0.1917,0.04127 -0.0597,0.02241 -0.0597,0.02241 -0.56708,0.06445 -0.56708,0.06445 -0.33577,0.08676 -0.33577,0.08676 h -0.0853 -0.0853 l -0.1771,0.118997 -0.17709,0.118996 -0.67291,0.823822 -0.6729,0.823822 -0.0928,0.274608 -0.0927,0.274607 0.036,0.292914 0.036,0.292915 0.0803,0.183071 0.0803,0.183072 0.18223,0.219686 0.18222,0.219686 0.25945,0.175006 0.25944,0.175007 0.35904,0.227751 0.35902,0.22775 0.38713,0.203291 0.38713,0.203291 0.14923,0.06196 0.14923,0.06197 0.16029,0.0788 0.16029,0.07881 0.22771,0.02702 0.22771,0.02703 0.0597,0.0042 0.0597,0.0042 0.32831,-0.07625 z m 17.19145,0.768851 -0.14923,-0.02621 -0.17969,-0.0037 -0.17969,-0.0037 -0.16285,-0.09262 -0.16285,-0.09262 -0.037,-0.09055 -0.037,-0.09055 0.0338,-0.118897 0.0338,-0.118897 0.0809,-0.347836 0.0809,-0.347836 -0.024,-0.713979 -0.024,-0.713979 -0.004,-0.07323 -0.004,-0.07323 0.0378,-0.530908 0.0378,-0.530907 0.0132,-1.09843 0.0132,-1.098429 -0.0447,-0.246262 -0.0447,-0.246263 0.0643,-0.07373 0.0643,-0.07373 0.17584,-0.05578 0.17584,-0.05578 0.34479,-0.0058 0.34478,-0.0058 0.22302,0.08869 0.22303,0.08868 7.1e-4,0.05914 7.2e-4,0.05914 0.12676,0.09884 0.12675,0.09884 -0.0361,0.281392 -0.0361,0.281392 -0.0394,0.5126 -0.0394,0.5126 -0.007,0.558374 -0.006,0.558374 0.0253,-6e-6 0.0253,-5e-6 0.45221,-0.257467 0.45222,-0.257467 0.18299,-0.09952 0.18299,-0.09952 0.53075,-0.292915 0.53074,-0.292914 0.58282,-0.329529 0.58281,-0.329529 0.52676,-0.300121 0.52676,-0.300121 0.16535,-0.03856 0.16535,-0.03856 h 0.22224 0.22223 l 0.26586,0.08238 0.26587,0.08238 0.13478,0.124411 0.13479,0.124411 v 0.0848 0.0848 l -0.25369,0.147848 -0.25369,0.147847 -0.14524,0.02389 -0.14523,0.02389 -0.21292,0.08863 -0.21292,0.08863 -0.50319,0.28102 -0.50319,0.28102 -0.15343,0.105302 -0.15343,0.105301 -0.32831,0.16389 -0.32831,0.16389 -0.94671,0.55463 -0.94672,0.554631 -0.0451,0.01831 -0.0451,0.01831 -0.0423,0.08312 -0.0423,0.08312 0.19962,0.05116 0.19962,0.05116 0.11817,0.08021 0.11817,0.08021 0.26862,0.08395 0.26862,0.08395 0.1456,0.09574 0.1456,0.09574 0.25732,0.0925 0.25732,0.0925 0.001,0.04422 0.001,0.04423 0.47652,0.301823 0.47652,0.301824 v 0.04169 0.04169 l 0.21456,0.124122 0.21457,0.124122 0.27789,-0.02221 0.27791,-0.02221 0.20802,0.08656 0.20801,0.08656 0.13423,0.145375 0.13424,0.145374 9.5e-4,0.158427 0.001,0.158428 -0.16965,0.104057 -0.16964,0.104057 -0.26313,0.04364 -0.26312,0.04364 -0.41785,-0.04516 -0.41785,-0.04516 -0.22384,-0.05441 -0.22385,-0.05441 v -0.03017 -0.03017 l -0.10725,-0.02088 -0.10725,-0.02088 -0.26583,-0.203032 -0.26583,-0.203031 -0.23877,-0.179237 -0.23877,-0.179236 -0.14923,-0.118692 -0.14923,-0.118691 -0.12383,-0.07561 -0.12382,-0.07561 -0.24192,-0.132028 -0.24192,-0.132029 -0.51158,-0.206654 -0.5116,-0.206654 h -0.0628 -0.0628 l 9e-4,0.02746 9e-4,0.02746 0.0556,0.05395 0.0556,0.05396 -0.0715,0.02709 -0.0715,0.02709 -0.005,0.797698 -0.005,0.797698 -0.0426,0.08056 -0.0426,0.08056 -0.20661,0.07832 -0.2066,0.07832 -0.13355,0.0083 -0.13354,0.0083 -0.14923,-0.02621 z m 11.61019,-0.01131 -0.17907,-0.04816 -0.13431,-0.147614 -0.13431,-0.147613 v -0.109902 -0.109903 l 0.21953,-0.196334 0.21953,-0.196334 0.17478,-0.100689 0.17479,-0.100689 0.27723,0.0016 0.27722,0.0016 0.29846,0.06247 0.29847,0.06247 0.0798,0.146457 0.0798,0.146457 -0.0281,0.255202 -0.028,0.255201 -0.20002,0.102423 -0.20002,0.102422 -0.20994,0.03578 -0.20993,0.03578 -0.29847,-0.0012 -0.29846,-0.0012 -0.17908,-0.04816 z m -22.65331,-0.544616 -0.14923,-0.04535 -0.12991,-0.157767 -0.1299,-0.157767 0.0504,-0.09841 0.0504,-0.09841 0.0405,-0.311221 0.0405,-0.311222 0.0746,-0.530908 0.0746,-0.530907 -0.0184,-0.219686 -0.0184,-0.219686 -0.0326,-0.439371 -0.0326,-0.439372 -0.0263,-0.475986 -0.0263,-0.475986 -0.0162,-0.943205 -0.0162,-0.943205 0.18187,-0.111558 0.18188,-0.111559 0.46276,0.02572 0.46276,0.02572 0.2397,0.122838 0.2397,0.122837 h 0.0391 0.0392 l 0.26858,-0.151286 0.2686,-0.151287 0.41784,-0.108427 0.41785,-0.108426 0.4477,-0.01865 0.44769,-0.01865 0.29846,0.0372 0.29846,0.0372 0.13209,0.01911 0.13208,0.01911 0.20864,0.06073 0.20864,0.06073 0.38364,0.215629 0.38365,0.215629 0.17931,0.174534 0.17931,0.174533 0.0787,0.146458 0.0787,0.146457 0.0665,0.05492 0.0665,0.05492 0.0102,0.109843 0.0102,0.109843 0.0594,0.164764 0.0594,0.164764 0.0445,0.219686 0.0445,0.219686 -0.0128,0.07323 -0.0128,0.07323 -0.0588,0.361955 -0.0588,0.361955 -0.11434,0.132338 -0.11434,0.132339 -0.14044,0.159197 -0.14043,0.159197 -0.35888,0.225647 -0.35888,0.225648 -0.70139,0.218594 -0.70139,0.218595 0.003,0.03731 0.003,0.03731 0.65717,0.292914 0.65717,0.292914 0.31001,0.136521 0.31002,0.13652 0.18916,0.102851 0.18916,0.102851 0.13915,0.04154 0.13915,0.04154 0.14923,0.02127 0.14923,0.02127 0.20474,0.115102 0.20474,0.115101 0.0258,0.190759 0.0258,0.190759 -0.0712,0.08158 -0.0712,0.08158 -0.20221,0.05182 -0.2022,0.05182 h -0.42186 -0.42187 l -0.16205,-0.06328 -0.16205,-0.06328 -0.26862,-0.165562 -0.26862,-0.165563 -0.40578,-0.183071 -0.40578,-0.183072 -0.30415,-0.146457 -0.30416,-0.146457 -0.44347,-0.192226 -0.44347,-0.192225 h -0.0382 -0.0382 l -0.24972,-0.150328 -0.24972,-0.150328 -0.14054,-0.04955 -0.14054,-0.04955 -0.19325,-0.06299 -0.19325,-0.06298 -0.0226,0.01572 -0.0226,0.01572 -0.0614,0.679324 -0.0614,0.679323 0.0616,0.191013 0.0616,0.191013 -0.11262,0.07638 -0.11261,0.07638 -0.22147,0.06933 -0.22147,0.06933 -0.34561,-5.38e-4 -0.34561,-5.38e-4 -0.14923,-0.04535 z m 3.30208,-2.87986 0.26767,-0.07038 0.38817,-0.150372 0.38817,-0.150372 0.10808,-0.09963 0.10808,-0.09963 0.1613,-0.207375 0.1613,-0.207375 0.0439,-0.195383 0.0439,-0.195382 -0.003,-0.315875 -0.003,-0.315874 -0.12581,-0.28128 -0.12581,-0.28128 -0.1438,-0.174069 -0.14381,-0.17407 -0.24358,-0.13498 -0.24358,-0.13498 h -0.18187 -0.18187 l -0.16694,0.05295 -0.16695,0.05295 -0.4325,0.32819 -0.43251,0.32819 -0.34609,0.11315 -0.34611,0.11315 h -0.0892 -0.0892 l -0.0343,0.192225 -0.0343,0.192225 0.0228,0.622443 0.0228,0.622444 0.005,0.267112 0.005,0.267114 0.194,-0.01862 0.194,-0.01862 0.38801,0.06678 0.388,0.06678 0.18905,0.0051 0.18905,0.0051 0.26766,-0.07038 z m 20.27347,1.535474 -0.51038,-0.05881 -0.20593,-0.05024 -0.20593,-0.05024 -0.65458,-0.222519 -0.65459,-0.222518 -0.21881,-0.128314 -0.2188,-0.128314 -0.0723,-0.219686 -0.0723,-0.219685 -0.0541,-0.08411 -0.0541,-0.08411 0.004,-0.13558 0.004,-0.135581 0.0708,-0.202837 0.0708,-0.202838 0.21971,-0.187321 0.21972,-0.187321 0.36712,-0.187403 0.36713,-0.187403 0.2787,-0.08464 0.2787,-0.08464 0.53724,-0.111584 0.53723,-0.111584 0.33627,-0.05971 0.33627,-0.05971 0.14684,-0.07085 0.14684,-0.07085 0.22456,-0.199993 0.22456,-0.199992 0.0281,-0.183534 0.0281,-0.183533 -0.0688,-0.0789 -0.0688,-0.0789 -0.0998,-0.07209 -0.0998,-0.07209 -0.20893,-0.135543 -0.20892,-0.135543 -0.21774,-0.09969 -0.21773,-0.0997 -0.28966,-0.04064 -0.28964,-0.04064 -0.40946,0.02395 -0.40947,0.02395 -0.15761,0.04122 -0.15762,0.04121 -0.26862,0.116339 -0.26861,0.11634 -0.25132,0.07783 -0.25131,0.07783 -0.19638,-2.19e-4 -0.19638,-2.2e-4 -0.21289,-0.03628 -0.21289,-0.03628 -0.13035,-0.09195 -0.13034,-0.09195 v -0.107181 -0.107181 l 0.0529,-0.08531 0.0529,-0.08531 0.28574,-0.194938 0.28573,-0.194937 0.33064,-0.08969 0.33064,-0.08969 0.0918,-0.0088 0.0918,-0.0088 0.0646,-0.02475 0.0646,-0.02475 0.39974,-0.02512 0.39973,-0.02512 0.0317,-0.03145 0.0317,-0.03145 h 0.30068 0.30068 l 0.30765,0.05361 0.30765,0.05361 0.14923,0.01304 0.14923,0.01304 0.23114,0.06149 0.23113,0.06149 h 0.0548 0.0548 l 0.25067,0.07844 0.25067,0.07844 0.23594,0.132091 0.23594,0.13209 0.34671,0.197799 0.3467,0.197798 0.001,0.0402 0.001,0.04019 0.13385,0.07775 0.13385,0.07775 0.13706,0.168338 0.13706,0.168338 0.0357,0.261451 0.0357,0.26145 -0.17337,0.203761 -0.17337,0.203761 -0.1185,0.09421 -0.1185,0.09421 -0.3292,0.198078 -0.32919,0.198079 -0.47754,0.140078 -0.47754,0.140078 -0.44793,0.06806 -0.44793,0.06806 -0.26838,0.0759 -0.26838,0.0759 -0.29846,0.175313 -0.29846,0.175314 -0.0597,0.07486 -0.0597,0.07486 0.005,0.09154 0.005,0.09154 0.0102,0.152623 0.0102,0.152623 0.23409,0.149445 0.23409,0.149445 h 0.0528 0.0528 l 0.20228,0.09154 0.20227,0.09154 h 0.28924 0.28925 l 0.25131,-0.07892 0.25132,-0.07892 0.20892,-0.03386 0.20892,-0.03386 0.37878,-0.01715 0.37879,-0.01716 0.28573,0.05821 0.28575,0.05821 0.0984,0.06667 0.0984,0.06667 0.0587,0.124042 0.0587,0.124041 -0.0358,0.101819 -0.0358,0.101819 -0.39778,0.121237 -0.39777,0.121236 -0.62678,0.09589 -0.62677,0.09589 -0.26861,0.01279 -0.26862,0.01279 -0.51038,-0.05881 z M 33.841525,60.38534 l -0.341827,-0.108233 -0.08701,-0.103205 -0.08701,-0.103205 -0.08569,-0.04362 -0.08569,-0.04362 0.01374,-0.1734 0.01374,-0.173399 0.181499,-0.118997 0.181499,-0.118996 h 0.0664 0.0664 l 0.10858,-0.04159 0.10858,-0.04159 0.293534,0.06071 0.293535,0.06071 0.12748,0.06327 0.127479,0.06326 0.185778,0.219686 0.185778,0.219686 1.19e-4,0.06648 1.2e-4,0.06648 -0.06699,0.07998 -0.06699,0.07997 -0.153106,0.10069 -0.153106,0.100689 -0.242525,-0.0018 -0.242525,-0.0018 -0.341827,-0.108233 z" id="path179"/></g></svg>