<svg version="1.1" id="svg5" xml:space="preserve" xmlns="http://www.w3.org/2000/svg" xmlns:svg="http://www.w3.org/2000/svg" viewBox="12.3 16.25 185.9 40.08"><defs id="defs2"/><g id="layer1"><path style="fill:#000000;stroke-width:0.0552297" d="m 90.402458,56.290901 c -0.07594,-0.0125 -0.200208,-0.0454 -0.276149,-0.0731 -0.07594,-0.0278 -0.2825,-0.0649 -0.459025,-0.0824 -0.176519,-0.0176 -0.439805,-0.0788 -0.585081,-0.13604 -0.145276,-0.0573 -0.398504,-0.11722 -0.56273,-0.13325 -0.73055,-0.0713 -1.362185,-0.26032 -1.992775,-0.59643 -0.336653,-0.17943 -1.039683,-0.73244 -1.039683,-0.81781 0,-0.0285 -0.0961,-0.14071 -0.213562,-0.24939 -0.117462,-0.10868 -0.294484,-0.352 -0.393379,-0.54072 -0.0989,-0.18871 -0.239371,-0.41393 -0.312163,-0.50047 -0.153611,-0.18265 -0.572097,-1.03674 -0.572097,-1.16761 0,-0.0489 -0.04242,-0.16842 -0.09428,-0.26563 -0.169329,-0.31747 -0.258177,-1.93915 -0.132231,-2.41356 0.03629,-0.13669 0.09126,-0.36911 0.122151,-0.51648 0.04991,-0.23806 0.625383,-1.43908 0.777193,-1.62201 0.03227,-0.0389 0.03699,-0.0711 0.01049,-0.0715 -0.0265,-4.4e-4 -0.0227,-0.0191 0.0084,-0.0414 0.03114,-0.0223 0.180137,-0.22697 0.331102,-0.4548 0.260496,-0.39312 0.662607,-0.94671 0.862511,-1.18743 0.558642,-0.67273 0.740321,-0.869 0.866322,-0.93595 0.08132,-0.0432 0.217014,-0.14409 0.301537,-0.22416 0.251665,-0.23842 0.619848,-0.36923 1.12858,-0.40097 0.573538,-0.0358 1.131513,0.11117 1.589687,0.41867 0.218412,0.14659 0.232512,0.14837 1.242668,0.15715 1.071837,0.009 1.489037,0.0553 1.702395,0.18765 0.176685,0.10961 0.451563,0.52659 0.451563,0.68501 0,0.12427 -0.03991,0.16598 -0.490445,0.51248 -0.265743,0.20438 -1.183197,0.39416 -2.107013,0.43585 -0.783703,0.0354 -1.084368,0.01 -1.839629,-0.15544 l -0.267245,-0.0585 -0.248777,0.24141 c -0.278203,0.26997 -1.338646,1.79753 -1.342164,1.93337 -5.52e-4,0.0193 0.204129,0.0641 0.454734,0.0995 0.250604,0.0354 0.637262,0.10095 0.859235,0.14557 0.256769,0.0516 0.658598,0.0765 1.104594,0.0685 l 0.701003,-0.0126 0.440484,0.27544 c 0.323205,0.20211 0.482846,0.34397 0.599607,0.53283 l 0.159128,0.25738 -0.185384,0.18519 c -0.317609,0.31726 -0.453751,0.37578 -1.265252,0.54386 -0.189051,0.0392 -0.485573,0.0492 -0.773215,0.0262 -0.256614,-0.0205 -0.621224,-0.0461 -0.810247,-0.0568 -0.189024,-0.0107 -0.425131,-0.0451 -0.524682,-0.0764 -0.09955,-0.0313 -0.451757,-0.0643 -0.782677,-0.0734 l -0.601672,-0.0166 -0.02177,0.21223 c -0.04334,0.42249 0.190769,1.62004 0.382648,1.95735 0.422104,0.74204 1.02656,1.47787 1.274724,1.55179 0.0964,0.0287 0.249831,0.0784 0.34096,0.11043 0.392357,0.1379 0.799223,0.22576 1.159823,0.25046 0.212635,0.0146 0.530819,0.0432 0.707079,0.0637 0.248191,0.0289 0.369309,0.0152 0.536992,-0.0604 0.367598,-0.16576 1.0001,0.004 1.248545,0.33455 0.05598,0.0745 0.126951,0.13632 0.157708,0.13727 0.03076,9.6e-4 0.102313,0.0654 0.159001,0.14317 0.139819,0.19186 0.103622,0.65297 -0.07045,0.89744 -0.169859,0.23854 -0.69189,0.49206 -1.149451,0.55823 -0.205902,0.0298 -0.386796,0.0512 -0.401984,0.0477 -0.01519,-0.004 -0.08975,-0.0166 -0.165689,-0.0291 z m -23.827077,-0.39921 c -0.32385,-0.19852 -0.465846,-0.32348 -0.547331,-0.48168 -0.09803,-0.19032 -0.170671,-0.69019 -0.153434,-1.05586 0.01555,-0.32983 0.0167,-0.49597 0.0098,-1.4088 -0.0041,-0.53942 0.01961,-1.29972 0.05269,-1.68956 0.03906,-0.46016 0.04635,-1.33664 0.02078,-2.4987 -0.06732,-3.06011 -0.0519,-4.11663 0.06423,-4.39952 0.04053,-0.0987 0.05857,-0.1795 0.0401,-0.1795 -0.01847,0 0.06595,-0.0976 0.187604,-0.21681 0.244198,-0.23938 0.569622,-0.3413 0.743336,-0.23282 0.05551,0.0347 0.15788,0.063 0.227491,0.063 0.174648,0 0.919398,0.36423 1.049364,0.5132 0.235942,0.27044 0.272354,0.41267 0.234229,0.91486 -0.01993,0.26255 -0.06331,0.56435 -0.0964,0.67067 -0.03773,0.12124 -0.05286,0.5845 -0.04058,1.24267 0.0239,1.28101 0.02737,3.18746 0.0096,5.24682 -0.01429,1.6525 -0.0055,1.85028 0.09988,2.2368 0.122737,0.45038 0.129392,0.74707 0.02062,0.91948 -0.164822,0.26126 -0.414212,0.4578 -0.62377,0.49159 -0.108935,0.0176 -0.255155,0.0552 -0.324932,0.0837 -0.275503,0.1123 -0.522943,0.0565 -0.973192,-0.21951 z m -37.312189,0.12249 c -0.197446,-0.0406 -0.508113,-0.14412 -0.690371,-0.23004 -0.182258,-0.0859 -0.430792,-0.18871 -0.552297,-0.22842 -0.121505,-0.0397 -0.311388,-0.12918 -0.421962,-0.19882 -0.110575,-0.0696 -0.216201,-0.11146 -0.234727,-0.0929 -0.01853,0.0185 -0.03368,0.004 -0.03368,-0.0322 0,-0.0362 -0.105627,-0.17345 -0.234726,-0.30493 -0.535939,-0.54578 -0.920806,-0.97641 -1.014703,-1.13537 -0.05494,-0.093 -0.119394,-0.16911 -0.143221,-0.16911 -0.02383,0 -0.04332,-0.0352 -0.04332,-0.0782 0,-0.043 -0.04882,-0.13619 -0.108485,-0.20712 -0.284168,-0.33779 -0.376745,-0.471 -0.415885,-0.59841 -0.02333,-0.0759 -0.09044,-0.20625 -0.149124,-0.28958 -0.05869,-0.0833 -0.09255,-0.1744 -0.07525,-0.20239 0.0173,-0.028 0.01253,-0.0592 -0.01059,-0.0694 -0.06234,-0.0275 -0.455718,-0.89181 -0.455718,-1.0013 0,-0.0518 -0.01864,-0.0942 -0.04142,-0.0942 -0.02278,0 -0.04482,-0.0684 -0.04897,-0.15189 -0.0041,-0.0835 -0.02832,-0.45012 -0.05372,-0.81463 -0.0661,-0.94877 -0.04772,-1.42037 0.06837,-1.7538 0.100178,-0.28774 0.249998,-0.59512 0.351442,-0.72105 0.277709,-0.34472 1.02151,-1.27731 1.234759,-1.54817 0.147285,-0.18707 0.364752,-0.44048 0.483259,-0.56314 0.118508,-0.12265 0.215469,-0.24908 0.215469,-0.28094 0,-0.0623 0.955956,-0.99782 1.134753,-1.11048 0.699447,-0.44073 0.771529,-0.4713 1.232231,-0.5226 0.444914,-0.0495 0.469271,-0.0463 0.675379,0.0901 0.117601,0.0778 0.253267,0.1415 0.301479,0.1415 0.143967,0 0.317159,0.11526 0.526105,0.35012 0.156534,0.17595 0.219141,0.21212 0.303763,0.17552 0.05862,-0.0254 0.128136,-0.0412 0.15447,-0.0352 0.02633,0.006 0.129701,-0.0161 0.229707,-0.0491 0.524142,-0.17298 2.101107,0.0245 2.580815,0.32312 0.09858,0.0614 0.328351,0.19827 0.510609,0.30421 0.182258,0.10595 0.39643,0.26299 0.475938,0.34899 0.196939,0.21302 0.493791,0.8284 0.684673,1.41935 0.08701,0.26937 0.184563,0.51791 0.216781,0.5523 0.03222,0.0344 0.06332,0.11223 0.06912,0.17298 0.01985,0.20794 0.124456,0.63665 0.181242,0.74276 0.03121,0.0583 0.05783,0.26301 0.05916,0.45486 0.0028,0.40755 0.07311,0.81696 0.148769,0.86641 0.08195,0.0536 0.12578,0.95682 0.06525,1.34476 -0.08022,0.51417 -0.272279,1.26265 -0.372428,1.45142 -0.04835,0.0911 -0.08898,0.17812 -0.0903,0.19331 -0.0013,0.0152 -0.05494,0.10217 -0.119159,0.1933 -0.06422,0.0911 -0.160746,0.25268 -0.214508,0.35899 -0.05376,0.10632 -0.131703,0.21321 -0.173202,0.23753 -0.0415,0.0243 -0.160996,0.17344 -0.265547,0.33137 -0.216487,0.32703 -0.445559,0.59093 -0.512951,0.59093 -0.02517,0 -0.228029,0.17482 -0.450789,0.3885 -0.222762,0.21367 -0.482958,0.42411 -0.578214,0.46763 -0.180357,0.0824 -0.477943,0.24788 -0.808336,0.44947 -0.250672,0.15294 -0.707383,0.27618 -1.167507,0.31503 -0.201672,0.017 -0.512339,0.079 -0.690371,0.1378 -0.421656,0.13918 -1.25898,0.17838 -1.732052,0.0811 z m 0.761024,-1.92558 c 0.06756,-0.0473 0.146138,-0.0717 0.174608,-0.0541 0.124346,0.0769 0.917651,-0.1544 1.435933,-0.41858 0.43264,-0.22052 0.638007,-0.37002 1.009366,-0.73475 0.427907,-0.42027 0.755284,-0.8053 0.684723,-0.8053 -0.01588,0 0.02976,-0.0586 0.101421,-0.13028 0.07166,-0.0717 0.168552,-0.26428 0.215322,-0.42803 0.04677,-0.16376 0.126701,-0.44283 0.177626,-0.62015 0.122724,-0.42732 0.07207,-1.03127 -0.132773,-1.58302 -0.01692,-0.0456 -0.03384,-0.24603 -0.03762,-0.44547 -0.0038,-0.19945 -0.02752,-0.4107 -0.05278,-0.46946 -0.02525,-0.0587 -0.04011,-0.1528 -0.03302,-0.20901 0.0071,-0.0562 -0.01252,-0.16804 -0.04358,-0.24853 -0.03106,-0.0805 -0.06784,-0.24576 -0.08172,-0.36727 -0.01388,-0.1215 -0.0889,-0.41641 -0.166714,-0.65535 -0.07781,-0.23895 -0.136221,-0.4618 -0.129802,-0.49524 0.0064,-0.0334 -0.06881,-0.10182 -0.167168,-0.15197 -0.09836,-0.0502 -0.217428,-0.1232 -0.264592,-0.16235 -0.115433,-0.0958 -0.769598,-0.0721 -0.977542,0.0355 -0.124744,0.0645 -0.282599,0.0761 -0.709898,0.0523 -0.484897,-0.0271 -0.594663,-0.0534 -0.933855,-0.22423 -0.211404,-0.10646 -0.416059,-0.19305 -0.454788,-0.19241 -0.133211,0.002 -1.256494,1.1452 -1.259314,1.28144 -8.01e-4,0.0388 -0.157369,0.23459 -0.347923,0.43512 -0.190556,0.20052 -0.338101,0.38967 -0.327879,0.42034 0.01022,0.0307 -0.04415,0.0969 -0.120818,0.14709 -0.159622,0.10459 -0.354411,0.45735 -0.331646,0.6006 0.0084,0.0532 -0.0068,0.0967 -0.03386,0.0967 -0.02707,0 -0.09943,0.0984 -0.160802,0.21872 -0.210784,0.41317 -0.123064,1.72352 0.156155,2.33263 0.06538,0.14262 0.118871,0.29221 0.118871,0.33242 0,0.14051 0.432571,0.93269 0.635398,1.16362 0.11251,0.1281 0.332452,0.40442 0.488761,0.61403 0.156309,0.20962 0.333905,0.40845 0.394658,0.44184 0.06075,0.0334 0.12537,0.081 0.143595,0.1058 0.0599,0.0815 0.459601,0.19856 0.686368,0.20103 0.122341,0.001 0.277718,-0.0363 0.345283,-0.0836 z m -13.077244,1.59501 c -0.490538,-0.0677 -0.843163,-0.15883 -1.146482,-0.29637 -0.191029,-0.0866 -0.354407,-0.15256 -0.363063,-0.14655 -0.0087,0.006 -0.09696,-0.0574 -0.196239,-0.14094 -0.09928,-0.0835 -0.213803,-0.15189 -0.254505,-0.15189 -0.0407,0 -0.08229,-0.0186 -0.09241,-0.0414 -0.01013,-0.0228 -0.189667,-0.1284 -0.398981,-0.23472 -0.412312,-0.20943 -1.287576,-0.99702 -1.2234,-1.10086 0.02004,-0.0324 0.01446,-0.059 -0.01241,-0.059 -0.0501,0 -0.459472,-0.62694 -0.667168,-1.02175 -0.298522,-0.56745 -0.305985,-0.60426 -0.238837,-1.17798 0.03438,-0.29378 0.07593,-0.81486 0.09233,-1.15797 0.01834,-0.38364 0.06501,-0.71324 0.121217,-0.85606 0.05027,-0.12772 0.09469,-0.36223 0.0987,-0.52112 0.0053,-0.20821 0.03935,-0.3239 0.122041,-0.41423 0.0631,-0.0689 0.131693,-0.18124 0.152419,-0.24959 0.02073,-0.0684 0.06008,-0.12427 0.08746,-0.12427 0.02738,0 0.03593,-0.0361 0.01901,-0.0802 -0.01692,-0.0441 0.08608,-0.33507 0.228886,-0.64662 0.241674,-0.52723 0.422172,-0.81149 0.731178,-1.15153 0.06875,-0.0757 0.280005,-0.30993 0.469453,-0.52059 0.526543,-0.58553 0.581993,-0.63872 0.665869,-0.63872 0.04285,0 0.148993,-0.0559 0.235877,-0.12426 0.171303,-0.13475 1.034334,-0.48032 1.204099,-0.48214 0.136578,-10e-4 0.872578,-0.21973 0.948342,-0.28123 0.03229,-0.0262 0.144132,-0.059 0.248534,-0.0728 0.104401,-0.0139 0.363794,-0.0807 0.576429,-0.1485 0.212634,-0.0678 0.441088,-0.13002 0.507676,-0.13821 0.06659,-0.008 0.203282,-0.0508 0.303764,-0.0946 0.100481,-0.0438 0.405856,-0.10936 0.67861,-0.14559 0.272754,-0.0362 0.508861,-0.0861 0.524682,-0.11079 0.01582,-0.0247 0.177886,-0.024 0.360144,0.002 0.182258,0.0256 0.372398,0.034 0.422533,0.0187 0.11932,-0.0364 0.74296,0.30854 1.055754,0.58387 0.282704,0.24885 0.352739,0.4865 0.239642,0.81317 -0.124077,0.35839 -0.276229,0.42407 -1.010922,0.43642 -0.869733,0.0146 -1.546307,0.11752 -2.308668,0.35114 -0.182258,0.0558 -0.480498,0.13293 -0.662756,0.17128 -0.182258,0.0384 -0.380402,0.10267 -0.440319,0.14292 -0.05992,0.0402 -0.162501,0.0732 -0.227964,0.0732 -0.06546,0 -0.150461,0.0379 -0.188885,0.0842 -0.03842,0.0463 -0.08089,0.0731 -0.09437,0.0597 -0.04352,-0.0435 -0.740237,0.29446 -0.9508,0.46122 -0.119643,0.0948 -0.282696,0.31675 -0.393626,0.53591 -0.104156,0.20577 -0.281018,0.49032 -0.393026,0.63232 -0.349678,0.44332 -0.635541,1.07379 -0.687561,1.5164 -0.02126,0.18091 -0.07197,0.33212 -0.124615,0.37165 -0.05223,0.0392 -0.09235,0.15758 -0.09746,0.28757 -0.0048,0.1215 -0.03736,0.37004 -0.07239,0.5523 -0.03503,0.18225 -0.05127,0.5302 -0.03607,0.77321 0.01519,0.24301 0.02906,0.50194 0.03082,0.5754 0.0018,0.0735 0.03633,0.17287 0.07683,0.22092 0.0405,0.0481 0.116739,0.20425 0.16942,0.34711 0.0563,0.15269 0.139839,0.27374 0.202664,0.29368 0.05878,0.0187 0.106879,0.0576 0.106879,0.0865 0,0.0289 0.129716,0.18941 0.288259,0.35668 0.200929,0.21199 0.355703,0.32211 0.510875,0.36348 0.122438,0.0326 0.334455,0.11278 0.471148,0.17808 0.205978,0.0984 0.357287,0.11994 0.883675,0.12578 0.608563,0.007 0.690143,0.0181 0.987465,0.13759 0.07227,0.029 0.143646,0.0406 0.158608,0.0256 0.04535,-0.0453 0.525769,0.22261 0.731737,0.40814 0.179314,0.16152 0.193304,0.19766 0.193304,0.49929 0,0.17885 -0.02662,0.3518 -0.05916,0.38434 -0.03254,0.0325 -0.305927,0.14847 -0.607526,0.25762 -0.49547,0.17932 -0.609626,0.19963 -1.183505,0.21054 -0.349328,0.007 -0.697275,0.004 -0.773215,-0.007 z m 57.438876,-0.0249 c -0.80806,-0.0543 -1.166313,-0.1481 -1.44482,-0.3781 -0.326987,-0.27004 -0.4387,-0.56398 -0.400559,-1.05394 0.0176,-0.22607 0.02931,-0.47318 0.02601,-0.54912 -0.0033,-0.0759 -0.0016,-0.23748 0.0037,-0.35899 0.03047,-0.69381 0.01414,-4.53061 -0.02056,-4.8326 -0.03766,-0.32773 -0.148888,-3.30176 -0.131756,-3.52299 0.02059,-0.26595 0.818487,-0.80637 1.173145,-0.79458 0.09443,0.003 0.267444,-0.0431 0.384476,-0.10278 0.117037,-0.0597 0.264694,-0.10848 0.328136,-0.10848 0.06344,0 0.138963,-0.0213 0.167821,-0.0473 0.02886,-0.026 0.338282,-0.0768 0.68761,-0.11276 0.636643,-0.0656 1.149534,-0.0337 1.518816,0.0945 0.09113,0.0316 0.352089,0.11279 0.579912,0.18034 0.227822,0.0675 0.439076,0.13925 0.469452,0.15932 0.03038,0.0201 0.191923,0.0698 0.358993,0.11051 0.352995,0.086 1.25119,0.54589 1.579669,0.80879 0.124598,0.0997 0.323425,0.22591 0.441837,0.28042 0.405204,0.18652 1.335001,0.99663 1.523263,1.32719 0.06547,0.11495 0.166158,0.26203 0.223757,0.32684 0.269582,0.30333 0.52698,1.07779 0.630839,1.89805 0.05775,0.45611 0.06041,2.22724 0.0038,2.49359 -0.02359,0.11085 -0.101319,0.28766 -0.172737,0.3929 -0.07142,0.10524 -0.16116,0.28621 -0.199423,0.40215 -0.04756,0.14412 -0.23646,0.37474 -0.597171,0.72906 -0.494118,0.48536 -0.576885,0.54212 -1.304128,0.89435 -0.427085,0.20686 -0.86351,0.40315 -0.969827,0.43619 -0.401117,0.12468 -0.537275,0.17158 -0.994135,0.34241 -0.840077,0.31414 -1.517148,0.54682 -1.596331,0.54858 -0.04263,9.5e-4 -0.205488,0.0623 -0.361893,0.13625 -0.15641,0.074 -0.407341,0.16436 -0.557626,0.20082 -0.150286,0.0365 -0.29686,0.0878 -0.325717,0.114 -0.02886,0.0263 -0.115845,0.0441 -0.193304,0.0398 -0.07746,-0.004 -0.451503,-0.0289 -0.831207,-0.0544 z m 0.914051,-2.02912 c 0.05225,-0.0478 0.571495,-0.2544 0.641587,-0.25532 0.02025,-2.8e-4 0.05546,-0.0191 0.07824,-0.0419 0.02278,-0.0228 0.09632,-0.0414 0.16342,-0.0414 0.0671,0 0.265566,-0.0635 0.441031,-0.14109 0.17547,-0.0776 0.557577,-0.22424 0.849123,-0.32588 0.291552,-0.10163 0.622035,-0.21966 0.734406,-0.26228 0.425202,-0.1613 0.999823,-0.51825 1.310528,-0.81409 0.270328,-0.2574 0.340072,-0.36471 0.432731,-0.66585 0.06758,-0.21964 0.112641,-0.5305 0.11607,-0.80083 0.0068,-0.53314 -0.09015,-1.49358 -0.16998,-1.6845 -0.03176,-0.0759 -0.06952,-0.23749 -0.08393,-0.359 -0.04968,-0.41904 -0.2495,-0.72756 -0.78071,-1.20538 -0.352321,-0.3169 -0.646392,-0.52328 -0.986413,-0.69226 -0.266445,-0.13241 -0.583855,-0.29293 -0.705361,-0.35669 -0.347687,-0.18247 -1.348173,-0.31537 -1.616026,-0.21466 -0.08323,0.0313 -0.27131,0.0899 -0.417962,0.13025 -0.146651,0.0404 -0.291447,0.10326 -0.321768,0.13979 -0.05248,0.0632 -0.06421,1.41432 -0.01597,1.83996 0.01205,0.10632 0.01781,0.57853 0.0128,1.04937 -0.0074,0.6983 -0.0033,2.66138 0.0094,4.43218 0.0021,0.2939 0.01174,0.31757 0.129298,0.31757 0.06986,0 0.150639,-0.0216 0.179496,-0.048 z m -37.038893,1.85199 c -0.199991,-0.0961 -0.445376,-0.24407 -0.545302,-0.3288 l -0.181683,-0.15405 0.02437,-0.45348 c 0.0134,-0.24941 0.05985,-0.51561 0.103208,-0.59155 0.04336,-0.0759 0.0806,-0.16293 0.08276,-0.1933 0.0098,-0.13847 0.129095,-0.60366 0.233654,-0.91129 0.01549,-0.0456 0.0342,-0.1077 0.04158,-0.13808 0.0074,-0.0304 0.07953,-0.28855 0.160332,-0.57372 0.0808,-0.28518 0.13435,-0.55122 0.119003,-0.59122 -0.02419,-0.0631 0.166463,-0.89251 0.259069,-1.12709 0.01799,-0.0456 0.135869,-0.46807 0.261958,-0.93891 0.126089,-0.47083 0.289056,-1.01165 0.362148,-1.20182 0.07309,-0.19017 0.132895,-0.38682 0.132895,-0.43699 0,-0.0916 0.132529,-0.57807 0.233976,-0.85884 0.05643,-0.15618 0.07307,-0.33619 0.108942,-1.17877 0.02344,-0.5506 0.119823,-0.80086 0.485527,-1.2607 0.149696,-0.18824 0.279284,-0.27683 0.574428,-0.39272 0.381678,-0.14986 0.554769,-0.15768 0.861544,-0.0389 0.07594,0.0294 0.156858,0.0562 0.179816,0.0594 0.125891,0.018 0.692648,0.34635 0.789542,0.45736 0.06231,0.0714 0.17019,0.2665 0.239726,0.43357 0.06954,0.16707 0.164586,0.37832 0.211224,0.46945 0.364079,0.7114 0.457501,0.91349 0.457501,0.98966 0,0.048 0.01864,0.0875 0.04142,0.0877 0.02278,2.2e-4 0.09331,0.081 0.156729,0.17949 0.327018,0.508 0.329524,0.51266 0.347242,0.64485 0.0038,0.0283 0.0504,0.0654 0.103556,0.0825 0.05316,0.017 0.1692,0.14918 0.257869,0.29368 0.08867,0.14451 0.281283,0.40368 0.42803,0.57595 0.146747,0.17227 0.266813,0.35509 0.266813,0.40627 0,0.0512 0.06213,0.14194 0.138074,0.20168 0.07594,0.0597 0.138075,0.14218 0.138075,0.1832 0,0.041 0.05689,0.14486 0.126417,0.23072 0.06953,0.0859 0.15636,0.21825 0.192957,0.2942 0.0366,0.0759 0.153342,0.26234 0.259434,0.41422 0.106091,0.15188 0.286434,0.40993 0.400761,0.57345 0.114328,0.16352 0.279854,0.3695 0.367837,0.45774 0.08798,0.0882 0.208079,0.2527 0.266883,0.36546 0.0588,0.11275 0.178789,0.26986 0.266636,0.34911 0.08785,0.0793 0.141723,0.16402 0.119725,0.18835 -0.022,0.0243 -0.0099,0.027 0.02693,0.006 0.04846,-0.0278 0.05177,-0.0783 0.01201,-0.18287 -0.04384,-0.11531 -0.03419,-0.16784 0.04784,-0.26039 0.05652,-0.0638 0.105552,-0.17807 0.108969,-0.25401 0.0074,-0.16436 0.123114,-0.55317 0.191998,-0.6451 0.106681,-0.14236 0.330619,-1.17671 0.350583,-1.61931 0.0193,-0.42778 0.09218,-0.89253 0.173223,-1.1046 0.01741,-0.0456 0.03811,-0.1077 0.04598,-0.13807 0.02466,-0.0951 0.185916,-0.67624 0.279676,-1.00794 0.04937,-0.17467 0.08781,-0.36614 0.08543,-0.42549 -0.0024,-0.0594 0.01713,-0.13391 0.04337,-0.16569 0.02624,-0.0318 0.06625,-0.15719 0.08893,-0.27869 0.02267,-0.12151 0.0746,-0.3009 0.115401,-0.39864 0.0408,-0.0977 0.07418,-0.31685 0.07418,-0.48688 0,-0.23462 0.04493,-0.40641 0.186345,-0.71248 0.181206,-0.3922 0.196393,-0.40806 0.550823,-0.57553 l 0.36448,-0.1722 0.335347,0.0859 c 0.458991,0.11758 0.846047,0.37052 1.047576,0.68458 0.195771,0.30508 0.204404,0.40772 0.05492,0.65291 -0.06474,0.10618 -0.121715,0.31847 -0.136497,0.50859 -0.03878,0.4988 -0.264242,1.29659 -0.471799,1.66946 -0.02936,0.0527 -0.05338,0.1368 -0.05338,0.18679 0,0.05 -0.04684,0.16837 -0.104097,0.26309 -0.06164,0.10197 -0.0982,0.25105 -0.08965,0.36551 0.0079,0.10632 -0.01356,0.22816 -0.04779,0.27076 -0.03747,0.0466 -0.06583,0.3518 -0.07127,0.76701 -0.005,0.37925 -0.02982,0.70477 -0.05523,0.72337 -0.0254,0.0186 -0.05059,0.096 -0.05598,0.1719 -0.01749,0.24685 -0.212157,0.92523 -0.372438,1.2979 -0.124528,0.28953 -0.19769,0.55525 -0.19769,0.71798 0,0.0868 -0.02315,0.23417 -0.05144,0.32746 -0.02829,0.0933 -0.08115,0.34358 -0.117452,0.55622 -0.0363,0.21263 -0.09625,0.42388 -0.133209,0.46945 -0.06759,0.0833 -0.250193,0.9342 -0.250193,1.16582 0,0.10278 -0.338326,0.49971 -0.441837,0.51837 -0.01519,0.003 -0.148828,0.0599 -0.296977,0.12691 -0.506965,0.2295 -0.932228,0.15343 -1.667966,-0.29837 -0.332875,-0.2044 -1.12792,-0.88458 -1.12792,-0.96496 0,-0.0251 -0.05742,-0.1031 -0.127597,-0.17328 -0.07018,-0.0702 -0.273933,-0.38819 -0.452787,-0.70669 -0.178854,-0.3185 -0.382395,-0.656 -0.452314,-0.74999 -0.06992,-0.094 -0.127125,-0.1872 -0.127125,-0.20711 0,-0.0199 -0.03965,-0.0797 -0.08812,-0.13287 -0.179328,-0.19669 -0.850787,-1.12068 -0.850787,-1.17075 0,-0.0285 -0.0538,-0.0895 -0.119554,-0.13558 -0.06575,-0.0461 -0.225192,-0.26493 -0.354306,-0.48639 -0.129115,-0.22146 -0.280314,-0.45232 -0.335999,-0.51302 -0.05569,-0.0607 -0.148791,-0.20647 -0.206904,-0.32392 -0.05811,-0.11746 -0.176207,-0.2908 -0.262433,-0.3852 -0.08623,-0.0944 -0.156781,-0.19904 -0.156781,-0.23254 0,-0.0335 -0.06213,-0.11928 -0.138074,-0.19062 -0.07594,-0.0713 -0.138901,-0.15645 -0.139912,-0.18912 -0.0049,-0.16005 -0.31858,-0.39563 -0.336444,-0.25272 -0.0038,0.0304 -0.01113,0.0739 -0.0163,0.0967 -0.0052,0.0228 -0.02914,0.14084 -0.05327,0.26234 -0.02413,0.12151 -0.06317,0.24578 -0.08675,0.27615 -0.02358,0.0304 -0.05597,0.11737 -0.07198,0.19331 -0.01601,0.0759 -0.109422,0.43631 -0.207586,0.80083 -0.247211,0.91798 -0.311065,1.22188 -0.423559,2.01588 -0.0538,0.3797 -0.116983,0.69866 -0.140414,0.70878 -0.02343,0.0101 -0.0426,0.0437 -0.0426,0.0745 0,0.0309 -0.03386,0.13441 -0.07525,0.23013 -0.06602,0.15268 -0.156608,0.49013 -0.224643,0.83679 -0.01192,0.0607 -0.04874,0.18042 -0.08181,0.26593 -0.03307,0.0855 -0.06013,0.22345 -0.06013,0.30653 0,0.0831 -0.02289,0.17466 -0.05087,0.20351 -0.02798,0.0289 -0.06027,0.18225 -0.07176,0.34088 -0.0242,0.33408 -0.120975,0.46021 -0.608545,0.79309 -0.400754,0.27362 -0.635206,0.28017 -1.151266,0.0322 z m 19.114098,0.0188 c -0.227823,-0.0239 -0.695873,-0.0708 -1.040112,-0.10423 -0.34424,-0.0334 -0.654907,-0.0789 -0.690371,-0.10104 -0.03547,-0.0221 -0.180904,-0.0436 -0.323198,-0.0478 -0.483907,-0.0142 -1.467313,-0.57652 -1.407587,-0.80491 0.01466,-0.0561 0.0041,-0.11586 -0.02339,-0.13287 -0.02752,-0.017 -0.05004,-0.11434 -0.05004,-0.21628 0,-0.15183 0.04733,-0.22702 0.261732,-0.41574 0.443772,-0.39062 0.842519,-0.50341 1.146238,-0.32421 0.11205,0.0661 0.323881,0.12356 0.500981,0.13586 0.168765,0.0117 0.522824,0.0743 0.7868,0.13902 0.384745,0.0944 0.644298,0.11726 1.308401,0.11545 0.463661,-10e-4 0.913562,-0.03 1.021749,-0.0652 0.196429,-0.064 0.556087,-0.1344 1.105311,-0.21638 0.167464,-0.025 0.433896,-0.11103 0.59207,-0.19118 0.158175,-0.0801 0.344253,-0.15425 0.413506,-0.16466 0.185568,-0.0279 0.202302,-0.39839 0.03358,-0.74358 -0.06964,-0.14248 -0.127062,-0.2786 -0.127603,-0.30249 -5.52e-4,-0.0239 -0.0274,-0.0612 -0.05969,-0.0828 -0.03229,-0.0217 -0.247605,-0.26309 -0.478485,-0.53647 -0.462717,-0.54791 -1.453369,-1.54281 -1.75529,-1.76281 -0.820449,-0.59786 -1.043868,-0.6937 -1.615934,-0.69316 -0.08404,5e-5 -0.229085,-0.0393 -0.322329,-0.0875 -0.09869,-0.051 -0.270657,-0.0814 -0.411514,-0.0728 -0.133088,0.008 -0.259357,-0.002 -0.280596,-0.0237 -0.02124,-0.0212 -0.115247,-0.0389 -0.208908,-0.0392 -0.213629,-7.5e-4 -0.68629,-0.1418 -0.801423,-0.23915 -0.04777,-0.0404 -0.161951,-0.10305 -0.253736,-0.13924 -0.291503,-0.11494 -0.848047,-0.85117 -0.779151,-1.03071 0.01566,-0.0408 0.05663,-0.2809 0.09104,-0.53351 0.08145,-0.59794 0.359042,-1.19723 0.801142,-1.72957 0.425679,-0.51257 0.680465,-0.76718 0.858692,-0.85811 0.110018,-0.0561 0.240448,-0.16373 0.289844,-0.23911 0.04939,-0.0754 0.146296,-0.155 0.215336,-0.17691 0.06904,-0.0219 0.150475,-0.0697 0.180967,-0.10616 0.06831,-0.0817 0.771702,-0.37553 1.203079,-0.50253 0.387632,-0.11412 1.088653,-0.0798 1.643727,0.0806 0.34894,0.10079 0.99187,0.45969 0.99187,0.55368 0,0.0253 0.07456,0.13976 0.165689,0.25444 0.228411,0.28741 0.212797,0.42382 -0.08495,0.74214 -0.369534,0.39506 -0.445096,0.41455 -1.327728,0.34245 l -0.74944,-0.0612 -0.410142,0.2251 c -0.225578,0.1238 -0.41041,0.24149 -0.410738,0.26153 -3.31e-4,0.02 -0.09423,0.13584 -0.208668,0.25734 -0.222619,0.23637 -0.563952,0.88016 -0.563952,1.06368 0,0.11936 0.07222,0.13772 0.828445,0.21055 0.408451,0.0393 0.883602,0.20394 1.507202,0.52214 0.236623,0.12073 0.463658,0.21952 0.504523,0.21952 0.04086,0 0.112298,0.058 0.15874,0.12887 0.04644,0.0709 0.155584,0.16408 0.242536,0.20711 0.370512,0.18336 0.710512,0.43467 1.095888,0.81003 0.226105,0.22023 0.43327,0.40042 0.460366,0.40042 0.09145,0 1.136725,1.07342 1.498485,1.53883 0.197446,0.25402 0.414885,0.52741 0.483193,0.60753 0.06831,0.0801 0.124228,0.16394 0.124267,0.18626 3.9e-5,0.0223 0.0799,0.17034 0.177475,0.32892 0.158421,0.25747 0.178574,0.33738 0.188273,0.74653 0.0091,0.38199 -0.01052,0.5018 -0.117723,0.72044 -0.27818,0.56734 -0.924909,1.02891 -2.015309,1.43831 -0.99849,0.3749 -3.195771,0.63107 -4.363145,0.50867 z m 135.938826,-0.54224 c -0.0401,-0.0399 -0.0974,-0.0574 -0.12736,-0.0389 -0.0703,0.0434 -0.84987,-0.11737 -1.10392,-0.22773 -1.01215,-0.43965 -1.65379,-0.8839 -2.32199,-1.60766 -0.29987,-0.3248 -0.51528,-0.57635 -0.53461,-0.6243 -0.005,-0.0135 -0.0341,-0.0867 -0.0637,-0.16269 -0.0296,-0.0759 -0.10441,-0.19135 -0.16625,-0.25646 -0.0618,-0.0651 -0.098,-0.13286 -0.0803,-0.15055 0.0177,-0.0177 0.007,-0.0638 -0.0237,-0.10253 -0.14311,-0.18026 -0.29617,-1.60073 -0.18021,-1.67239 0.0325,-0.0201 0.0443,-0.0833 0.0261,-0.14053 -0.0181,-0.0572 -0.007,-0.25392 0.0254,-0.43719 0.0321,-0.18327 0.0843,-0.48855 0.11605,-0.6784 0.0747,-0.44703 0.415,-1.54391 0.57812,-1.86344 0.38786,-0.75975 1.29223,-1.784 2.30801,-2.61394 0.90855,-0.74234 1.81149,-1.04593 2.75962,-0.92786 0.68133,0.0848 0.8119,0.11882 1.09234,0.28417 0.14125,0.0833 0.31653,0.16981 0.3895,0.19228 0.29914,0.0921 0.62166,0.60784 0.62635,1.00157 0.004,0.35253 -0.0816,0.4571 -0.48861,0.59544 -0.36097,0.1227 -0.89987,0.0921 -1.07894,-0.0612 -0.23234,-0.19893 -0.96796,-0.0113 -1.38681,0.35365 -0.10469,0.0912 -0.26491,0.20449 -0.35604,0.25169 -0.18831,0.0975 -0.96652,0.80648 -0.96652,0.8805 0,0.0267 -0.0855,0.13666 -0.19004,0.24428 -0.10451,0.10762 -0.2059,0.26791 -0.22528,0.35619 -0.0194,0.0883 -0.0771,0.19161 -0.12825,0.22961 -0.0871,0.0647 -0.3401,0.81676 -0.3401,1.0108 0,0.0484 -0.0373,0.12523 -0.0829,0.17079 -0.0456,0.0456 -0.0847,0.17427 -0.0871,0.28601 -0.002,0.11175 -0.0168,0.25288 -0.0322,0.31363 -0.0682,0.26897 -0.12728,0.90054 -0.10074,1.07698 0.016,0.10632 0.0326,0.29893 0.037,0.42803 0.004,0.1291 0.0287,0.23473 0.0541,0.23473 0.0254,0 0.0404,0.0186 0.0334,0.0414 -0.0264,0.0857 0.23964,0.55041 0.43987,0.76832 0.11443,0.12452 0.2579,0.31015 0.31885,0.41251 0.0707,0.11877 0.23337,0.25099 0.44958,0.36546 0.34194,0.18103 0.32975,0.17891 1.37265,0.23842 0.0304,0.002 0.23868,-0.025 0.46288,-0.0593 0.80107,-0.12274 1.13445,-0.49494 1.20116,-1.34106 0.0173,-0.21899 0.0339,-0.41058 0.0369,-0.42577 0.0233,-0.11739 -0.11763,-0.29755 -0.31038,-0.39683 -0.27091,-0.13953 -0.29121,-0.14262 -1.22485,-0.18682 -0.39489,-0.0187 -0.7494,-0.0599 -0.78779,-0.0916 -0.0406,-0.0335 -0.17478,-0.0432 -0.32094,-0.0232 -0.26624,0.0365 -0.58462,-0.0792 -0.74289,-0.26986 -0.0423,-0.051 -0.13456,-0.11457 -0.20506,-0.14137 -0.12949,-0.0492 -0.34998,-0.46799 -0.34147,-0.64852 0.002,-0.0506 0.0712,-0.20391 0.15289,-0.34061 0.11109,-0.18586 0.22767,-0.28823 0.46235,-0.40596 l 0.31379,-0.15743 0.9831,0.0604 c 1.52803,0.0939 1.66538,0.11911 2.3086,0.42405 0.0911,0.0432 0.25268,0.0945 0.35899,0.1141 0.10632,0.0195 0.4318,0.15634 0.72329,0.30396 0.29148,0.14763 0.55778,0.26842 0.59177,0.26842 0.034,0 0.0911,0.0559 0.12692,0.12426 0.0358,0.0683 0.13146,0.1864 0.21254,0.26234 0.12354,0.11572 0.15893,0.21857 0.2185,0.63515 0.12553,0.87776 0.13132,1.14099 0.031,1.40934 -0.0509,0.13615 -0.12486,0.46204 -0.16436,0.7242 -0.0395,0.26216 -0.0988,0.52717 -0.13188,0.58891 -0.085,0.15873 -0.63571,0.61894 -0.74072,0.61894 -0.0482,0 -0.12004,0.0461 -0.15974,0.10251 -0.16632,0.23624 -0.92672,0.49342 -1.97759,0.66885 -0.75905,0.12671 -1.51749,0.13233 -1.63832,0.0121 z m -88.68984,-0.15223 c -0.15188,-0.0423 -0.33202,-0.0773 -0.4003,-0.0779 -0.0683,-5.9e-4 -0.22983,-0.10072 -0.35899,-0.22251 -0.12916,-0.12179 -0.27212,-0.23342 -0.31769,-0.24807 -0.0456,-0.0146 -0.28166,-0.215 -0.52467,-0.44523 -0.24301,-0.23022 -0.53338,-0.47823 -0.64527,-0.55113 -0.11189,-0.0729 -0.32707,-0.23889 -0.47819,-0.36889 -0.15111,-0.12999 -0.40752,-0.33171 -0.56978,-0.44827 -0.16227,-0.11655 -0.49385,-0.35764 -0.73686,-0.53576 -0.46951,-0.34413 -1.368191,-0.82738 -1.537461,-0.82675 -0.13869,5e-4 -0.8096,-0.3802 -0.81065,-0.46002 -5.5e-4,-0.0401 -0.019,-0.0356 -0.0491,0.0119 -0.0472,0.0744 -0.0971,0.66956 -0.14372,1.71157 -0.0172,0.384 0.004,0.636 0.0839,0.97677 0.0958,0.41101 0.0987,0.47923 0.0276,0.64946 -0.14146,0.33855 -0.65748,0.54126 -1.28958,0.50658 -0.45132,-0.0248 -0.90025,-0.27759 -1.077518,-0.60682 -0.109498,-0.20336 -0.118125,-0.29332 -0.10862,-1.13221 0.01191,-1.05089 0.05264,-1.91143 0.09361,-1.97771 0.0156,-0.0252 0.04207,-0.29269 0.05882,-0.59433 0.0168,-0.30164 0.0559,-0.90881 0.087,-1.34926 0.0311,-0.44046 0.0658,-1.09908 0.0771,-1.46359 0.0113,-0.36452 0.0277,-0.68761 0.0365,-0.71799 0.0319,-0.11016 -0.0686,-1.33024 -0.12446,-1.50974 -0.0958,-0.30796 0.0457,-0.81368 0.28216,-1.0086 0.1301,-0.10724 0.23678,-0.151 0.33233,-0.13631 0.0774,0.0119 0.3147,0.0385 0.52734,0.059 0.27875,0.027 0.46749,0.0834 0.67656,0.20216 0.15948,0.0906 0.28996,0.14414 0.28996,0.11895 0,-0.0252 0.0808,-0.0798 0.17949,-0.12139 0.0987,-0.0416 0.25406,-0.11175 0.34519,-0.15593 0.9771,-0.47379 1.853599,-0.52187 2.899559,-0.15907 0.87955,0.30507 1.06896,0.36419 1.16592,0.36389 0.0489,-1.6e-4 0.18331,0.0638 0.29864,0.14203 0.11533,0.0783 0.33203,0.19053 0.48155,0.24946 0.51431,0.20273 1.30904,0.83073 1.57296,1.24298 0.45703,0.71389 0.53258,0.95361 0.53047,1.68303 -0.001,0.50219 -0.001,0.50198 -0.49924,1.27487 -0.15791,0.24515 -1.23066,0.87627 -1.23066,0.72402 0,-0.0196 -0.0326,0.009 -0.0724,0.0633 -0.0454,0.062 -0.17381,0.11044 -0.34392,0.12961 -0.14934,0.0168 -0.3013,0.0604 -0.33768,0.0968 -0.0364,0.0364 -0.1985,0.0823 -0.36026,0.10211 -0.16176,0.0198 -0.39352,0.074 -0.51502,0.12053 -0.12151,0.0465 -0.26591,0.0994 -0.3209,0.11753 -0.0904,0.0298 -0.0854,0.0482 0.0517,0.19132 0.0835,0.0871 0.17816,0.15979 0.21044,0.16151 0.0323,0.002 0.24511,0.15033 0.47293,0.33022 0.22782,0.1799 0.65748,0.49128 0.95479,0.69196 0.29732,0.20069 0.63284,0.4498 0.74561,0.55359 0.11276,0.10379 0.24852,0.20276 0.30168,0.21992 0.0532,0.0172 0.0966,0.0544 0.0966,0.0827 0,0.0283 0.0972,0.0515 0.21596,0.0515 0.16812,0 0.27517,0.0475 0.48326,0.21437 0.63332,0.50791 0.82998,0.82218 0.82104,1.31201 -0.006,0.31297 -0.0738,0.42722 -0.32843,0.55089 -0.0936,0.0454 -0.25707,0.13095 -0.36339,0.19002 -0.22273,0.12377 -0.46503,0.12968 -0.85606,0.0209 z m -5.975001,-5.84977 c 0.10811,-0.0452 0.37832,-0.097 0.60046,-0.11515 0.55754,-0.0456 2.133541,-0.43318 2.668301,-0.65627 0.24301,-0.10137 0.54125,-0.20554 0.66276,-0.23148 0.18761,-0.0401 0.24001,-0.0846 0.34759,-0.2957 0.13789,-0.27052 0.13011,-0.48858 -0.0285,-0.79893 -0.13407,-0.26234 -0.54526,-0.61991 -0.83159,-0.72313 -0.1434,-0.0517 -0.40985,-0.1607 -0.59211,-0.24223 -0.50059,-0.22394 -0.81817,-0.29744 -1.10155,-0.25494 -0.13735,0.0206 -0.26877,0.0696 -0.29207,0.10898 -0.0233,0.0393 -0.0971,0.10027 -0.164041,0.1354 -0.0669,0.0351 -0.20914,0.19408 -0.31602,0.35324 -0.30024,0.44713 -0.55143,0.67954 -0.88293,0.81694 -0.1671,0.0693 -0.29371,0.14229 -0.28136,0.16228 0.0124,0.02 -0.0128,0.28305 -0.0559,0.58456 -0.0996,0.69661 -0.10456,1.16497 -0.0128,1.20199 0.038,0.0153 0.0722,0.0298 0.0761,0.0322 0.004,0.002 0.0955,-0.0326 0.20365,-0.0778 z m 34.339001,5.88003 c -0.074,-0.0319 -0.23553,-0.0529 -0.35899,-0.0465 -0.12346,0.006 -0.2834,-0.0201 -0.35541,-0.0587 -0.072,-0.0386 -0.25842,-0.0824 -0.41422,-0.0973 -0.15581,-0.0149 -0.43241,-0.0844 -0.61467,-0.15442 -0.18225,-0.0701 -0.40216,-0.14347 -0.48868,-0.16315 -0.29199,-0.0664 -1.03837,-0.54472 -1.27039,-0.81407 -0.12474,-0.14482 -0.29096,-0.28988 -0.36936,-0.32236 -0.0784,-0.0325 -0.18391,-0.12907 -0.23447,-0.21466 -0.0506,-0.0856 -0.19201,-0.24603 -0.31433,-0.35654 -0.12232,-0.11051 -0.21617,-0.21962 -0.20856,-0.24246 0.008,-0.0228 -0.0313,-0.0912 -0.0864,-0.15199 -0.17688,-0.19486 -0.36046,-0.48775 -0.53657,-0.85606 -0.13683,-0.28615 -0.17596,-0.44864 -0.19287,-0.80083 -0.0367,-0.76378 -0.0292,-0.81294 0.19649,-1.28655 0.27572,-0.57869 0.81756,-1.50255 0.88124,-1.50255 0.0266,0 0.0621,-0.0435 0.079,-0.0967 0.038,-0.11938 1.00223,-1.12351 1.19177,-1.24103 0.0759,-0.0471 0.27883,-0.20959 0.45087,-0.36111 0.19561,-0.17229 0.56806,-0.40046 0.99413,-0.60904 0.60323,-0.29531 0.73235,-0.33781 1.12636,-0.37079 0.3689,-0.0309 0.50397,-0.0179 0.78963,0.0759 0.28433,0.0933 0.48886,0.11329 1.16917,0.11407 0.71281,8e-4 0.89198,0.0199 1.32214,0.14084 0.54286,0.15263 1.11951,0.44273 1.39842,0.70353 0.5157,0.48221 0.60893,0.58406 0.70614,0.77147 0.0582,0.11228 0.14057,0.22412 0.18295,0.24854 0.0424,0.0244 0.14135,0.24872 0.21992,0.49846 0.0786,0.24974 0.18358,0.54798 0.23335,0.66276 0.10381,0.23938 0.10059,0.21992 0.21388,1.29189 0.0817,0.77289 0.0722,1.10704 -0.0353,1.2446 -0.0516,0.0661 -0.0668,0.12466 -0.16226,0.62697 -0.0318,0.16707 -0.0806,0.32737 -0.1085,0.35623 -0.0279,0.0289 -0.0508,0.094 -0.0508,0.14484 0,0.22733 -1.40688,1.92904 -1.59481,1.92904 -0.0351,0 -0.2436,0.14723 -0.46336,0.32717 -0.26114,0.21383 -0.53348,0.37771 -0.78616,0.47304 -0.3524,0.13297 -0.47457,0.14807 -1.38074,0.17068 -0.62862,0.0157 -1.0436,0.004 -1.12866,-0.0332 z m 1.31273,-1.94015 c 0.13162,-0.0562 0.26295,-0.10212 0.29184,-0.10212 0.0836,0 0.75275,-0.66344 0.97492,-0.96652 0.11132,-0.15188 0.224,-0.29136 0.25037,-0.30994 0.0264,-0.0186 0.047,-0.0491 0.0458,-0.0679 -0.001,-0.0188 0.0599,-0.17447 0.13575,-0.34599 0.20118,-0.45491 0.25065,-0.96734 0.15575,-1.61356 -0.0432,-0.294 -0.10194,-0.58425 -0.13059,-0.645 -0.0287,-0.0607 -0.09,-0.26541 -0.13639,-0.4548 -0.0939,-0.38365 -0.30628,-0.8376 -0.44617,-0.9537 -0.20311,-0.16857 -1.22439,-0.26001 -1.6604,-0.14867 -0.32509,0.083 -1.04208,0.0908 -1.28433,0.0139 -0.0723,-0.023 -0.12035,-0.0147 -0.12035,0.0207 0,0.0324 -0.024,0.059 -0.0533,0.059 -0.0838,0 -0.50252,0.28012 -0.82102,0.54925 -0.15979,0.13502 -0.46572,0.48918 -0.67984,0.78703 -0.21412,0.29784 -0.41596,0.54153 -0.44853,0.54153 -0.0326,0 -0.0449,0.0144 -0.0273,0.0319 0.0175,0.0175 -0.0314,0.17287 -0.10879,0.34518 -0.11512,0.2564 -0.13935,0.39117 -0.13339,0.74206 0.006,0.3812 0.0312,0.47617 0.22313,0.85606 0.11872,0.23502 0.29455,0.50186 0.39072,0.59299 0.0962,0.0911 0.22312,0.24362 0.28207,0.33887 0.059,0.0953 0.24105,0.26538 0.40465,0.37806 0.32776,0.22573 0.93658,0.37777 1.77142,0.44237 0.24175,0.0187 0.45094,0.0454 0.46487,0.0593 0.0416,0.0416 0.4029,-0.0406 0.65914,-0.15 z m -14.79233,1.8421 c -0.22919,-0.0397 -0.53757,-0.056 -0.69037,-0.0366 -0.4147,0.0527 -0.97333,0.0586 -1.00309,0.0107 -0.0145,-0.0233 -0.0465,-0.0299 -0.0712,-0.0146 -0.0553,0.0342 -0.7465,-0.42151 -0.75311,-0.4965 -0.003,-0.0298 -0.0231,-0.10382 -0.0456,-0.16457 -0.1526,-0.41315 -0.1684,-0.52358 -0.13427,-0.9389 0.11951,-1.45471 0.16143,-3.18033 0.12207,-5.02591 -0.0233,-1.09354 -0.0393,-2.16001 -0.0355,-2.36993 0.0132,-0.72656 0.33342,-1.19238 0.81969,-1.19238 0.13662,0 0.33761,0.0373 0.44666,0.0829 0.22014,0.092 0.46094,0.10954 0.46094,0.0336 0,-0.0586 0.38051,-0.22107 0.69037,-0.29473 0.68827,-0.16361 2.05594,-0.0552 2.5958,0.20573 0.0911,0.044 0.31481,0.10997 0.49706,0.14649 0.44182,0.0885 0.38175,0.0711 0.90616,0.26341 0.25538,0.0937 0.5412,0.22892 0.63514,0.30056 0.094,0.0717 0.33237,0.2118 0.52982,0.31145 0.5228,0.26385 0.70675,0.40525 1.32551,1.01892 0.6909,0.6852 0.99413,1.01974 0.99413,1.09675 0,0.0468 0.0579,0.15529 0.12868,0.24116 0.1336,0.1621 0.22671,0.3466 0.21135,0.41881 -0.005,0.023 0.0384,0.14724 0.0962,0.27615 0.15301,0.34142 0.23452,0.86284 0.19306,1.23501 -0.0525,0.47104 -0.56369,1.5022 -0.93457,1.88512 -0.15446,0.15947 -0.27258,0.28995 -0.26249,0.28995 0.0306,0 -0.14512,0.29135 -0.30416,0.50423 -0.16351,0.21884 -0.34965,0.3838 -0.89181,0.79033 -0.49556,0.37159 -2.07143,1.12407 -2.82028,1.34669 -0.50794,0.151 -2.02667,0.19376 -2.70626,0.0762 z m 1.82305,-1.77853 c 0.0714,-0.0702 0.61637,-0.33138 0.69151,-0.33138 0.13571,0 0.75032,-0.32959 1.01854,-0.54619 0.13581,-0.10968 0.29576,-0.23669 0.35544,-0.28226 0.3459,-0.26406 1.00409,-1.11501 1.26019,-1.62927 0.1951,-0.39176 0.21713,-1.06678 0.0458,-1.40265 -0.22595,-0.44289 -0.49478,-0.8202 -0.73671,-1.03394 -0.13348,-0.11794 -0.2724,-0.27036 -0.30869,-0.33871 -0.0363,-0.0684 -0.0909,-0.12426 -0.12134,-0.12426 -0.0304,0 -0.16005,-0.10582 -0.28801,-0.23516 -0.18766,-0.18966 -0.33417,-0.26968 -0.75735,-0.41365 -0.52985,-0.18026 -1.12487,-0.30753 -1.74846,-0.37398 -0.27636,-0.0294 -0.38764,-0.0152 -0.59372,0.0759 -0.13949,0.0617 -0.25362,0.13704 -0.25362,0.16743 0,0.0304 -0.13341,0.13503 -0.29646,0.23256 l -0.29648,0.17733 -0.032,0.38163 c -0.0176,0.20989 -0.0183,0.74661 -0.002,1.1927 0.0578,1.54466 0.0469,2.32714 -0.0564,4.05314 -0.0169,0.28298 -0.007,0.2917 0.4621,0.42651 0.1901,0.0546 1.60249,0.0582 1.65736,0.004 z m 38.24609,1.55021 c -0.18225,-0.0546 -0.44971,-0.1537 -0.59435,-0.22012 -0.14464,-0.0664 -0.28473,-0.10733 -0.31131,-0.0909 -0.0778,0.0481 -0.16423,-0.0946 -0.30319,-0.50031 -0.32549,-0.95031 -0.94128,-2.17486 -1.09367,-2.17486 -0.0246,0 -0.0447,-0.0334 -0.0447,-0.0743 0,-0.0409 -0.0523,-0.12163 -0.11626,-0.17949 -0.11564,-0.10466 -0.46945,-0.13709 -1.41131,-0.12938 -0.15671,10e-4 -0.29919,-0.0208 -0.31664,-0.049 -0.0174,-0.0282 -0.11291,-0.0347 -0.21213,-0.0144 -0.16138,0.033 -0.19918,0.0803 -0.35848,0.44886 -0.0979,0.22658 -0.23375,0.53623 -0.30178,0.68811 -0.068,0.15188 -0.12768,0.31343 -0.13256,0.35899 -0.005,0.0456 -0.09,0.25129 -0.18922,0.45716 -0.0992,0.20587 -0.16594,0.3887 -0.14834,0.4063 0.0176,0.0176 0.008,0.0604 -0.0209,0.0951 -0.0291,0.0347 -0.12854,0.17069 -0.22101,0.30212 -0.23676,0.33649 -0.45742,0.41628 -1.05731,0.38228 -0.44216,-0.0251 -0.49795,-0.0415 -0.67848,-0.20001 -0.10818,-0.095 -0.2425,-0.17271 -0.29848,-0.17271 -0.14877,0 -0.22915,-0.12538 -0.25995,-0.40548 -0.0229,-0.20789 0.006,-0.31286 0.17823,-0.65291 0.113,-0.22286 0.21075,-0.4549 0.21721,-0.51565 0.006,-0.0607 0.0668,-0.24716 0.13411,-0.41423 0.0673,-0.16707 0.17996,-0.45649 0.25032,-0.64316 0.0703,-0.18667 0.15547,-0.39088 0.18915,-0.45381 0.0337,-0.0629 0.10874,-0.25814 0.16682,-0.43381 0.0581,-0.17568 0.20645,-0.60522 0.32971,-0.95455 0.12326,-0.34933 0.26451,-0.79669 0.3139,-0.99414 0.0494,-0.19744 0.11183,-0.3826 0.13878,-0.41146 0.027,-0.0289 0.049,-0.10294 0.049,-0.16462 0,-0.0617 0.0486,-0.2369 0.10807,-0.38937 0.31183,-0.79991 0.49946,-1.39327 0.49946,-1.57954 0,-0.11473 0.0312,-0.24144 0.0693,-0.28158 0.0381,-0.0401 0.0765,-0.19725 0.0854,-0.34913 0.0474,-0.81552 0.80491,-1.37314 1.5675,-1.15396 0.27287,0.0784 0.42573,0.10718 0.66504,0.12508 0.12712,0.01 0.59204,0.44109 0.66214,0.61465 0.0307,0.0759 0.0878,0.26234 0.12694,0.41423 0.0391,0.15188 0.12105,0.40041 0.18204,0.55229 0.061,0.15188 0.14148,0.36314 0.17887,0.46946 0.0374,0.10631 0.12352,0.34242 0.19141,0.52468 0.11355,0.3048 0.52348,1.58225 0.61145,1.90542 0.0207,0.0759 0.0846,0.20484 0.14205,0.28644 0.0575,0.0816 0.18279,0.3177 0.27851,0.52468 0.0957,0.20698 0.21942,0.43559 0.27489,0.50804 0.0555,0.0724 0.10086,0.16251 0.10086,0.20015 0,0.0603 0.1438,0.33292 0.34741,0.6587 0.0367,0.0588 0.11808,0.15821 0.18075,0.22092 0.0627,0.0627 0.28373,0.46197 0.49127,0.88724 0.20754,0.42527 0.44678,0.86186 0.53164,0.97021 0.0849,0.10834 0.16203,0.23252 0.17148,0.27595 0.009,0.0434 0.048,0.10389 0.0856,0.13438 0.12927,0.10476 0.12799,0.47949 -0.002,0.7283 -0.25204,0.48067 -0.80147,0.65655 -1.44666,0.46312 z m -3.50745,-5.37487 c 0,-0.038 -0.0485,-0.14205 -0.10731,-0.23128 -0.0588,-0.0892 -0.0945,-0.18244 -0.0792,-0.20711 0.0153,-0.0247 0.003,-0.0449 -0.0275,-0.0449 -0.0304,0 -0.0706,0.0249 -0.0894,0.0552 -0.0188,0.0304 -0.004,0.0552 0.0329,0.0552 0.0437,0 0.0352,0.0352 -0.0243,0.101 -0.10859,0.11998 -0.11455,0.18515 -0.0251,0.27456 0.0873,0.0873 0.32043,0.0853 0.31996,-0.003 z m -15.57311,5.09038 c -0.0752,-0.031 -0.20052,-0.0497 -0.27843,-0.0415 -0.0797,0.008 -0.26147,-0.0554 -0.41551,-0.14564 -0.15063,-0.0883 -0.27565,-0.1496 -0.27782,-0.13627 -0.005,0.0321 -0.13491,-0.10369 -0.28719,-0.3008 -0.15964,-0.20664 -0.15721,-0.46662 0.007,-0.79521 0.0718,-0.14328 0.16202,-0.35992 0.2005,-0.48143 0.0385,-0.1215 0.0881,-0.24577 0.11022,-0.27615 0.0221,-0.0304 0.0832,-0.25405 0.13579,-0.49706 0.0526,-0.24301 0.13221,-0.55368 0.17703,-0.69037 0.0448,-0.1367 0.10322,-0.34795 0.12979,-0.46946 0.0266,-0.1215 0.0871,-0.32967 0.13451,-0.46259 0.0474,-0.13291 0.0862,-0.2957 0.0862,-0.36175 0,-0.066 0.0211,-0.1437 0.047,-0.17255 0.0258,-0.0289 0.0785,-0.27615 0.11701,-0.54954 0.0385,-0.27339 0.11563,-0.65861 0.17136,-0.85606 0.0557,-0.19744 0.12799,-0.48326 0.16055,-0.63514 0.063,-0.29356 0.30863,-1.11094 0.53954,-1.79497 0.0769,-0.22782 0.17125,-0.63342 0.20965,-0.90133 0.0771,-0.53781 0.0804,-0.5424 0.57748,-0.79816 0.39636,-0.20395 0.78064,-0.20377 1.2268,5.6e-4 0.58713,0.26891 0.81129,0.51425 0.97194,1.06379 0.0937,0.32052 0.23123,1.04711 0.23217,1.22654 5.5e-4,0.0848 0.0392,0.26456 0.0862,0.39944 0.047,0.13488 0.072,0.29877 0.0555,0.36419 -0.0164,0.0654 0.0209,0.29059 0.0829,0.50036 0.062,0.20978 0.12111,0.45598 0.13136,0.54711 0.045,0.40042 0.11566,0.62618 0.2877,0.91973 0.10119,0.17265 0.18398,0.32973 0.18398,0.34907 0,0.0425 0.403,0.64353 0.61198,0.91277 0.0825,0.10632 0.16839,0.25544 0.19081,0.33138 0.0224,0.0759 0.0995,0.20833 0.17128,0.29419 0.0718,0.0859 0.13052,0.17907 0.13052,0.20711 0,0.1421 0.14915,0.0216 0.22762,-0.18394 0.51802,-1.3567 1.25812,-3.09179 1.33296,-3.12499 0.023,-0.0102 0.0291,-0.039 0.0136,-0.0641 -0.0155,-0.0251 0.0465,-0.25705 0.13772,-0.51554 0.13386,-0.37923 0.16589,-0.5595 0.16589,-0.93353 0,-0.43469 0.009,-0.47231 0.15188,-0.60447 0.25135,-0.23322 0.77795,-0.44749 1.09079,-0.44383 0.53707,0.006 1.31601,0.47862 1.38566,0.84024 0.0205,0.10632 0.0577,0.23299 0.0826,0.2815 0.0252,0.049 0.0222,0.11139 -0.007,0.14046 -0.0673,0.0674 -0.32916,0.73411 -0.32916,0.83828 0,0.0989 -0.42978,1.11403 -0.5164,1.21978 -0.0349,0.0426 -0.0564,0.1196 -0.0477,0.17104 0.009,0.0514 -0.0224,0.12522 -0.069,0.16397 -0.0467,0.0388 -0.0849,0.11158 -0.0849,0.16185 0,0.0503 -0.0327,0.14043 -0.0726,0.20035 -0.04,0.0599 -0.10309,0.21457 -0.14029,0.34367 -0.0372,0.1291 -0.093,0.23472 -0.12392,0.23472 -0.0309,0 -0.042,0.0232 -0.0245,0.0515 0.0175,0.0283 -0.0298,0.1908 -0.10507,0.36106 -0.0753,0.17026 -0.16007,0.42668 -0.1884,0.56983 -0.0648,0.32772 -0.27273,1.15447 -0.33625,1.33726 -0.0264,0.0759 -0.0667,0.18778 -0.0896,0.24853 -0.0229,0.0608 -0.0368,0.13145 -0.031,0.15711 0.006,0.0257 -0.0394,0.18727 -0.10043,0.35914 -0.0742,0.20888 -0.10001,0.37993 -0.0779,0.51592 0.0284,0.17492 0.0108,0.22436 -0.12552,0.35261 -0.24896,0.23424 -0.47483,0.35453 -0.66615,0.35475 -0.0969,1.1e-4 -0.1916,0.0251 -0.21037,0.0554 -0.0188,0.0304 -0.19804,0.0552 -0.39837,0.0552 -0.31611,0 -0.41236,-0.0267 -0.72853,-0.20213 -0.44013,-0.2442 -0.52415,-0.30777 -1.02346,-0.77441 -0.8131,-0.7599 -1.02535,-0.97015 -1.02535,-1.0157 0,-0.0258 -0.0458,-0.0914 -0.10182,-0.14576 -0.056,-0.0543 -0.14921,-0.18533 -0.20711,-0.29109 -0.0579,-0.10576 -0.13333,-0.22256 -0.1676,-0.25956 -0.0343,-0.037 -0.15524,-0.2487 -0.26884,-0.47046 -0.11359,-0.22176 -0.25091,-0.45291 -0.30515,-0.51366 -0.0542,-0.0608 -0.19153,-0.28443 -0.30509,-0.49707 -0.11355,-0.21263 -0.23282,-0.40361 -0.26504,-0.42438 -0.0838,-0.054 -0.14091,-0.004 -0.13193,0.115 0.004,0.0565 -0.0329,0.23617 -0.0825,0.39933 -0.14258,0.46874 -0.22065,0.86731 -0.18209,0.92969 0.0195,0.0315 0.009,0.0573 -0.0231,0.0573 -0.0322,0 -0.0585,0.0752 -0.0585,0.16707 0,0.0919 -0.0478,0.30314 -0.10628,0.46945 -0.0585,0.16631 -0.0927,0.30239 -0.0761,0.30239 0.0166,0 0.005,0.0311 -0.0247,0.069 -0.0302,0.038 -0.0724,0.25248 -0.0937,0.4767 -0.0365,0.38395 -0.10451,0.59518 -0.21818,0.67755 -0.0272,0.0197 -0.0336,0.0772 -0.0142,0.12776 0.0604,0.15739 -0.11207,0.39407 -0.47684,0.65436 -0.37333,0.26641 -0.64441,0.34601 -0.86655,0.25445 z m 24.5483,-0.21422 c -0.0608,-0.0276 -0.19744,-0.0641 -0.30376,-0.0813 -0.27314,-0.0441 -0.82032,-0.44422 -0.86073,-0.62942 -0.0177,-0.0811 -0.0427,-0.18095 -0.0555,-0.22186 -0.0128,-0.0409 -0.0373,-0.65876 -0.0543,-1.37298 -0.017,-0.71422 -0.0513,-1.35204 -0.0761,-1.41736 -0.0248,-0.0653 -0.0493,-0.35464 -0.0544,-0.64291 -0.0157,-0.88854 -0.23058,-2.57464 -0.37091,-2.91051 l -0.076,-0.18181 h -0.52123 c -0.28667,0 -0.64049,-0.0234 -0.78628,-0.0519 -0.14578,-0.0286 -0.40875,-0.0677 -0.58437,-0.087 -0.17562,-0.0193 -0.34886,-0.0668 -0.38497,-0.10541 -0.0361,-0.0387 -0.10784,-0.0593 -0.15939,-0.0458 -0.23045,0.0603 -0.68224,-0.14759 -1.05556,-0.48564 -0.34285,-0.31047 -0.3728,-0.35548 -0.3728,-0.56039 0,-0.28963 0.17005,-0.58372 0.45528,-0.78736 0.19538,-0.13949 0.28419,-0.16442 0.61823,-0.17352 0.26952,-0.007 0.46689,0.0204 0.63861,0.0896 0.13669,0.0551 0.34795,0.11593 0.46945,0.13512 0.12151,0.0192 0.37004,0.0694 0.5523,0.1115 0.52583,0.12157 0.91098,0.15091 0.9131,0.0695 10e-4,-0.0381 0.11799,-0.16876 0.25998,-0.29027 0.2482,-0.21239 0.27318,-0.22092 0.64714,-0.22092 0.34016,0 0.44369,0.0269 0.82506,0.21447 l 0.43609,0.21446 0.64422,-0.0377 c 0.35433,-0.0207 0.79185,-0.0585 0.97227,-0.084 0.18042,-0.0255 0.76128,-0.0343 1.29079,-0.0196 0.87949,0.0245 0.98935,0.0388 1.27028,0.16621 0.26464,0.11998 0.51769,0.33687 0.82498,0.70712 0.0944,0.11376 0.058,0.59213 -0.0532,0.69994 -0.13612,0.13187 -0.74745,0.3759 -0.94055,0.37544 -0.10252,-2.2e-4 -0.47561,-0.0365 -0.82908,-0.0806 -0.64865,-0.0809 -1.07771,-0.0653 -2.0648,0.075 -0.60582,0.0861 -0.56745,0.0304 -0.48601,0.70613 0.0388,0.32242 0.0834,0.6264 0.099,0.6755 0.0356,0.11226 0.0718,0.49197 0.11105,1.16502 0.0168,0.28858 0.042,0.59924 0.056,0.69037 0.014,0.0911 0.0403,0.41423 0.0585,0.71799 0.0435,0.72627 0.11408,1.62546 0.18578,2.36602 0.053,0.54754 0.0488,0.61871 -0.0489,0.83322 -0.16232,0.35632 -0.19672,0.37468 -0.94076,0.50213 -0.0759,0.013 -0.18778,10e-4 -0.24854,-0.0265 z m 14.08246,-0.55625 c -0.0182,-0.0294 -0.11692,-0.0534 -0.21947,-0.0534 -0.23334,0 -0.42192,-0.0703 -0.58877,-0.2196 -0.0713,-0.0637 -0.20636,-0.18331 -0.30025,-0.26571 l -0.17069,-0.14983 0.0366,-0.46945 c 0.0201,-0.2582 0.0648,-0.58129 0.0993,-0.71799 0.12811,-0.5081 0.23309,-1.04204 0.23309,-1.18555 0,-0.0814 0.0471,-0.35123 0.10475,-0.59963 0.0576,-0.24839 0.13421,-0.60074 0.17023,-0.783 0.036,-0.18226 0.089,-0.43828 0.11769,-0.56894 0.0287,-0.13065 0.0414,-0.25508 0.0281,-0.27651 -0.0132,-0.0214 0.0245,-0.26247 0.0839,-0.53566 0.0594,-0.27318 0.11619,-0.63403 0.12629,-0.80188 0.0101,-0.16785 0.0502,-0.4475 0.0891,-0.62144 0.0544,-0.24297 0.0559,-0.34885 0.007,-0.45683 -0.0757,-0.16609 -0.0809,-0.5853 -0.0131,-1.04665 0.0698,-0.47452 0.0666,-0.46714 0.29801,-0.69658 0.35178,-0.34879 0.73896,-0.34514 1.60742,0.0151 0.14952,0.062 0.31784,0.16617 0.37405,0.23142 0.14897,0.17293 0.32062,0.51217 0.32062,0.63367 0,0.0579 0.0512,0.17036 0.11387,0.24998 0.13453,0.17102 0.5712,0.99756 0.63168,1.19564 0.0232,0.0759 0.0895,0.20532 0.14739,0.28752 0.0579,0.0822 0.1336,0.23131 0.16827,0.33137 0.0932,0.26916 0.74414,1.35424 1.00808,1.68054 0.12614,0.15595 0.3397,0.44832 0.47457,0.64972 0.33368,0.49825 0.4044,0.47243 0.42679,-0.15586 0.01,-0.27043 0.0411,-0.5357 0.0699,-0.58949 0.0689,-0.12867 0.0666,-0.36186 -0.005,-0.49531 -0.0399,-0.0745 -0.0389,-0.14103 0.003,-0.21994 0.0333,-0.0622 0.0686,-0.25482 0.0784,-0.42803 0.01,-0.1732 0.0311,-0.3522 0.0472,-0.39776 0.11264,-0.31798 0.17977,-2.04387 0.0819,-2.10551 -0.10126,-0.0638 0.0611,-0.2594 0.4392,-0.52921 0.32696,-0.23331 0.41288,-0.26803 0.73107,-0.29542 0.32599,-0.0281 0.38608,-0.0161 0.62679,0.1249 0.14642,0.0858 0.29317,0.13928 0.3261,0.11892 0.0357,-0.0221 0.044,-0.0113 0.0205,0.0268 -0.0217,0.0351 -0.0132,0.0638 0.0189,0.0638 0.0321,0 0.1563,0.0885 0.27603,0.19668 l 0.2177,0.19668 -0.0174,0.47988 c -0.0186,0.51221 -0.0731,0.83888 -0.13992,0.83888 -0.0226,0 -0.0406,0.0684 -0.04,0.15189 0.002,0.25213 -0.0661,1.00869 -0.0945,1.05466 -0.0146,0.0236 -0.0413,0.30237 -0.0593,0.61945 -0.018,0.31707 -0.0556,0.70076 -0.0834,0.85264 -0.0278,0.15189 -0.0485,0.37557 -0.0458,0.49707 0.005,0.21968 -0.0893,1.35043 -0.15628,1.87781 -0.0491,0.38692 -0.0542,0.85603 -0.009,0.85605 0.0674,2e-5 0.0117,0.24325 -0.10939,0.47793 -0.12613,0.24443 -0.42121,0.51759 -0.70416,0.65186 -0.29117,0.13817 -0.92988,0.0366 -1.33237,-0.21179 -0.17821,-0.11 -0.35171,-0.2 -0.38555,-0.2 -0.07,0 -0.26659,-0.21988 -0.81997,-0.91715 -0.21263,-0.26792 -0.47022,-0.57503 -0.57242,-0.68247 -0.10219,-0.10744 -0.26595,-0.32004 -0.36389,-0.47245 -0.0979,-0.15241 -0.21316,-0.31395 -0.25603,-0.35899 -0.0429,-0.045 -0.18978,-0.22877 -0.32648,-0.40828 -0.22069,-0.28982 -0.3207,-0.43752 -0.70436,-1.0402 -0.0531,-0.0833 -0.12347,-0.15169 -0.15647,-0.15188 -0.0719,-4.4e-4 -0.29015,0.96683 -0.41109,1.82223 -0.0236,0.16707 -0.0727,0.4156 -0.10905,0.5523 -0.0766,0.2879 -0.1367,0.6652 -0.25198,1.58117 -0.0222,0.17603 -0.0862,0.28634 -0.28073,0.48368 -0.13861,0.1406 -0.3053,0.26624 -0.37042,0.27919 -0.35229,0.0701 -0.47634,0.0772 -0.50611,0.029 z m -5.35904,-0.20225 c -0.0418,-0.0418 -0.0956,-0.0769 -0.11942,-0.0779 -0.0239,-0.001 -0.16979,-0.0742 -0.32428,-0.16258 -0.27715,-0.15857 -0.2818,-0.16567 -0.34981,-0.53464 -0.0511,-0.27712 -0.0546,-0.50265 -0.0135,-0.87101 0.0305,-0.27339 0.0829,-0.77046 0.11645,-1.10459 0.0336,-0.33414 0.0853,-0.74572 0.11489,-0.91462 0.0296,-0.1689 0.0539,-0.39274 0.0539,-0.49743 0,-0.10469 0.0254,-0.27717 0.0565,-0.38328 0.10686,-0.36516 0.30067,-3.47911 0.21654,-3.47911 -0.0671,0 -0.10571,-0.40485 -0.0455,-0.47735 0.032,-0.0386 0.0414,-0.0972 0.0209,-0.13038 -0.0205,-0.0332 -0.008,-0.18412 0.0288,-0.3355 0.0502,-0.2094 0.11311,-0.31115 0.26289,-0.42541 0.1738,-0.13258 0.24914,-0.15109 0.64304,-0.15798 0.24538,-0.004 0.45858,0.0111 0.47377,0.0343 0.0152,0.0232 0.17946,0.11846 0.36504,0.21179 0.25977,0.13064 0.37779,0.23258 0.51278,0.44296 l 0.17536,0.27327 -0.0306,1.29009 c -0.0168,0.70955 -0.0534,1.36466 -0.0813,1.45578 -0.0279,0.0911 -0.064,0.59859 -0.08,1.12769 -0.0161,0.5291 -0.0536,0.9863 -0.0833,1.016 -0.0297,0.0297 -0.04,0.12416 -0.0228,0.20993 0.0172,0.0858 0.013,0.20019 -0.009,0.25428 -0.0222,0.0541 -0.0458,0.17292 -0.0524,0.26405 -0.007,0.0911 -0.0413,0.43907 -0.077,0.77321 -0.0358,0.33414 -0.0607,0.83121 -0.0554,1.1046 0.0135,0.69741 5.6e-4,0.73931 -0.29461,0.95122 -0.24455,0.17563 -0.28663,0.18637 -0.79186,0.20206 -0.39719,0.0123 -0.55303,-0.003 -0.60962,-0.0594 z m -46.14153,-5.12886 c 0,-0.0474 0.0249,-0.0707 0.0552,-0.052 0.0304,0.0188 0.0552,0.0575 0.0552,0.0861 0,0.0286 -0.0249,0.052 -0.0552,0.052 -0.0304,0 -0.0552,-0.0388 -0.0552,-0.0861 z m -72.26804,-8.87073 c -0.51049,-0.16359 -0.688838,-0.2113 -0.789857,-0.2113 -0.06175,0 -0.232389,-0.0524 -0.379195,-0.11641 -0.248989,-0.10859 -0.387502,-0.11803 -2.061885,-0.14064 -0.98723,-0.0133 -1.870851,-0.0482 -1.963601,-0.0776 -0.244297,-0.0773 -0.706933,-0.38764 -0.8742,-0.58643 -0.155336,-0.18461 -0.155178,-0.38014 5.58e-4,-0.6901 0.234094,-0.46591 0.246066,-0.58894 0.266585,-2.73945 0.01093,-1.146 0.03172,-2.14577 0.04619,-2.22171 0.180084,-0.9449 0.332617,-4.06324 0.202681,-4.14354 -0.04853,-0.03 -0.04651,-0.0724 0.0082,-0.17116 0.05567,-0.1006 0.07669,-0.63471 0.08991,-2.28525 0.0095,-1.18467 0.02136,-2.24191 0.02636,-2.34941 0.005,-0.10749 -0.0098,-0.22598 -0.03284,-0.2633 -0.02306,-0.0373 -0.02513,-0.20236 -0.0046,-0.36676 0.04931,-0.39469 0.221413,-0.5534 0.692802,-0.63888 0.189135,-0.0343 0.474367,-0.13199 0.633848,-0.21709 0.206191,-0.11003 0.415163,-0.16723 0.723314,-0.19798 0.238342,-0.0238 0.483056,-0.0517 0.543808,-0.0621 0.364083,-0.0623 1.641832,-0.0828 1.778882,-0.0285 0.202875,0.0803 0.788336,0.0956 1.51374,0.0395 0.558434,-0.0432 0.600531,-0.0388 0.883675,0.0926 0.16352,0.0759 0.363093,0.16459 0.443498,0.19719 0.194578,0.0789 0.42304,0.39186 0.411618,0.56389 -0.0081,0.12189 -0.06945,0.29518 -0.193772,0.54729 -0.03551,0.072 -0.299599,0.17516 -0.86846,0.3392 -0.228829,0.066 -0.71999,0.0379 -1.925682,-0.11026 -0.684687,-0.0841 -1.091789,-0.10351 -1.213868,-0.0578 -0.06141,0.023 -0.304774,0.0863 -0.540821,0.14067 -0.44057,0.10151 -0.572749,0.18404 -0.51901,0.32408 0.01688,0.044 0.0017,0.0896 -0.03369,0.10144 -0.04776,0.0159 -0.04916,0.071 -0.0054,0.21362 0.03712,0.12096 0.0421,0.30361 0.01343,0.49298 -0.05477,0.36179 -0.1293,2.13128 -0.130141,3.08993 l -6.08e-4,0.69037 0.221985,0.005 c 0.122092,0.003 0.279378,0.0358 0.349525,0.0733 0.393846,0.21078 0.676008,0.24348 2.0519,0.23782 1.051525,-0.004 1.42699,0.0134 1.684506,0.0794 0.439363,0.1126 0.684556,0.2326 0.875411,0.42842 0.135205,0.13873 0.152693,0.19112 0.123901,0.37117 -0.07062,0.44166 -0.110602,0.48044 -0.763651,0.74081 -0.303019,0.12082 -0.368335,0.12529 -1.518816,0.10409 -1.266683,-0.0233 -1.78031,-0.0532 -2.27916,-0.13246 -0.16707,-0.0265 -0.42803,-0.0628 -0.579912,-0.0805 l -0.276148,-0.0322 -9.45e-4,0.81471 c -4.97e-4,0.44808 -0.03365,1.12537 -0.07363,1.50507 -0.10923,1.03739 -0.115345,1.16988 -0.13319,2.88576 l -0.01651,1.58785 h 0.181178 c 0.09965,0 0.181149,0.0186 0.181115,0.0414 -3.4e-5,0.0228 0.261836,0.0329 0.581933,0.0225 0.365175,-0.0118 0.608917,0.004 0.654259,0.0411 0.03975,0.033 0.293584,0.0712 0.564084,0.0848 0.574753,0.029 0.818361,0.0718 1.037582,0.1822 0.108513,0.0546 0.236044,0.0686 0.400789,0.0439 0.132897,-0.0199 0.322237,-0.01 0.420755,0.0224 0.09852,0.0323 0.283397,0.0841 0.410842,0.11522 0.243917,0.0596 0.811588,0.5236 0.871517,0.71242 0.08676,0.27335 -0.278473,0.69697 -0.784001,0.90933 -0.352976,0.14828 -0.636224,0.17257 -0.926761,0.0795 z m 4.280301,-0.59714 c -0.516694,-0.2482 -0.766195,-0.5841 -0.669023,-0.9007 0.09866,-0.32145 0.221972,-0.83839 0.220089,-0.92264 -0.0019,-0.0829 0.184698,-1.13387 0.284308,-1.60167 0.02911,-0.13669 0.067,-0.58405 0.0842,-0.99413 0.0172,-0.41008 0.05737,-0.89472 0.08926,-1.07698 0.07205,-0.41179 0.09025,-0.5627 0.126506,-1.04936 0.0392,-0.52618 0.06741,-0.71652 0.137797,-0.92979 0.03297,-0.0999 0.08441,-0.40997 0.114319,-0.68908 0.02991,-0.27911 0.07885,-0.73584 0.108761,-1.01495 0.02991,-0.27911 0.08138,-0.58929 0.114387,-0.68929 0.033,-0.1 0.04367,-0.20825 0.02371,-0.24055 -0.01996,-0.0323 -0.01212,-0.0887 0.01743,-0.12534 0.02955,-0.0366 0.06695,-0.30273 0.08312,-0.5913 0.01617,-0.28858 0.05541,-0.77322 0.0872,-1.07698 0.04929,-0.47104 0.08879,-1.80009 0.06402,-2.15396 -0.0089,-0.12694 0.05374,-1.81155 0.07471,-2.00953 0.0077,-0.0724 0.05559,-0.16218 0.106491,-0.1994 0.0509,-0.0372 0.09254,-0.0974 0.09254,-0.13367 0,-0.0363 0.139165,-0.12972 0.309256,-0.20759 0.237193,-0.10859 0.362673,-0.13426 0.538492,-0.11016 0.303741,0.0416 0.382802,0.0601 0.457572,0.10684 0.0982,0.0614 0.529868,0.0591 0.687919,-0.004 0.224542,-0.0892 1.257829,-0.0182 1.458616,0.10026 0.09113,0.0537 0.252676,0.11526 0.358993,0.13672 0.186433,0.0376 0.665915,0.20114 1.45121,0.49489 0.42687,0.15968 0.766577,0.32558 0.878268,0.42891 0.04212,0.039 0.173979,0.12056 0.293015,0.18131 0.145083,0.074 0.295093,0.22881 0.455038,0.46946 0.131231,0.19744 0.280103,0.39006 0.330826,0.42803 0.05072,0.038 0.07296,0.069 0.04941,0.069 -0.02354,0 0.03075,0.0932 0.120649,0.20711 0.166611,0.21109 0.563807,0.99899 0.563807,1.11838 0,0.0362 0.04633,0.13178 0.102953,0.21241 0.05663,0.0806 0.267334,0.47876 0.468232,0.88473 0.200898,0.40596 0.425716,0.79119 0.499591,0.85606 0.194199,0.17051 0.391071,0.56508 0.472198,0.94638 0.03878,0.18226 0.09049,0.39351 0.114916,0.46945 0.02443,0.0759 0.03953,0.68485 0.03358,1.35313 -0.0092,1.02815 -0.02541,1.24224 -0.10555,1.3918 -0.0521,0.0972 -0.09472,0.24341 -0.09472,0.32486 0,0.0815 -0.04924,0.22779 -0.109432,0.32518 -0.06019,0.0974 -0.144387,0.34381 -0.187107,0.54762 -0.04272,0.2038 -0.117965,0.41507 -0.167202,0.46948 -0.04924,0.0544 -0.160912,0.3101 -0.248158,0.56821 -0.09229,0.27303 -0.219124,0.52979 -0.303278,0.61394 -0.07956,0.0796 -0.145198,0.17684 -0.145872,0.2162 -6.63e-4,0.0393 -0.05162,0.13368 -0.113216,0.20962 -0.06159,0.0759 -0.175967,0.23748 -0.254161,0.35899 -0.27891,0.4334 -0.576372,0.78953 -0.682672,0.81733 -0.05939,0.0155 -0.124775,0.0741 -0.145287,0.13014 -0.04166,0.11383 -0.23941,0.38568 -0.23941,0.32913 0,-0.0199 -0.192614,0.11016 -0.42803,0.28905 -0.235417,0.17889 -0.490164,0.34392 -0.566104,0.36673 -0.07594,0.0228 -0.324475,0.136 -0.552297,0.25154 -0.417658,0.21181 -0.655952,0.27438 -1.463587,0.38427 -0.243011,0.0331 -0.740078,0.11974 -1.104594,0.19261 -0.364516,0.0729 -0.898863,0.161 -1.187438,0.19586 -0.523097,0.0632 -1.252824,0.23149 -1.441514,0.33247 -0.05468,0.0293 -0.280843,0.0671 -0.502584,0.0841 -0.371152,0.0284 -0.431669,0.0172 -0.762157,-0.14154 z m 2.560647,-2.01787 c 0.475589,-0.0285 1.043852,-0.12257 1.298566,-0.21492 0.132922,-0.0482 0.296098,-0.0876 0.362616,-0.0876 0.06652,0 0.38182,-0.0846 0.700666,-0.1879 0.65044,-0.21082 1.149661,-0.5217 1.535662,-0.9563 0.129038,-0.14529 0.291833,-0.32629 0.361765,-0.40223 0.14357,-0.15591 0.376059,-0.5523 0.323933,-0.5523 -0.01877,0 0.02563,-0.047 0.09866,-0.10444 0.144487,-0.11365 0.64246,-1.16672 0.792839,-1.67661 0.0515,-0.17461 0.116187,-0.33141 0.143752,-0.34845 0.02757,-0.017 0.05012,-0.19269 0.05012,-0.39034 0,-0.19765 0.02197,-0.40122 0.04882,-0.45239 0.02685,-0.0512 0.06369,-0.25456 0.08187,-0.45201 0.01818,-0.19745 0.03927,-0.39627 0.04687,-0.44184 0.025,-0.14993 -0.07212,-0.74108 -0.161265,-0.98156 -0.04811,-0.12977 -0.07294,-0.25047 -0.0552,-0.26822 0.01775,-0.0178 0.0079,-0.0607 -0.0218,-0.0954 -0.09476,-0.11068 -0.602043,-1.02865 -0.602043,-1.08945 0,-0.0322 -0.146182,-0.32388 -0.32485,-0.64829 -0.178668,-0.32441 -0.380466,-0.72652 -0.448443,-0.89359 -0.191514,-0.47072 -0.286719,-0.6783 -0.340386,-0.74217 -0.02711,-0.0323 -0.193983,-0.25898 -0.370828,-0.5038 -0.348826,-0.4829 -0.552645,-0.67232 -0.775077,-0.7203 -0.234378,-0.0506 -0.742365,-0.19534 -0.860893,-0.24535 -0.06075,-0.0256 -0.247153,-0.0628 -0.414223,-0.0825 -0.167069,-0.0197 -0.375926,-0.0708 -0.464128,-0.11356 -0.319719,-0.15484 -0.346848,-0.12605 -0.382234,0.4056 -0.01768,0.26579 -0.03368,0.81779 -0.03553,1.22666 -0.0019,0.40887 -0.02682,0.89351 -0.05548,1.07698 -0.02866,0.18346 -0.06661,0.55725 -0.08432,0.83064 -0.04793,0.73974 -0.123289,1.48022 -0.160177,1.57405 -0.03408,0.0867 -0.143846,0.7405 -0.148352,0.88367 -0.0116,0.36835 -0.124449,1.4359 -0.163469,1.54643 -0.02681,0.0759 -0.07695,0.38661 -0.111415,0.69038 -0.03447,0.30376 -0.07505,0.61443 -0.09017,0.69037 -0.01513,0.0759 -0.0323,0.47359 -0.03816,0.88367 -0.0083,0.57941 -0.03186,0.78778 -0.10576,0.93484 -0.0523,0.10409 -0.08033,0.23576 -0.06229,0.29261 0.01804,0.0568 0.0034,0.13875 -0.03245,0.18199 -0.091,0.10965 -0.1744,0.44515 -0.191949,0.77213 -0.0082,0.15189 -0.03387,0.38458 -0.05717,0.5171 l -0.04235,0.24095 0.235304,-0.0397 c 0.129415,-0.0219 0.362953,-0.0474 0.518977,-0.0568 z m -17.691221,0.92693 c -0.218481,-0.0265 -0.843241,-0.49368 -0.995965,-0.74481 -0.08607,-0.14154 -0.85388,-1.00716 -1.82311,-2.05536 -0.510063,-0.55163 -3.942006,-4.0075 -3.979748,-4.0075 -0.01726,0 -0.03741,0.11645 -0.04477,0.25878 -0.0074,0.14233 -0.02189,0.27281 -0.03227,0.28996 -0.01038,0.0171 -0.03571,0.42883 -0.05629,0.91485 -0.03153,0.74471 -0.02354,0.91644 0.05083,1.09204 0.06289,0.14851 0.07253,0.23774 0.03355,0.31057 -0.0376,0.0703 -0.02768,0.26407 0.03173,0.62007 0.04753,0.28484 0.08748,0.67466 0.08877,0.86627 0.0022,0.31944 -0.0125,0.36371 -0.176411,0.53282 -0.09832,0.10143 -0.219852,0.17787 -0.270074,0.16986 -0.05022,-0.008 -0.181847,0.031 -0.2925,0.0866 -0.152857,0.0769 -0.269334,0.0931 -0.484873,0.0676 -0.156027,-0.0185 -0.296854,-0.0549 -0.312948,-0.0809 -0.01609,-0.026 -0.08371,-0.0476 -0.150268,-0.0479 -0.143979,-7e-4 -0.64569,-0.44619 -0.64569,-0.57334 0,-0.0489 -0.02746,-0.0888 -0.06103,-0.0888 -0.04011,0 -0.04982,-0.0805 -0.02831,-0.23472 0.018,-0.1291 0.03524,-0.93062 0.03832,-1.78116 0.0036,-0.9837 0.03303,-1.73736 0.08099,-2.07112 0.174222,-1.2125 0.209056,-1.47469 0.223801,-1.6845 0.0085,-0.12151 0.02694,-0.38247 0.04088,-0.57991 0.01395,-0.19745 0.03092,-0.66966 0.03773,-1.04937 0.0068,-0.3797 0.03514,-0.78346 0.06298,-0.89725 0.03294,-0.13462 0.03055,-0.24437 -0.0068,-0.31422 -0.04067,-0.076 -0.03941,-0.11848 0.0043,-0.1455 0.03731,-0.0231 0.05116,-0.13216 0.03498,-0.27567 -0.01552,-0.13769 -7.9e-4,-0.2635 0.03505,-0.29935 0.07852,-0.0786 0.08101,-4.10006 0.0026,-4.12621 -0.07743,-0.0258 -0.02321,-0.51857 0.07326,-0.6658 0.0461,-0.0704 0.09637,-0.11538 0.111703,-0.10004 0.03219,0.0322 0.343763,-0.14198 0.343763,-0.19217 0,-0.0567 0.55753,-0.0623 0.625939,-0.006 0.03544,0.029 0.166228,0.08 0.290646,0.11324 0.316398,0.0846 0.675496,0.35743 0.715341,0.54355 0.01794,0.0838 0.06901,0.25479 0.113476,0.37996 0.06452,0.18161 0.06861,0.282 0.02024,0.49707 -0.0376,0.16718 -0.05874,0.92395 -0.05567,1.99333 0.0028,0.97491 -0.02052,1.88322 -0.05367,2.09069 -0.04459,0.27914 -0.04257,0.38616 0.0085,0.44766 0.05805,0.0699 0.07504,0.0668 0.126247,-0.0232 0.07621,-0.13396 0.884684,-0.8976 0.950296,-0.8976 0.02741,0 0.2462,-0.19883 0.48619,-0.44184 0.23999,-0.24301 0.455086,-0.44183 0.477992,-0.44183 0.02291,0 0.118113,-0.0643 0.211572,-0.14299 0.09346,-0.0786 0.169927,-0.12495 0.169927,-0.1029 0,0.022 0.122696,-0.0747 0.272658,-0.21496 0.149963,-0.14027 0.429352,-0.35631 0.620867,-0.4801 0.191514,-0.12378 0.368293,-0.26094 0.392842,-0.30481 0.02455,-0.0439 0.06798,-0.0798 0.09652,-0.0798 0.02854,0 0.362002,-0.20907 0.741029,-0.46459 0.629859,-0.42463 0.91132,-0.57971 1.714545,-0.9447 0.702017,-0.31899 0.994582,-0.34905 1.568909,-0.1612 0.193561,0.0633 0.35198,0.17103 0.527497,0.35867 0.137971,0.1475 0.250856,0.29437 0.250856,0.32638 0,0.16771 -0.258051,0.57671 -0.436324,0.69155 -0.24064,0.15501 -0.763796,0.30911 -1.108619,0.32655 -0.165123,0.008 -0.357846,0.0732 -0.555229,0.18685 -0.166276,0.0957 -0.418725,0.23077 -0.560998,0.30007 -0.142273,0.0693 -0.284648,0.18194 -0.316387,0.25029 -0.03174,0.0683 -0.08261,0.12426 -0.113049,0.12426 -0.03044,0 -0.194671,0.0932 -0.364963,0.20712 -0.170293,0.11391 -0.414885,0.26924 -0.54354,0.34518 -0.128655,0.0759 -0.328429,0.23059 -0.443944,0.34365 -0.115515,0.11307 -0.260636,0.22164 -0.322492,0.24128 -0.102106,0.0324 -0.369019,0.28314 -0.851369,0.79977 -0.09723,0.10414 -0.3147,0.3201 -0.483259,0.47991 -0.168559,0.15982 -0.306471,0.31434 -0.306471,0.34339 0,0.029 -0.161547,0.2073 -0.358993,0.39611 -0.197446,0.18881 -0.358993,0.36373 -0.358993,0.38871 0,0.025 -0.14912,0.1983 -0.331378,0.38514 -0.182258,0.18684 -0.331378,0.37417 -0.331378,0.41628 0,0.10425 0.319465,0.44826 1.71106,1.84255 1.131275,1.13347 2.62494,2.68283 3.266514,3.38832 0.163274,0.17954 0.421128,0.45809 0.573009,0.619 0.151882,0.16092 0.329615,0.34954 0.394963,0.41917 0.06535,0.0696 0.332326,0.31096 0.593285,0.5363 0.471518,0.40714 0.696258,0.72753 0.696258,0.99258 0,0.0762 -0.121515,0.25213 -0.31217,0.45201 l -0.312171,0.32728 -0.419623,-0.009 c -0.230792,-0.005 -0.505547,-0.0192 -0.610566,-0.032 z m 57.834973,-0.40378 c -0.42995,-0.24657 -0.48508,-0.39538 -0.40064,-1.08134 0.14258,-1.15825 0.11359,-2.31635 -0.13876,-5.54207 l -0.0395,-0.50528 -0.39303,-0.39704 c -0.21616,-0.21837 -0.56683,-0.65799 -0.77926,-0.97692 -0.21244,-0.31894 -0.40505,-0.58817 -0.42803,-0.59829 -0.023,-0.0101 -0.0418,-0.0429 -0.0418,-0.0729 0,-0.03 -0.11648,-0.24537 -0.258851,-0.47866 -0.6219,-1.01907 -1.12433,-2.01463 -1.31502,-2.60574 -0.0833,-0.2582 -0.17925,-0.54401 -0.21324,-0.63514 -0.0662,-0.17749 -0.0757,-0.23976 -0.124,-0.81419 l -0.0313,-0.37235 0.23053,-0.23517 c 0.22215,-0.22663 0.24289,-0.23515 0.5708,-0.23441 0.18714,4.4e-4 0.52666,0.0449 0.75449,0.0988 0.332061,0.0786 0.463521,0.14231 0.662751,0.32136 0.1367,0.12283 0.21126,0.20409 0.16569,0.18057 -0.0703,-0.0363 -0.0718,-0.0291 -0.01,0.0472 0.0401,0.0495 0.10735,0.28415 0.14942,0.52147 0.10511,0.59298 0.14242,0.73525 0.1928,0.73525 0.0238,0 0.0734,0.13048 0.11024,0.28996 0.0368,0.15947 0.10736,0.35209 0.15676,0.42803 0.0494,0.0759 0.19633,0.34933 0.32652,0.60752 0.32353,0.64162 0.5095,0.96304 0.56985,0.98493 0.0279,0.0101 0.0508,0.0425 0.0508,0.072 0,0.0295 0.0567,0.13703 0.12605,0.23905 0.0966,0.14223 0.14681,0.17388 0.21506,0.13568 0.0928,-0.052 0.32165,-0.44969 0.32165,-0.55909 0,-0.12788 1.16912,-2.51574 1.26548,-2.58465 0.0212,-0.0152 0.12937,-0.19433 0.2403,-0.3981 0.11093,-0.20376 0.25244,-0.42123 0.31447,-0.48326 0.062,-0.062 0.11278,-0.16057 0.11278,-0.21898 0,-0.0692 0.11054,-0.17596 0.31757,-0.3066 0.29214,-0.18435 0.34411,-0.19858 0.64895,-0.17768 0.49528,0.034 1.09103,0.18748 1.1523,0.29697 0.029,0.0518 0.10732,0.14519 0.17412,0.20762 0.1653,0.15449 0.22728,0.5783 0.11511,0.78712 -0.0457,0.0852 -0.26851,0.34975 -0.49504,0.58799 -0.22654,0.23824 -0.49201,0.58619 -0.58993,0.77322 -0.0979,0.18703 -0.26055,0.46679 -0.36138,0.62169 -0.28212,0.43336 -0.86597,1.80708 -1.01876,2.397 -0.0354,0.1367 -0.0961,0.31067 -0.13495,0.38661 -0.0902,0.17637 -0.1946,0.61783 -0.1946,0.82249 0,0.087 -0.0404,0.25439 -0.0898,0.37201 -0.087,0.20716 -0.0863,0.63893 0.003,1.87075 0.009,0.1215 0.0323,0.58129 0.0521,1.02175 0.0198,0.44046 0.0515,1.13635 0.0702,1.54643 0.0188,0.41008 0.0398,1.10597 0.0468,1.54643 0.0111,0.70134 -8.8e-4,0.82885 -0.0966,1.02635 -0.0601,0.12404 -0.16168,0.25826 -0.22575,0.29827 -0.20103,0.12555 -0.65629,0.2205 -1.05788,0.22064 -0.32956,1.1e-4 -0.42967,-0.0246 -0.67852,-0.16727 z m -71.952309,-0.22811 c -0.09225,-0.0539 -0.226375,-0.10474 -0.298061,-0.11304 -0.07749,-0.009 -0.26558,-0.16066 -0.463857,-0.37408 -0.183436,-0.19745 -0.356237,-0.37466 -0.384002,-0.39381 -0.0485,-0.0334 -0.187382,-0.47507 -0.241883,-0.76916 -0.01576,-0.085 0.0064,-0.16824 0.05568,-0.20914 0.04501,-0.0374 0.07046,-0.11148 0.05653,-0.16472 -0.01403,-0.0536 0.02544,-0.14272 0.08855,-0.19983 0.129687,-0.11737 0.149161,-0.43519 0.0611,-0.99721 -0.02856,-0.18226 -0.06726,-0.75389 -0.08602,-1.27028 -0.03365,-0.92664 -0.07187,-1.68595 -0.08758,-1.73974 -0.0044,-0.0152 -0.0026,-0.25751 0.0041,-0.53849 0.0082,-0.34183 -0.0079,-0.51087 -0.04848,-0.51087 -0.08995,0 -0.07361,-0.14892 0.02028,-0.18495 0.06897,-0.0265 0.08033,-0.29683 0.07663,-1.82371 -0.0024,-0.98596 0.01179,-1.81874 0.0315,-1.85064 0.04928,-0.0797 0.140721,-2.185 0.09565,-2.20212 -0.01993,-0.008 -0.02758,-0.36427 -0.017,-0.79265 0.01275,-0.5166 -0.0012,-0.7993 -0.04142,-0.83953 -0.03336,-0.0334 -0.06065,-0.19432 -0.06065,-0.35769 0,-0.27798 0.01496,-0.31098 0.233108,-0.5144 0.232395,-0.21671 0.489663,-0.3254 0.771575,-0.32599 0.08174,-1.6e-4 0.162446,0.0221 0.179342,0.0494 0.0169,0.0273 0.114205,0.0497 0.216241,0.0497 0.200991,0 0.470393,0.11787 0.584981,0.25594 0.03948,0.0476 0.101682,0.0865 0.138232,0.0865 0.03655,0 0.124256,0.0615 0.194904,0.13673 0.126135,0.13427 0.127572,0.14894 0.07978,0.81464 -0.04047,0.56367 -0.05107,1.29649 -0.028,1.93438 0.0089,0.24553 -0.05705,1.17537 -0.0891,1.25648 -0.018,0.0456 -0.03878,0.69175 -0.04617,1.43597 -0.0074,0.74422 -0.02835,2.3944 -0.04657,3.66706 -0.02621,1.83092 -0.01624,2.4743 0.04775,3.08215 0.04448,0.42252 0.09359,0.78878 0.109129,0.81392 0.01554,0.0251 0.05568,0.22879 0.0892,0.45256 0.03352,0.22376 0.06667,0.44412 0.07366,0.48968 0.007,0.0456 0.02751,0.12013 0.04561,0.16569 0.0181,0.0456 0.04721,0.22222 0.06469,0.39256 0.04423,0.43093 -0.122656,0.75453 -0.438242,0.84981 -0.120704,0.0364 -0.344123,0.12714 -0.496487,0.20155 -0.270683,0.1322 -0.280866,0.13305 -0.44475,0.0373 z m 109.800399,-0.0588 c -0.6656,-0.11616 -0.89515,-0.17454 -1.06822,-0.2717 -0.1015,-0.057 -0.22576,-0.11076 -0.27614,-0.11952 -0.0971,-0.0169 -0.21569,-0.0809 -1.30666,-0.70511 -0.24301,-0.13905 -0.48787,-0.2695 -0.54414,-0.28989 -0.13618,-0.0494 -0.76526,-0.48506 -0.84217,-0.58331 -0.0334,-0.0427 -0.10964,-0.0813 -0.16934,-0.0857 -0.15932,-0.0117 -0.37417,-0.16841 -1.19527,-0.8716 -1.21882,-1.0438 -1.52859,-1.68237 -1.54509,-3.18507 -0.007,-0.66665 -6.6e-4,-0.71033 0.15999,-1.05445 0.0922,-0.19745 0.19952,-0.44598 0.2385,-0.5523 0.039,-0.10632 0.10438,-0.26786 0.14533,-0.35899 0.041,-0.0911 0.1408,-0.33966 0.22188,-0.5523 0.14573,-0.38219 0.57163,-1.23872 0.81863,-1.64636 0.3222,-0.53175 1.01094,-1.07262 1.96608,-1.54395 0.3797,-0.18737 0.71054,-0.33478 0.7352,-0.32759 0.0247,0.007 0.29805,-0.0971 0.60752,-0.23178 0.33623,-0.14631 0.72377,-0.26953 0.96288,-0.30615 0.2201,-0.0337 0.56583,-0.0892 0.76829,-0.1232 0.22096,-0.0372 0.61056,-0.048 0.9746,-0.0272 0.54362,0.0311 0.6386,0.0527 0.91622,0.2087 0.17034,0.0957 0.32215,0.18979 0.33734,0.20908 0.0152,0.0193 0.095,0.0647 0.17741,0.10086 0.20035,0.088 0.52081,0.53197 0.62121,0.86067 0.0447,0.14627 0.23486,0.55635 0.42263,0.91129 0.18777,0.35494 0.50698,0.96844 0.70936,1.36334 0.43135,0.84164 0.75898,1.4115 1.08958,1.8951 0.1311,0.19178 0.23836,0.37622 0.23836,0.40988 0,0.0337 0.0388,0.10404 0.0862,0.15641 0.12585,0.13905 0.13817,1.05383 0.0182,1.35046 -0.11457,0.28326 -0.26922,0.72666 -0.32712,0.9379 -0.14968,0.54603 -0.69358,1.6986 -1.1856,2.51237 -0.21772,0.36011 -1.29624,1.602 -1.39163,1.60245 -0.0244,1.1e-4 -0.13133,0.0542 -0.23764,0.12014 -0.11505,0.0714 -0.26448,0.11444 -0.36912,0.10634 -0.0967,-0.007 -0.22819,0.0144 -0.2922,0.0487 -0.14694,0.0786 -1.09949,0.10625 -1.46503,0.0425 z m 0.7214,-1.85704 c 0.3559,-0.16837 0.50621,-0.33772 1.01132,-1.13943 0.33285,-0.52828 0.77139,-1.47133 0.84416,-1.81528 0.033,-0.15589 0.0942,-0.35056 0.13609,-0.43258 0.0419,-0.082 0.0761,-0.30005 0.0761,-0.48449 0,-0.28271 -0.0358,-0.40668 -0.22789,-0.78976 -0.12533,-0.24994 -0.24571,-0.46685 -0.26751,-0.48204 -0.0218,-0.0152 -0.17746,-0.31433 -0.34593,-0.66475 -0.16848,-0.35043 -0.34634,-0.67035 -0.39525,-0.71094 -0.0489,-0.0406 -0.0889,-0.14035 -0.0889,-0.22169 0,-0.0813 -0.0218,-0.17149 -0.0485,-0.20035 -0.12078,-0.13068 -1.01928,-1.88347 -1.01928,-1.9884 0,-0.0399 -0.0818,-0.11653 -0.18181,-0.17038 -0.17207,-0.0927 -0.19237,-0.0929 -0.37928,-0.004 -0.10861,0.0518 -0.21882,0.0942 -0.24492,0.0942 -0.0261,0 -0.21701,0.16143 -0.42426,0.35873 -0.26241,0.24981 -0.43566,0.36977 -0.57063,0.39508 -0.10659,0.02 -0.22727,0.0698 -0.26817,0.11073 -0.0939,0.0939 -0.36369,0.0916 -0.63591,-0.005 -0.15086,-0.0538 -0.26411,-0.0602 -0.40007,-0.0227 -0.16393,0.0453 -0.23172,0.12508 -0.49967,0.58835 -0.17051,0.29479 -0.37618,0.64783 -0.45703,0.78452 -0.0809,0.13669 -0.21957,0.43493 -0.30826,0.66276 -0.0887,0.22782 -0.18207,0.44242 -0.20752,0.47688 -0.0255,0.0345 -0.0806,0.18358 -0.12253,0.33137 -0.0419,0.1478 -0.11255,0.36814 -0.15693,0.48964 -0.0862,0.23609 -0.0831,0.55597 0.0124,1.26264 0.076,0.56217 0.16537,0.73989 0.54579,1.08499 0.17218,0.15619 0.45163,0.41262 0.621,0.56984 0.16936,0.15722 0.51128,0.41012 0.7598,0.56201 0.24853,0.15188 0.55731,0.34404 0.68619,0.42702 0.12888,0.083 0.2654,0.15133 0.30337,0.15188 0.038,5.5e-4 0.069,0.0267 0.069,0.0581 0,0.0314 0.22989,0.16709 0.51087,0.30156 0.28098,0.13447 0.54816,0.28002 0.59372,0.32344 0.0872,0.0831 0.52171,0.24975 0.66276,0.25416 0.0456,10e-4 0.2335,-0.0687 0.41763,-0.15579 z m -60.687022,1.81018 c -0.08353,-0.0326 -0.151882,-0.0817 -0.151882,-0.10914 0,-0.0274 -0.08627,-0.0859 -0.191724,-0.12999 -0.126476,-0.0528 -0.21755,-0.14239 -0.267588,-0.26308 -0.101982,-0.24598 -0.0742,-0.66439 0.05913,-0.89036 0.05987,-0.10147 0.1402,-0.31933 0.178524,-0.48415 0.03832,-0.16482 0.08995,-0.3618 0.114723,-0.43774 0.02478,-0.0759 0.06139,-0.2692 0.08137,-0.42947 0.01998,-0.16026 0.06497,-0.32181 0.09998,-0.35899 0.03501,-0.0372 0.06599,-0.24158 0.06885,-0.45421 0.01534,-1.14165 0.04226,-1.66747 0.09008,-1.75974 0.02932,-0.0566 0.101336,-0.40451 0.160034,-0.77321 0.0587,-0.36871 0.154599,-0.88163 0.213098,-1.13983 0.168732,-0.74468 0.277275,-1.3887 0.277231,-1.64485 -2.7e-5,-0.13008 0.04085,-0.32891 0.09084,-0.44184 0.108234,-0.24455 0.169881,-0.6347 0.20699,-1.30993 0.01502,-0.27339 0.06599,-0.60582 0.113254,-0.73874 0.05456,-0.1534 0.08594,-0.43144 0.08594,-0.76124 0,-0.44356 0.02003,-0.55911 0.136909,-0.78975 0.115049,-0.22705 0.192199,-0.29832 0.48326,-0.44647 0.437905,-0.22289 0.787686,-0.31371 1.04452,-0.27121 0.245728,0.0407 1.028957,0.47991 1.130077,0.63377 0.04037,0.0614 0.111774,0.29408 0.158669,0.517 0.04689,0.22292 0.102485,0.43318 0.123538,0.46725 0.02105,0.0341 0.04205,0.0997 0.04667,0.14575 0.01698,0.16962 0.425976,1.08197 0.540931,1.20666 0.06527,0.0708 0.112447,0.13914 0.104853,0.15189 -0.03581,0.0601 -0.0032,0.13775 0.118606,0.28251 0.07283,0.0866 0.18835,0.26864 0.256724,0.40465 0.186599,0.3712 0.437596,0.77013 0.659448,1.04812 0.10909,0.1367 0.295341,0.39235 0.413892,0.56812 0.12985,0.19252 0.248997,0.31314 0.299681,0.30338 0.04627,-0.009 0.180602,-0.20131 0.298511,-0.42756 0.117905,-0.22625 0.285383,-0.4975 0.372171,-0.60279 0.08678,-0.10529 0.142686,-0.21587 0.124223,-0.24574 -0.01846,-0.0299 -0.0086,-0.0389 0.02188,-0.02 0.03049,0.0188 0.08823,-0.027 0.128326,-0.10193 0.04009,-0.0749 0.09084,-0.13619 0.112796,-0.13619 0.02195,0 0.05411,-0.0559 0.07148,-0.12426 0.01736,-0.0683 0.10877,-0.20846 0.203113,-0.31136 0.15725,-0.1715 0.356574,-0.50186 0.881886,-1.46164 0.106317,-0.19424 0.250864,-0.41224 0.321215,-0.48443 0.07035,-0.0722 0.16569,-0.21058 0.211867,-0.30752 0.04618,-0.0969 0.143951,-0.21557 0.217279,-0.26361 0.07332,-0.048 0.133314,-0.11039 0.133314,-0.13854 0,-0.098 0.349913,-0.58332 0.629392,-0.87298 0.335426,-0.34766 0.64574,-0.50922 1.071908,-0.55807 0.365025,-0.0418 0.360661,-0.0419 0.632154,0.0124 0.113911,0.0228 0.207111,0.0666 0.207111,0.0974 0,0.0308 0.01974,0.0438 0.04387,0.0289 0.02412,-0.0149 0.148844,0.0199 0.277154,0.0773 0.128309,0.0574 0.243966,0.0992 0.257022,0.0929 0.01306,-0.006 0.105798,0.11246 0.206106,0.26404 0.176763,0.26712 0.182048,0.29163 0.171897,0.79714 -0.0062,0.31022 0.02174,0.64523 0.06904,0.82679 0.04373,0.16789 0.07951,0.41009 0.07951,0.53824 0,0.13006 0.03544,0.26842 0.08022,0.3132 0.04412,0.0441 0.06895,0.0915 0.05518,0.10524 -0.01376,0.0138 0.0018,0.1472 0.03463,0.29653 0.1319,0.6003 0.257293,1.59106 0.290801,2.29768 0.01396,0.29423 0.03909,0.55716 0.05585,0.58429 0.09065,0.14667 0.15086,0.9516 0.171422,2.29162 0.01602,1.04424 0.05111,1.67353 0.11469,2.05685 0.05038,0.30377 0.1025,0.70142 0.115827,0.88368 0.01332,0.18226 0.0475,0.41836 0.07597,0.52468 0.02846,0.10632 0.06412,0.2989 0.07924,0.42797 0.02387,0.20374 0.0051,0.26013 -0.142211,0.42794 -0.270349,0.30792 -0.602616,0.42793 -1.097314,0.39635 -0.227822,-0.0145 -0.476356,-0.0374 -0.552297,-0.0509 -0.178916,-0.0316 -0.678104,-0.28597 -0.763699,-0.3891 -0.03651,-0.044 -0.0788,-0.25098 -0.09396,-0.45996 -0.01517,-0.20898 -0.05303,-0.62849 -0.08414,-0.93225 -0.03112,-0.30377 -0.06761,-0.97481 -0.0811,-1.49121 -0.07902,-3.02441 -0.09908,-3.40506 -0.243028,-4.61168 -0.06012,-0.50397 -0.103699,-0.78474 -0.263545,-1.69831 -0.01728,-0.0987 -0.05922,-0.17906 -0.09322,-0.17853 -0.0585,9.1e-4 -0.350698,0.46032 -0.561432,0.88271 -0.05304,0.10632 -0.192222,0.28943 -0.309286,0.40691 -0.117065,0.11749 -0.212845,0.23777 -0.212845,0.2673 0,0.0295 -0.05076,0.0949 -0.112795,0.14538 -0.115762,0.0941 -0.266666,0.32567 -0.526858,0.80844 -0.156814,0.29098 -0.368172,0.85731 -0.319946,0.85731 0.01572,0 -0.01047,0.039 -0.05821,0.0868 -0.04774,0.0477 -0.08679,0.12108 -0.08679,0.16298 0,0.0419 -0.0865,0.24518 -0.192216,0.4517 -0.105715,0.20653 -0.198916,0.45007 -0.207112,0.5412 -0.0082,0.0911 -0.02796,0.17811 -0.04393,0.1933 -0.01598,0.0152 -0.111525,0.13357 -0.21233,0.26307 -0.282605,0.36304 -0.55829,0.4964 -1.118987,0.54132 -0.441103,0.0353 -0.500337,0.0274 -0.793695,-0.10696 -0.17436,-0.0798 -0.359871,-0.14513 -0.412245,-0.14513 -0.134932,0 -0.24242,-0.13938 -0.431764,-0.55987 -0.109797,-0.24383 -0.297605,-0.50951 -0.560946,-0.79352 -0.217743,-0.23483 -0.436414,-0.49239 -0.485938,-0.57235 -0.309165,-0.49913 -0.575322,-0.88163 -0.678342,-0.97487 -0.133982,-0.12125 -0.438032,-0.55646 -0.456319,-0.65317 -0.0066,-0.0348 -0.04927,-0.0927 -0.09483,-0.12857 -0.06887,-0.0542 -0.09054,-0.0356 -0.128503,0.11026 -0.02511,0.0965 -0.06483,0.32538 -0.08827,0.50863 -0.02344,0.18324 -0.06788,0.38206 -0.09876,0.44183 -0.03088,0.0598 -0.04488,0.14011 -0.03111,0.17854 0.01376,0.0384 -0.01302,0.19998 -0.05953,0.359 -0.0465,0.15901 -0.09913,0.45716 -0.116938,0.66254 -0.01781,0.20538 -0.05951,0.44148 -0.09267,0.52468 -0.03316,0.0832 -0.06657,0.20097 -0.07425,0.26172 -0.02762,0.21851 -0.09686,1.22351 -0.112237,1.62928 -0.0086,0.22782 -0.0453,0.52606 -0.08149,0.66276 -0.03618,0.13669 -0.08291,0.39108 -0.103843,0.5653 -0.02093,0.17422 -0.06824,0.34695 -0.105135,0.38384 -0.03704,0.037 -0.06708,0.20907 -0.06708,0.38416 0,0.17439 -0.0229,0.33122 -0.05089,0.34852 -0.028,0.0173 -0.06698,0.19896 -0.08664,0.40368 -0.04531,0.47191 -0.113491,0.6574 -0.326816,0.88911 -0.322381,0.35018 -0.546398,0.45307 -1.044217,0.47961 -0.253393,0.0135 -0.518844,-0.002 -0.603969,-0.0352 z m 39.219402,-0.35921 c -0.49421,-0.26366 -0.58594,-0.35985 -0.63125,-0.66202 -0.0211,-0.14054 -0.11181,-0.49522 -0.20162,-0.78819 -0.0898,-0.29296 -0.18361,-0.66935 -0.20842,-0.83642 -0.0449,-0.30233 -0.0718,-0.4154 -0.23667,-0.99414 -0.0476,-0.16707 -0.12793,-0.49016 -0.17854,-0.71798 -0.0506,-0.22783 -0.11363,-0.46393 -0.14004,-0.52469 -0.0264,-0.0608 -0.0716,-0.25957 -0.10044,-0.44183 -0.0551,-0.3483 -0.2157,-1.03264 -0.54434,-2.31965 -0.10858,-0.42527 -0.21686,-0.88506 -0.24062,-1.02175 -0.0959,-0.55203 -0.38945,-1.97984 -0.46628,-2.26804 -0.0451,-0.16906 -0.0819,-0.41368 -0.0819,-0.54359 0,-0.15257 -0.0391,-0.28591 -0.11046,-0.37662 -0.13669,-0.17377 -0.13757,-0.30901 -0.004,-0.60333 0.0983,-0.21642 0.36362,-0.47011 0.51512,-0.49249 0.0378,-0.006 0.21044,-0.0396 0.38364,-0.0756 0.22469,-0.0467 0.34628,-0.0486 0.4244,-0.007 0.0602,0.0322 0.16219,0.0586 0.2266,0.0586 0.32766,0 0.9923,0.48331 0.9976,0.72544 0.017,0.77568 0.0542,1.38674 0.0876,1.44088 0.0226,0.0365 0.0611,0.1792 0.0857,0.317 0.12014,0.67481 0.21164,1.15979 0.2661,1.41038 0.033,0.15188 0.0805,0.41466 0.10547,0.58395 0.025,0.16929 0.0735,0.36027 0.10786,0.4244 0.0343,0.0641 0.0632,0.199 0.0642,0.29972 9.4e-4,0.10072 0.0383,0.23137 0.0829,0.29034 0.0446,0.059 0.0811,0.19874 0.0811,0.31062 0,0.11189 0.0367,0.30757 0.0817,0.43486 0.0449,0.12729 0.0778,0.24846 0.0731,0.26928 -0.018,0.0794 0.33557,1.28143 0.39778,1.35253 0.0389,0.0444 0.27592,-0.44795 0.27592,-0.57317 0,-0.0366 0.0994,-0.27376 0.22092,-0.52714 0.13101,-0.27321 0.22092,-0.54128 0.22092,-0.65873 0,-0.52967 0.5212,-0.9274 1.20863,-0.92228 0.28309,0.002 0.44633,0.0436 0.82844,0.21079 0.72693,0.318 0.83645,0.45067 0.85327,1.03363 0.006,0.21045 0.0364,0.33638 0.0887,0.36872 0.0437,0.027 0.0889,0.11918 0.10036,0.20482 0.0115,0.0856 0.0937,0.28312 0.18283,0.43884 0.0891,0.15571 0.16199,0.31995 0.16199,0.36498 0,0.045 0.0621,0.1489 0.13807,0.23085 0.0759,0.0819 0.13808,0.18113 0.13808,0.22042 0,0.0393 0.0522,0.11873 0.11611,0.17652 0.12538,0.11347 0.29654,0.40911 0.23685,0.40911 -0.0201,0 0.0287,0.0513 0.10836,0.11393 0.0797,0.0627 0.16536,0.19311 0.19044,0.28987 0.067,0.2584 0.18862,0.24606 0.29587,-0.03 0.0925,-0.2381 0.33005,-0.83279 0.53538,-1.34031 0.0615,-0.15189 0.22268,-0.57439 0.3583,-0.93891 0.13561,-0.36451 0.33607,-0.89886 0.44546,-1.18744 0.10939,-0.28857 0.19882,-0.54571 0.19873,-0.5714 0,-0.056 0.23801,-0.5626 0.87408,-1.8587 0.3444,-0.70176 0.47585,-1.02816 0.4799,-1.19152 0.015,-0.60503 0.77158,-1.17498 1.45275,-1.09434 0.26592,0.0315 0.56859,0.12482 0.61734,0.19038 0.0152,0.0204 0.12856,0.0883 0.25193,0.15083 0.24968,0.12654 0.53758,0.49793 0.54664,0.70518 0.003,0.0742 -0.01,0.13487 -0.0285,0.13487 -0.0189,0 -0.0641,0.0652 -0.10044,0.14499 -0.0363,0.0797 -0.15154,0.2493 -0.25603,0.37681 -0.10448,0.12751 -0.35018,0.55666 -0.54601,0.95368 -0.19582,0.39702 -0.38212,0.73797 -0.41399,0.75766 -0.0703,0.0435 -0.48375,0.8881 -0.73172,1.49487 -0.0993,0.24301 -0.19953,0.46828 -0.22271,0.50061 -0.0232,0.0323 -0.078,0.2063 -0.12192,0.38661 -0.0439,0.18031 -0.13022,0.4521 -0.19183,0.60398 -0.0616,0.15188 -0.14806,0.38799 -0.19209,0.52468 -0.044,0.13669 -0.15666,0.42965 -0.25027,0.65101 -0.21553,0.50963 -0.3476,0.88666 -0.36899,1.05334 -0.0155,0.12098 -0.0403,0.1941 -0.21762,0.64291 -0.16335,0.41337 -0.20983,0.57238 -0.25024,0.85606 -0.13253,0.93031 -0.29949,1.27037 -0.70328,1.43253 -0.0987,0.0396 -0.1796,0.0877 -0.17973,0.1068 0,0.0191 -0.2041,0.041 -0.45327,0.0487 -0.41713,0.0129 -0.48417,-0.001 -0.84586,-0.17503 -0.40842,-0.19649 -0.48775,-0.2767 -0.9605,-0.97114 -0.13441,-0.19745 -0.37683,-0.51087 -0.53869,-0.6965 -0.16187,-0.18563 -0.29431,-0.36578 -0.29431,-0.40035 0,-0.0346 -0.13617,-0.20578 -0.3026,-0.38048 -0.16643,-0.1747 -0.30312,-0.33606 -0.30376,-0.35858 -6.7e-4,-0.0225 -0.0849,-0.15058 -0.18713,-0.28458 -0.10228,-0.13399 -0.20217,-0.30818 -0.22197,-0.38708 -0.0198,-0.0789 -0.0558,-0.14346 -0.08,-0.14346 -0.13987,0 -0.62519,1.26742 -0.72531,1.89416 -0.0323,0.20211 -0.0829,0.43114 -0.11249,0.50896 -0.0296,0.0778 -0.0421,0.23305 -0.0277,0.34495 0.0574,0.44851 -0.26392,0.80751 -0.91092,1.0177 -0.47902,0.15562 -0.79389,0.13027 -1.22253,-0.0984 z m 35.05071,0.0839 c -0.0911,-0.0206 -0.36451,-0.1297 -0.60752,-0.2424 -0.24301,-0.11271 -0.4458,-0.19651 -0.45065,-0.18622 -0.005,0.0103 -0.0631,-0.0503 -0.12949,-0.13472 -0.0664,-0.0844 -0.21153,-0.20024 -0.32257,-0.25746 -0.11103,-0.0572 -0.27645,-0.17502 -0.36758,-0.26177 -0.0911,-0.0867 -0.24025,-0.19375 -0.33137,-0.23779 -0.0911,-0.044 -0.29404,-0.19273 -0.45091,-0.33042 -0.15687,-0.13768 -0.45196,-0.3746 -0.65575,-0.52648 -0.20379,-0.15189 -0.54766,-0.43273 -0.76415,-0.62411 -0.49461,-0.43723 -0.53169,-0.4663 -0.53169,-0.41688 0,0.0222 -0.0365,-0.008 -0.0811,-0.0669 -0.0997,-0.13175 -0.10247,-0.1136 -0.0861,0.55482 0.007,0.3024 0.0434,0.55671 0.0921,0.65085 0.0726,0.14036 0.0698,0.16826 -0.0302,0.3045 -0.0606,0.0825 -0.1963,0.23223 -0.30161,0.33276 -0.18053,0.17234 -0.22028,0.18465 -0.69585,0.21546 -0.45847,0.0297 -0.51902,0.0219 -0.66509,-0.0861 -0.0884,-0.0654 -0.21999,-0.11881 -0.29245,-0.11881 -0.14667,0 -0.25615,-0.10431 -0.39301,-0.37442 -0.0789,-0.1557 -0.0923,-0.40226 -0.0952,-1.75676 l -0.003,-1.57564 -0.13235,-0.13235 c -0.10052,-0.10053 -0.13234,-0.19225 -0.13234,-0.38152 0,-0.23069 0.14109,-0.63952 0.22071,-0.63952 0.0438,0 0.0115,-2.13467 -0.0385,-2.54057 -0.0206,-0.16707 -0.0337,-0.35347 -0.0293,-0.41422 0.004,-0.0607 0.0167,-0.64481 0.0271,-1.2979 0.0188,-1.1762 0.0204,-1.1901 0.17176,-1.46819 0.0841,-0.15441 0.18219,-0.28492 0.21809,-0.29003 0.0359,-0.005 0.16074,-0.0247 0.27743,-0.0434 0.11668,-0.0188 0.2658,-0.008 0.33138,0.0231 0.0656,0.0315 0.18135,0.073 0.25729,0.0923 0.39324,0.0998 0.41309,0.0952 0.67887,-0.15585 0.14196,-0.13409 0.36198,-0.28536 0.48893,-0.33616 0.12695,-0.0508 0.28204,-0.12823 0.34463,-0.17207 0.16634,-0.11651 1.29041,-0.11076 1.5684,0.008 0.11294,0.0482 0.34203,0.13226 0.5091,0.18667 0.27194,0.0886 0.76109,0.33936 1.16801,0.59885 0.0804,0.0513 0.26664,0.16783 0.41377,0.25895 0.59359,0.36766 1.07352,0.96867 1.3297,1.66514 0.1225,0.33306 0.0888,1.15761 -0.0589,1.44096 -0.0513,0.0984 -0.0945,0.19781 -0.0961,0.22091 -0.002,0.0231 -0.0385,0.062 -0.0821,0.0864 -0.0436,0.0244 -0.1264,0.13626 -0.18396,0.24854 -0.0576,0.11228 -0.18787,0.30866 -0.28957,0.4364 -0.21202,0.26629 -1.09086,1.02041 -1.34179,1.15138 -0.0927,0.0484 -0.21834,0.11727 -0.2791,0.15302 -0.54919,0.32321 -0.76698,0.4308 -1.07698,0.53209 -0.19744,0.0645 -0.43355,0.15173 -0.52468,0.19383 -0.0911,0.0421 -0.24646,0.10625 -0.34518,0.14255 -0.0987,0.0363 -0.1795,0.0993 -0.1795,0.14009 0,0.0408 0.14291,0.1726 0.31757,0.29301 0.17466,0.12041 0.38271,0.28909 0.46233,0.37486 0.55386,0.59658 1.26558,1.24747 1.67187,1.52898 0.13763,0.0954 0.44106,0.30587 0.67429,0.4678 0.41385,0.28733 1.18186,0.69654 1.18186,0.62971 0,-0.0184 0.0725,0.036 0.16119,0.12093 0.0887,0.0849 0.18808,0.13784 0.22092,0.11754 0.0328,-0.0203 0.0597,-0.0136 0.0597,0.0149 0,0.0285 0.0689,0.0803 0.15308,0.11519 0.0842,0.0349 0.25816,0.18541 0.38661,0.33452 0.2015,0.23393 0.23353,0.30601 0.23353,0.52545 0,0.3289 -0.16017,0.54913 -0.52468,0.72139 -0.32326,0.15276 -0.81395,0.24016 -1.04937,0.18691 z m -4.28985,-7.377 c 0.0707,-0.0455 0.29745,-0.15157 0.50391,-0.23559 0.88416,-0.35981 1.401,-0.80939 1.80822,-1.57289 0.1415,-0.26529 0.16012,-0.60484 0.0479,-0.87344 -0.12877,-0.30818 -0.92006,-0.91282 -1.35957,-1.03887 -0.12441,-0.0357 -0.19196,-0.0198 -0.31247,0.0732 -0.20037,0.15469 -0.29639,0.24805 -0.29316,0.28504 0.001,0.0164 -0.031,0.1105 -0.0721,0.20908 -0.0411,0.0986 -0.10444,0.26931 -0.1407,0.3794 -0.0363,0.11009 -0.19088,0.38153 -0.34358,0.60318 -0.46355,0.6729 -0.45926,0.6591 -0.44526,1.43346 0.0161,0.89019 0.0205,0.90387 0.27659,0.85711 0.11097,-0.0203 0.25959,-0.0741 0.33028,-0.11966 z m 10.28227,7.10434 c -0.0456,-0.0299 -0.17217,-0.0497 -0.28135,-0.0441 -0.13141,0.007 -0.28075,-0.0395 -0.44183,-0.13711 -0.57543,-0.34849 -0.56668,-0.32182 -0.57433,-1.75102 -0.003,-0.65309 -0.0245,-1.24957 -0.0466,-1.32551 -0.0221,-0.0759 -0.0647,-0.34933 -0.0945,-0.60752 -0.0299,-0.2582 -0.0685,-0.50674 -0.0859,-0.5523 -0.0174,-0.0456 -0.0436,-0.21954 -0.0582,-0.38661 -0.0146,-0.16707 -0.0591,-0.3542 -0.0989,-0.41584 -0.0412,-0.0638 -0.0858,-0.36109 -0.10375,-0.69037 -0.0292,-0.53687 -0.0546,-0.72016 -0.2028,-1.46197 -0.0303,-0.15188 -0.0913,-0.47498 -0.13552,-0.71799 -0.0442,-0.24301 -0.11965,-0.64066 -0.16768,-0.88367 -0.048,-0.24301 -0.11861,-0.62824 -0.15685,-0.85606 -0.0383,-0.22782 -0.0747,-0.43286 -0.0809,-0.45565 -0.006,-0.0228 -0.0114,-0.0777 -0.0114,-0.12211 0,-0.0444 -0.0475,-0.12516 -0.10562,-0.1795 -0.0765,-0.0716 -0.1015,-0.15972 -0.0907,-0.31972 0.0212,-0.31366 0.10141,-0.47842 0.33097,-0.67998 0.15835,-0.13904 0.25533,-0.17821 0.46096,-0.1862 0.39274,-0.0153 0.5183,-8.2e-4 0.72987,0.0839 0.10632,0.0426 0.29272,0.1085 0.41422,0.1465 0.45539,0.1424 0.73154,0.55455 0.74055,1.10523 0.003,0.19745 0.0424,0.55782 0.0871,0.80083 0.0447,0.24301 0.0934,0.5983 0.10835,0.78954 0.0149,0.19123 0.0458,0.37763 0.0686,0.41422 0.0228,0.0366 0.0338,0.12524 0.0246,0.197 -0.0126,0.0971 0.002,0.11879 0.0569,0.0849 0.0869,-0.0537 0.47991,-0.32253 1.20602,-0.82499 0.91781,-0.63511 1.44303,-0.98959 1.59259,-1.07486 0.0799,-0.0456 0.17057,-0.10912 0.20145,-0.14123 0.11767,-0.12235 0.45463,-0.33711 0.75238,-0.47952 0.21924,-0.10486 0.41271,-0.15169 0.66276,-0.16043 0.31285,-0.0109 0.40333,0.0124 0.79328,0.20492 0.771,0.38057 0.93459,0.8178 0.47714,1.27525 -0.21421,0.21421 -0.60163,0.42118 -0.91462,0.48863 -0.0897,0.0193 -0.36305,0.16652 -0.60753,0.32713 -0.24448,0.1606 -0.52907,0.33544 -0.63244,0.38854 -0.10336,0.0531 -0.42389,0.27412 -0.71229,0.49117 -0.28839,0.21705 -0.56273,0.41949 -0.60964,0.44986 -0.0469,0.0304 -0.14066,0.10494 -0.20832,0.16569 -0.0677,0.0608 -0.22446,0.18358 -0.34843,0.27294 -0.12398,0.0894 -0.22542,0.182 -0.22542,0.20587 0,0.0239 0.21654,0.24899 0.48119,0.50028 0.26466,0.25129 0.56911,0.54073 0.67657,0.64322 0.10745,0.10248 0.28272,0.242 0.38949,0.31006 0.10676,0.068 0.22813,0.16471 0.26971,0.21481 0.11755,0.14165 1.73452,1.36048 2.14685,1.61823 0.20298,0.12689 0.37814,0.25799 0.38925,0.29133 0.0201,0.0602 0.3703,0.22919 0.42979,0.20736 0.0171,-0.006 0.0601,0.0383 0.0957,0.0991 0.0355,0.0607 0.0894,0.11556 0.11979,0.1218 0.0304,0.006 0.18953,0.0614 0.35366,0.1226 0.34828,0.12985 0.52274,0.27816 0.68704,0.58404 0.12495,0.23265 0.21261,0.69038 0.13221,0.69038 -0.026,0 -0.0344,0.0208 -0.0187,0.0461 0.0157,0.0254 -0.0574,0.0871 -0.16243,0.13718 -0.10502,0.0501 -0.19094,0.11667 -0.19094,0.14798 0,0.0313 -0.0808,0.10619 -0.17949,0.16638 -0.1407,0.0858 -0.27838,0.10949 -0.63692,0.10965 -0.49019,2.2e-4 -0.71835,-0.0667 -1.02517,-0.30073 -0.1016,-0.0775 -0.20186,-0.1409 -0.2228,-0.1409 -0.0209,0 -0.10558,-0.0687 -0.18809,-0.15277 -0.36846,-0.37521 -1.43208,-1.17168 -1.91701,-1.43553 -0.0702,-0.0382 -0.21088,-0.14733 -0.31256,-0.2425 -0.10167,-0.0952 -0.28428,-0.23435 -0.40579,-0.30932 -0.1215,-0.075 -0.24577,-0.16608 -0.27614,-0.20248 -0.0304,-0.0364 -0.22921,-0.18673 -0.44184,-0.33405 -0.21264,-0.14733 -0.47304,-0.33852 -0.57869,-0.42488 -0.10565,-0.0864 -0.2237,-0.15703 -0.26234,-0.15703 -0.0386,0 -0.0703,-0.0249 -0.0703,-0.0552 0,-0.0304 -0.039,-0.0552 -0.0866,-0.0552 -0.0561,0 -0.0769,0.034 -0.0591,0.0967 0.04,0.1409 0.19277,1.20599 0.22373,1.56024 0.0146,0.16707 0.0423,0.52745 0.0615,0.80083 0.0192,0.27339 0.0721,0.6517 0.1176,0.84069 0.0455,0.189 0.0682,0.38782 0.0504,0.44184 -0.0526,0.16036 -0.4396,0.55761 -0.60404,0.62013 -0.19137,0.0728 -0.58806,0.0739 -0.69766,0.002 z m 13.72458,-0.41983 c -0.15188,-0.0805 -0.28857,-0.16172 -0.30376,-0.18051 -0.0152,-0.0188 -0.0981,-0.0705 -0.18416,-0.11493 -0.23152,-0.11947 -0.36548,-0.34169 -0.37615,-0.62401 -0.0156,-0.41374 0.25885,-0.76449 0.76729,-0.98041 0.28065,-0.11919 0.30079,-0.12034 0.63593,-0.0361 0.94833,0.23821 1.51099,0.7377 1.39509,1.23845 -0.0456,0.1969 -0.27206,0.45506 -0.57028,0.65003 -0.19772,0.12928 -0.30916,0.15864 -0.66275,0.17465 -0.37475,0.017 -0.45774,0.002 -0.70121,-0.12712 z M 22.414711,35.447861 c -0.197446,-0.0544 -0.48837,-0.1007 -0.646496,-0.10277 -0.211265,-0.003 -0.341456,-0.0404 -0.490967,-0.14184 -0.130115,-0.0883 -0.280327,-0.13807 -0.416676,-0.13807 -0.147469,0 -0.251529,-0.0383 -0.337478,-0.12427 -0.06835,-0.0684 -0.161547,-0.12608 -0.207111,-0.12829 -0.04556,-0.002 -0.219538,-0.0207 -0.386608,-0.0411 -0.16707,-0.0204 -0.415604,-0.0487 -0.552297,-0.0628 -0.136694,-0.0141 -0.345103,-0.0497 -0.463133,-0.079 -0.308626,-0.0767 -1.140768,0.0196 -1.425641,0.16495 -0.280881,0.1433 -0.781352,0.16107 -1.014953,0.0361 -0.08884,-0.0475 -0.298214,-0.1523 -0.465284,-0.2328 -0.417844,-0.20133 -0.639664,-0.41404 -0.685269,-0.65714 -0.03168,-0.16888 -0.01514,-0.22465 0.104653,-0.35271 0.138915,-0.14852 0.316293,-0.6216 0.3366,-0.89773 0.02206,-0.30003 0.09706,-0.74708 0.129714,-0.77321 0.08289,-0.0663 0.230107,-0.48794 0.231759,-0.66372 9.95e-4,-0.10579 0.0161,-0.36632 0.03356,-0.57895 0.01747,-0.21264 0.04033,-0.57301 0.05082,-0.80083 0.01048,-0.22782 0.04351,-0.62548 0.07339,-0.88368 0.02988,-0.2582 0.05742,-0.71798 0.06119,-1.02175 0.01557,-1.25368 0.05766,-2.11 0.112677,-2.29203 0.09506,-0.31451 0.367966,-3.80048 0.324224,-4.14144 -0.02804,-0.21855 -0.01871,-0.32144 0.03391,-0.37406 0.03992,-0.0399 0.11287,-0.14078 0.16211,-0.22414 0.111294,-0.18841 0.598531,-0.39672 0.927907,-0.39672 0.400532,0 1.109367,0.52405 1.173864,0.86785 0.0355,0.1892 -0.05048,1.24042 -0.145849,1.78318 -0.05032,0.28638 -0.19539,1.42094 -0.243641,1.90542 -0.0121,0.12151 -0.04676,0.60615 -0.07703,1.07698 -0.03026,0.47083 -0.08129,0.92441 -0.113386,1.00794 -0.03816,0.0993 -0.04019,0.19967 -0.0059,0.28996 0.03206,0.0843 0.03292,0.18956 0.0022,0.27034 -0.02766,0.0727 -0.04825,0.85243 -0.04575,1.73261 0.0047,1.64479 -0.0021,1.71045 -0.235911,2.30496 -0.0239,0.0608 -0.05618,0.22177 -0.07174,0.35781 -0.01556,0.13604 -0.0549,0.25621 -0.08742,0.26706 -0.03252,0.0108 -0.04529,0.0421 -0.02838,0.0695 0.01692,0.0274 0.0075,0.13415 -0.02102,0.23729 l -0.05178,0.18753 0.394163,0.0394 c 0.21679,0.0217 0.637739,0.0491 0.935442,0.061 0.656136,0.0262 1.204564,0.10931 1.254548,0.19019 0.02028,0.0328 0.05945,0.0535 0.08704,0.0459 0.116079,-0.0318 0.691153,0.0769 0.757375,0.14308 0.04784,0.0478 0.31191,0.0831 0.78699,0.10501 1.056175,0.0488 1.291397,0.0937 1.572146,0.30013 0.132871,0.0977 0.283044,0.17767 0.333715,0.17767 0.05067,0 0.157616,0.0515 0.237654,0.11446 0.133442,0.10497 0.145522,0.14791 0.145522,0.51724 0,0.52304 -0.08148,0.62998 -0.627771,0.82392 -0.483488,0.17164 -0.876283,0.18043 -1.415727,0.0317 z m 151.902819,-3.74888 c -0.0247,-0.0248 -0.63437,-0.0528 -1.15149,-0.0529 -0.15781,-3e-5 -0.36884,-0.0455 -0.49706,-0.10712 -0.12256,-0.0589 -0.33924,-0.14845 -0.48151,-0.19903 -0.14228,-0.0506 -0.41567,-0.19303 -0.60753,-0.31656 -0.30378,-0.19557 -0.47226,-0.32944 -0.89103,-0.70797 -0.14708,-0.13295 -0.40265,-0.4611 -0.44089,-0.56611 -0.0194,-0.0532 -0.0608,-0.0967 -0.0922,-0.0967 -0.0313,0 -0.057,-0.0607 -0.057,-0.13481 0,-0.0742 -0.0235,-0.14934 -0.0522,-0.16709 -0.0287,-0.0178 -0.0422,-0.12485 -0.03,-0.23799 0.0122,-0.11314 0.0496,-0.54123 0.083,-0.95131 0.0673,-0.82601 0.14702,-1.16166 0.36587,-1.54048 0.13173,-0.228 0.63425,-0.82267 0.66891,-0.79156 0.0412,0.037 0.1357,0.001 0.22183,-0.0843 0.23053,-0.22838 0.90005,-0.5661 1.12226,-0.5661 0.0531,0 0.10476,-0.0205 0.11489,-0.0455 0.0291,-0.072 0.82325,-0.57834 1.09636,-0.69904 0.13616,-0.0602 0.2736,-0.14302 0.30542,-0.1841 0.035,-0.0451 0.16602,-0.0744 0.33137,-0.0739 0.15044,4.5e-4 0.32858,-0.0348 0.39585,-0.0782 0.0673,-0.0435 0.16962,-0.079 0.22743,-0.079 0.0578,0 0.27616,-0.0877 0.48521,-0.19492 0.20905,-0.10721 0.57892,-0.27338 0.82193,-0.36927 0.35718,-0.14093 0.50296,-0.23682 0.76082,-0.50041 0.27876,-0.28496 0.50032,-0.60933 0.5366,-0.78559 0.006,-0.0304 0.04,-0.10494 0.0749,-0.16569 0.0891,-0.15473 0.10383,-0.33674 0.096,-1.18303 -0.004,-0.43367 -0.0313,-0.77065 -0.0658,-0.81221 -0.0324,-0.0391 -0.0423,-0.0979 -0.022,-0.13079 0.0478,-0.0774 -0.0684,-0.56627 -0.2102,-0.88399 -0.12733,-0.28531 -0.47707,-0.63775 -0.74965,-0.75541 -0.22953,-0.0991 -2.61041,-0.14199 -2.96127,-0.0534 -0.24233,0.0612 -0.78442,0.56012 -1.01382,0.93305 -0.0701,0.11392 -0.15022,0.20712 -0.17812,0.20712 -0.0279,0 -0.0507,0.0467 -0.0507,0.10371 0,0.18157 -0.17188,0.52425 -0.37736,0.75235 -0.28623,0.31773 -0.53914,0.41452 -1.07845,0.41272 l -0.44962,-0.001 -0.27615,-0.24653 c -0.15188,-0.13559 -0.29414,-0.24676 -0.31615,-0.24704 -0.059,-7.5e-4 -0.18753,-0.27685 -0.22809,-0.48982 -0.0286,-0.15036 -0.004,-0.23258 0.13209,-0.4336 0.0921,-0.13644 0.23166,-0.37604 0.31019,-0.53244 0.0785,-0.15641 0.22832,-0.3637 0.33289,-0.46064 0.10456,-0.0969 0.25692,-0.27512 0.33859,-0.39594 0.23773,-0.35177 0.67302,-0.78861 1.04526,-1.04899 0.16345,-0.11434 1.11909,-0.47314 1.11909,-0.42017 0,0.0125 0.0636,-0.001 0.14124,-0.031 0.095,-0.0361 0.39781,-0.0289 0.92509,0.022 0.43113,0.0416 1.26851,0.0719 1.86085,0.0673 0.97265,-0.008 1.09838,0.002 1.29789,0.10103 0.12151,0.0602 0.34366,0.1539 0.49367,0.20823 0.15002,0.0543 0.3737,0.16558 0.49707,0.24722 0.12337,0.0816 0.23674,0.14501 0.25193,0.1408 0.0708,-0.0196 0.59546,0.56175 1.07658,1.19301 0.0306,0.0402 0.0999,0.1217 0.15401,0.18122 0.0541,0.0595 0.11425,0.18758 0.13365,0.28457 0.0194,0.097 0.0807,0.22516 0.13634,0.28484 0.0598,0.0642 0.10399,0.20003 0.1082,0.33281 0.008,0.25494 0.0214,0.36646 0.0994,0.83183 0.0787,0.46961 0.0255,1.84686 -0.0777,2.01393 -0.018,0.0291 -0.0423,0.17224 -0.0541,0.31814 -0.0118,0.14591 -0.0839,0.3892 -0.16031,0.54066 -0.20351,0.40348 -1.36866,1.57327 -1.56704,1.57327 -0.0287,0 -0.0805,0.0621 -0.11513,0.13807 -0.0434,0.0952 -0.10704,0.13808 -0.20504,0.13808 -0.0782,0 -0.23403,0.0467 -0.34637,0.10379 -0.26903,0.13671 -0.51872,0.24485 -0.92223,0.39941 -0.18226,0.0698 -0.35623,0.14388 -0.38661,0.16461 -0.0304,0.0207 -0.16707,0.0559 -0.30376,0.0782 -0.1367,0.0223 -0.34075,0.0872 -0.45345,0.14432 -0.1127,0.0571 -0.25282,0.10384 -0.31137,0.10384 -0.0585,0 -0.22731,0.083 -0.375,0.18444 -0.36022,0.24742 -0.90935,0.53328 -1.02469,0.53343 -0.0514,5e-5 -0.10893,0.0253 -0.12792,0.056 -0.019,0.0307 -0.16873,0.14171 -0.33275,0.24664 -0.17074,0.10922 -0.36158,0.29192 -0.44644,0.42739 -0.0815,0.13014 -0.16314,0.24904 -0.18138,0.26423 -0.0183,0.0152 -0.0406,0.0898 -0.0496,0.16569 -0.009,0.0759 -0.0381,0.20021 -0.0645,0.27615 -0.10571,0.30374 -0.11574,0.84329 -0.0205,1.10192 0.10446,0.28362 0.23097,0.45629 0.3021,0.41233 0.0263,-0.0163 0.0478,-0.009 0.0478,0.0154 0,0.0248 0.0808,0.0815 0.1795,0.12617 0.30536,0.13808 2.21158,0.10381 2.73387,-0.0491 0.0987,-0.0289 0.1795,-0.0415 0.1795,-0.0279 0,0.0136 0.11805,-0.0345 0.26234,-0.10677 0.14428,-0.0723 0.36175,-0.16279 0.48326,-0.20107 0.1215,-0.0383 0.30169,-0.12993 0.40041,-0.20366 0.0987,-0.0737 0.1795,-0.11879 0.1795,-0.10014 0,0.0187 0.0932,-0.0545 0.20711,-0.16249 0.32857,-0.31157 0.51085,-0.37799 0.82597,-0.30098 0.39803,0.0973 0.55416,0.18344 0.91087,0.50272 0.27252,0.24392 0.27519,0.5399 0.009,1.0422 -0.229,0.43278 -0.69415,0.93991 -0.94407,1.02927 -0.0843,0.0301 -0.24021,0.0803 -0.34653,0.11144 -0.10631,0.0312 -0.41698,0.12437 -0.69037,0.20713 -0.27338,0.0828 -0.53361,0.16146 -0.57828,0.17489 -0.075,0.0226 -0.54847,0.0432 -1.95313,0.0852 -0.29873,0.009 -0.55427,0.005 -0.56788,-0.009 z" id="path191"/></g></svg>