<svg version="1.1" id="svg5" xml:space="preserve" xmlns="http://www.w3.org/2000/svg" xmlns:svg="http://www.w3.org/2000/svg" viewBox="16.42 61.68 174.22 33.43"><defs id="defs2"/><g id="layer1"><path style="fill:#000000;stroke-width:0.0563706" d="m 57.784168,95.058435 c -0.369913,-0.0608 -0.929591,-0.46199 -0.971075,-0.69607 -0.03915,-0.22094 0.145809,-0.4401 0.437887,-0.51886 0.0155,-0.004 0.167703,-0.0481 0.338224,-0.0976 0.170521,-0.0495 0.410104,-0.10735 0.532407,-0.12857 0.122303,-0.0212 0.343419,-0.0999 0.491369,-0.17491 0.147949,-0.075 0.304452,-0.13631 0.347783,-0.13631 0.102103,0 1.113624,-0.52286 1.422066,-0.73508 0.130999,-0.0901 0.340346,-0.27993 0.465215,-0.42179 0.208189,-0.23652 0.230305,-0.29282 0.266424,-0.67824 0.0283,-0.30201 0.0197,-0.44403 -0.03054,-0.50457 -0.03846,-0.0463 -0.05362,-0.0842 -0.03369,-0.0842 0.07026,0 -0.183241,-0.42467 -0.341397,-0.57191 -0.0881,-0.082 -0.343054,-0.24036 -0.566565,-0.35187 -0.402873,-0.20098 -0.410909,-0.20242 -0.930115,-0.16726 -0.288052,0.0195 -0.574464,0.0608 -0.636472,0.0919 -0.142575,0.0713 -0.611602,0.5919 -0.626848,0.69578 -0.0063,0.0429 -0.07263,0.15071 -0.147416,0.23958 -0.07478,0.0889 -0.169854,0.2474 -0.21127,0.35228 -0.04142,0.10489 -0.132468,0.25412 -0.202338,0.33163 -0.06987,0.0775 -0.186317,0.25765 -0.25877,0.40032 -0.373956,0.73636 -0.489833,0.88024 -1.298148,1.61188 -0.05245,0.0475 -0.306122,0.17201 -0.563706,0.27672 -0.439576,0.17871 -0.5116,0.19087 -1.172965,0.19813 -0.750419,0.008 -1.230907,-0.0846 -1.530708,-0.2959 -0.0823,-0.058 -0.177421,-0.10544 -0.21139,-0.10544 -0.03397,0 -0.06176,-0.0252 -0.06176,-0.056 0,-0.18919 -0.554309,0.23418 -0.561415,0.4288 -0.0034,0.0942 -0.504619,0.54491 -0.792304,0.71251 -0.374439,0.21813 -1.629744,0.41117 -1.72036,0.26455 -0.01813,-0.0293 -0.114781,-0.0533 -0.214788,-0.0533 -0.461792,0 -1.697918,-0.60326 -2.165757,-1.05695 -0.282376,-0.27383 -0.464287,-0.3695 -0.464287,-0.24417 0,0.0738 -0.362399,0.28808 -0.542262,0.3207 -0.08339,0.0151 -0.192094,0.0486 -0.241554,0.0743 -0.253702,0.13216 -1.307256,0.11957 -2.002127,-0.0239 -0.3336,-0.0689 -1.87281,-0.60776 -2.127067,-0.74467 l -0.262436,-0.14131 -0.808605,0.40616 c -0.444732,0.22339 -0.851398,0.44422 -0.903701,0.49074 -0.0523,0.0465 -0.120017,0.0692 -0.150475,0.0504 -0.03046,-0.0188 -0.08913,-0.002 -0.130385,0.0368 -0.04125,0.039 -0.151109,0.0779 -0.24412,0.0864 -0.09301,0.008 -0.257895,0.0499 -0.366409,0.0921 -0.324349,0.12608 -0.742405,0.19551 -1.05777,0.17567 -0.601878,-0.0379 -1.002646,-0.10187 -1.110948,-0.17744 -0.06115,-0.0427 -0.157626,-0.0776 -0.21438,-0.0776 -0.05675,0 -0.196515,-0.0634 -0.310581,-0.14093 -0.114065,-0.0775 -0.247271,-0.14093 -0.296011,-0.14093 -0.110895,0 -0.554284,-0.28099 -0.696024,-0.4411 -0.0584,-0.066 -0.125848,-0.10779 -0.149885,-0.0929 -0.02404,0.0149 -0.20076,-0.14429 -0.392719,-0.35365 -0.36813,-0.4015 -0.838264,-1.26927 -0.873552,-1.61241 -0.06313,-0.61389 -0.104825,-0.88214 -0.137103,-0.88214 -0.02025,0 -0.225912,0.11373 -0.457027,0.25273 -0.231114,0.139 -0.445575,0.25386 -0.476579,0.25523 -0.031,10e-4 -0.156014,0.0779 -0.277802,0.17006 -0.121787,0.0922 -0.246729,0.16754 -0.277648,0.16754 -0.03092,0 -0.235676,0.0872 -0.455016,0.19376 -0.219339,0.10657 -0.487582,0.23385 -0.596095,0.28285 -0.108514,0.049 -0.260714,0.12544 -0.338224,0.16985 -0.455726,0.26116 -1.598718,0.62626 -2.564861,0.81927 -1.096789,0.21912 -1.404904,0.28961 -1.621796,0.37106 -0.116891,0.0439 -0.390476,0.0798 -0.607966,0.0798 -0.243556,0 -0.443391,0.0305 -0.520287,0.0794 -0.423719,0.26962 -1.809053,0.31167 -2.67874,0.0813 -0.642953,-0.1703 -0.843987,-0.21796 -1.279311,-0.30328 -0.818332,-0.16039 -0.861791,-0.17681 -1.204026,-0.45502 -0.416766,-0.33879 -0.453594,-0.51837 -0.16296,-0.79463 0.292733,-0.27826 1.052937,-0.34367 1.589645,-0.13677 0.680643,0.26238 1.437469,0.45966 1.892708,0.49338 0.445548,0.033 0.502109,0.0247 0.775096,-0.11363 0.161961,-0.0821 0.294475,-0.168 0.294475,-0.19095 0,-0.023 0.115834,-0.18107 0.25741,-0.35137 0.343945,-0.41373 0.565401,-0.85989 0.645294,-1.30004 0.08053,-0.44364 0.07658,-2.6137 -0.005,-2.76619 -0.03153,-0.0589 -0.04405,-0.1286 -0.02782,-0.15486 0.01623,-0.0263 -0.0089,-0.24769 -0.05589,-0.49208 -0.118992,-0.61914 -0.114012,-0.59794 -0.177224,-0.75437 -0.03132,-0.0775 -0.109001,-0.2816 -0.172623,-0.45353 -0.130583,-0.35289 -0.340855,-0.77348 -0.407191,-0.81447 -0.07294,-0.0451 -0.159515,0.10045 -0.235853,0.39646 -0.05499,0.21321 -0.151956,0.36352 -0.408206,0.63273 -0.184848,0.19419 -0.375688,0.41207 -0.424088,0.48418 -0.0704,0.10489 -0.117667,0.12298 -0.236365,0.0905 -0.0816,-0.0224 -0.183069,-0.0187 -0.225483,0.008 -0.119012,0.0754 -0.218042,0.0596 -0.218042,-0.0349 0,-0.0587 -0.04901,-0.0817 -0.156633,-0.0735 -0.244163,0.0186 -0.311532,-0.0517 -0.273363,-0.28507 0.02096,-0.12816 -8.85e-4,-0.29425 -0.05864,-0.44596 -0.07942,-0.20861 -0.08234,-0.28588 -0.0213,-0.56371 0.08317,-0.37855 0.394412,-1.19571 0.455419,-1.19571 0.02326,0 0.05915,-0.0698 0.07974,-0.15502 0.04223,-0.17482 0.747193,-0.8735 1.082769,-1.07312 0.119192,-0.0709 0.432331,-0.23275 0.695863,-0.35966 0.263533,-0.12691 0.627197,-0.30354 0.808142,-0.39251 0.180946,-0.089 0.401408,-0.16177 0.489916,-0.16177 0.08851,0 0.175237,-0.0232 0.192731,-0.0515 0.09835,-0.15913 1.853947,-0.1815 2.652449,-0.0338 0.727919,0.13465 1.558756,0.40839 1.892902,0.62367 0.662299,0.4267 1.441654,1.65534 1.520299,2.39673 0.04769,0.44955 -0.0084,1.6612 -0.08995,1.94156 -0.04698,0.16161 -0.09482,0.34173 -0.106308,0.40026 -0.09392,0.47852 -0.411711,0.99922 -0.846181,1.38646 -0.311986,0.27806 -1.513432,1.04716 -1.807056,1.15677 -0.09301,0.0347 -0.333996,0.12591 -0.53552,0.20264 -0.201525,0.0767 -0.469874,0.15625 -0.596331,0.17672 -0.126456,0.0205 -0.329391,0.0712 -0.450964,0.11283 -0.201059,0.0688 -0.222369,0.0952 -0.235704,0.29263 -0.01769,0.2618 -0.11849,0.67232 -0.212456,0.86525 -0.189273,0.3886 -0.187473,0.39067 0.264592,0.30454 0.224149,-0.0427 0.497666,-0.10518 0.607814,-0.13883 0.389099,-0.11884 2.346168,-0.97912 2.624204,-1.15354 0.155019,-0.0973 0.328646,-0.19392 0.385837,-0.21484 0.167692,-0.0613 1.351674,-0.85848 1.469037,-0.98905 0.05906,-0.0657 0.140351,-0.11948 0.180641,-0.11948 0.04029,0 0.135595,-0.0571 0.211785,-0.12683 0.07619,-0.0698 0.20548,-0.17757 0.287309,-0.23958 0.08183,-0.062 0.17172,-0.15335 0.199755,-0.203 0.06402,-0.11337 0.208067,-1.06121 0.251854,-1.65722 0.04617,-0.62851 0.239594,-1.78663 0.374211,-2.24063 0.06204,-0.20921 0.12265,-0.42483 0.134698,-0.47915 0.05004,-0.22561 0.443465,-1.29102 0.514663,-1.39373 0.04239,-0.0611 0.07708,-0.15065 0.07708,-0.19888 0,-0.21553 0.553181,-1.20015 0.913854,-1.6266 0.213394,-0.2523 0.914656,-0.57452 1.332918,-0.61245 0.434038,-0.0394 1.170314,0.0696 1.47938,0.21893 0.715283,0.34558 0.947627,0.68482 1.078068,1.57406 0.144276,0.98354 -0.0027,1.85989 -0.463209,2.76134 -0.258373,0.5058 -0.378397,0.70942 -0.487684,0.82734 -0.169742,0.18316 -0.781228,0.98418 -0.85481,1.11977 -0.05435,0.10014 -0.892841,0.93795 -1.894594,1.89304 l -0.446268,0.42549 0.01218,0.86689 c 0.01332,0.94832 0.02166,1.04888 0.122599,1.47793 0.08156,0.34668 0.23561,0.66812 0.452074,0.94329 0.284971,0.36225 1.372514,0.94446 1.568759,0.83983 0.0494,-0.0263 0.229337,-0.11221 0.399858,-0.19082 0.170521,-0.0786 0.348088,-0.16596 0.394594,-0.19411 0.04651,-0.0281 0.333822,-0.1744 0.638481,-0.325 0.642274,-0.31748 0.709854,-0.37675 0.587845,-0.5156 -0.125482,-0.1428 -0.419983,-0.68382 -0.513657,-0.94363 -0.04462,-0.12375 -0.111731,-0.3011 -0.149136,-0.39411 -0.08406,-0.20902 -0.131008,-0.61547 -0.127825,-1.10659 0.0022,-0.33586 0.02694,-0.41592 0.244055,-0.78919 0.334591,-0.57524 0.81041,-1.02515 1.226764,-1.15999 0.503491,-0.16306 1.474221,-0.13456 2.067599,0.0607 0.562059,0.18495 0.97187,0.43691 1.01954,0.62684 0.01955,0.0779 0.05736,0.1416 0.08403,0.1416 0.02667,0 0.03377,0.0384 0.01577,0.0853 -0.018,0.0469 -0.0025,0.12168 0.03442,0.16617 0.120862,0.14563 0.276429,1.40547 0.207474,1.6802 -0.01769,0.0705 -0.07753,0.17932 -0.132986,0.2419 -0.05546,0.0626 -0.158229,0.22696 -0.228383,0.36529 -0.121638,0.23984 -0.209733,0.35511 -0.712155,0.93182 -0.193937,0.22261 -0.223636,0.32352 -0.0998,0.33908 0.02067,0.003 0.113681,0.0366 0.206692,0.0755 0.09301,0.0389 0.321312,0.12912 0.507335,0.20046 0.186023,0.0713 0.477741,0.18544 0.648262,0.25355 0.434297,0.17348 0.642567,0.21628 1.127412,0.23169 0.947787,0.0301 1.013674,-0.0136 0.763704,-0.5069 -0.07899,-0.15589 -0.143628,-0.33351 -0.143628,-0.39472 0,-0.0612 -0.02263,-0.12528 -0.05029,-0.14237 -0.02766,-0.0171 -0.04117,-0.41608 -0.03003,-0.88665 0.02677,-1.13063 0.179487,-1.84236 0.439822,-2.04975 0.09681,-0.0771 0.226749,-0.1875 0.288757,-0.24528 0.224271,-0.20901 0.927857,-0.5552 1.211967,-0.59635 0.04651,-0.007 0.236757,-0.0451 0.42278,-0.0852 0.421238,-0.0909 2.094082,-0.043 2.593047,0.0742 0.780769,0.1834 0.88608,0.22772 1.062354,0.44707 0.09429,0.11734 0.203267,0.20113 0.242162,0.1862 0.120592,-0.0463 0.900487,0.24682 1.033499,0.38841 0.137964,0.14686 0.243815,0.60916 0.335907,1.46709 0.07487,0.69748 0.19588,1.38673 0.267214,1.522 0.0327,0.062 0.04901,0.14168 0.03625,0.17704 -0.03803,0.10534 0.264374,0.30211 0.464282,0.30211 0.374564,0 1.137515,-0.88517 1.85717,-2.15467 0.169725,-0.2994 0.557367,-0.92146 0.589329,-0.94571 0.02043,-0.0155 0.07079,-0.11133 0.111901,-0.21296 0.118265,-0.29233 0.574021,-0.74534 0.749859,-0.74534 0.08185,0 0.164497,-0.0254 0.183658,-0.0564 0.04626,-0.0748 1.666223,-0.0735 2.284488,0.002 1.265025,0.15428 2.570919,0.85035 3.145009,1.67635 0.07049,0.10142 0.11658,0.20316 0.102414,0.22608 -0.03818,0.0618 0.26608,0.48833 0.361346,0.50658 0.07721,0.0148 0.43924,-0.19238 0.910233,-0.52087 0.176519,-0.12312 0.213222,-0.18564 0.241638,-0.41161 0.122725,-0.97609 0.168182,-1.20469 0.299576,-1.5066 0.08096,-0.18602 0.201722,-0.41432 0.268369,-0.50734 0.06665,-0.093 0.166445,-0.25789 0.221773,-0.36641 0.225359,-0.44197 0.911062,-0.9898 1.509142,-1.20569 0.651244,-0.23509 1.825595,-0.19311 2.382824,0.0852 0.451134,0.2253 0.759273,0.72614 0.759273,1.2341 0,0.16083 -0.08304,0.26764 -0.63417,0.81575 -0.348793,0.34687 -0.89048,0.83671 -1.203754,1.08853 -0.472481,0.3798 -1.051779,0.878 -1.421751,1.22274 -0.05989,0.0558 -0.06171,0.11803 -0.0092,0.31321 0.03608,0.13397 0.07184,0.29602 0.07948,0.36012 0.0076,0.0641 0.07172,0.24917 0.142398,0.41126 0.144782,0.33206 0.675325,0.81445 1.017608,0.92525 0.108513,0.0351 0.298764,0.10929 0.422779,0.16481 0.420716,0.18835 1.35485,0.23498 2.45212,0.1224 l 0.591891,-0.0607 0.289458,0.16504 c 0.438422,0.24998 0.457284,0.59047 0.04877,0.88022 -0.54211,0.3845 -1.146871,0.52406 -2.170268,0.50084 -1.130388,-0.0257 -2.108152,-0.26408 -3.02383,-0.73735 -0.375626,-0.19414 -1.598557,-1.27155 -1.598557,-1.40834 0,-0.0354 -0.03341,-0.10998 -0.07423,-0.16581 -0.07063,-0.0966 -0.08838,-0.0943 -0.366403,0.0465 -0.28811,0.14599 -0.977878,0.30867 -1.248333,0.2944 -0.106918,-0.006 -0.179264,0.0541 -0.315167,0.26019 -0.09702,0.14713 -0.219891,0.31558 -0.273054,0.37432 -0.148317,0.16389 -1.60068,0.98833 -1.749175,0.99293 -0.03328,10e-4 -0.189909,0.0697 -0.348067,0.15265 -0.158159,0.0829 -0.46256,0.21378 -0.676447,0.29079 -0.213888,0.077 -0.640661,0.23069 -0.948386,0.34152 -0.558639,0.20121 -0.704686,0.22052 -1.133951,0.14996 z m -8.140726,-1.65365 c 0.122168,-0.0698 0.222319,-0.15412 0.222558,-0.18747 2.25e-4,-0.0333 0.05917,-0.11582 0.130963,-0.18326 0.185301,-0.17408 0.585124,-0.9816 0.716469,-1.44704 0.120875,-0.42834 0.139324,-0.92515 0.0492,-1.32489 -0.03146,-0.13952 -0.06079,-0.31074 -0.06519,-0.3805 -0.0044,-0.0698 -0.02658,-0.12684 -0.0493,-0.12684 -0.02271,0 -0.05699,-0.0494 -0.07616,-0.10985 -0.01918,-0.0604 -0.09065,-0.12686 -0.158818,-0.14765 -0.06817,-0.0208 -0.238101,-0.0896 -0.377618,-0.15288 -0.367689,-0.16684 -0.648167,-0.20519 -1.067173,-0.1459 -0.759807,0.10751 -1.211449,0.55209 -1.27196,1.25208 -0.08602,0.99511 -0.08534,1.01067 0.06164,1.39989 0.07817,0.20701 0.178665,0.40671 0.223326,0.44378 0.04466,0.0371 0.0812,0.11304 0.0812,0.16884 0,0.0558 0.171226,0.27789 0.380502,0.49353 0.298193,0.30727 0.44147,0.4106 0.662354,0.47767 0.155019,0.0471 0.289511,0.0882 0.29887,0.0915 0.0094,0.003 0.116973,-0.0512 0.239141,-0.12096 z m -8.249701,-3.18451 c 0.202357,-0.30551 0.21373,-0.34603 0.202431,-0.7213 -0.0066,-0.21868 -0.04614,-0.47887 -0.08791,-0.5782 -0.08835,-0.21012 -0.145859,-0.18628 -0.432802,0.17941 -0.155132,0.19771 -0.171919,0.25836 -0.171635,0.62008 3.94e-4,0.46923 0.08498,0.82371 0.196619,0.82371 0.04339,0 0.175374,-0.14566 0.293296,-0.3237 z m -13.568205,-1.74489 c 0.486353,-0.20219 1.249986,-0.70344 1.460222,-0.95849 0.464297,-0.56327 0.732034,-1.43122 0.741084,-2.40244 0.0066,-0.70313 -0.13025,-1.08782 -0.59857,-1.68319 -0.392112,-0.49849 -1.901821,-0.75126 -2.6027,-0.43577 -0.131428,0.0592 -0.262501,0.10757 -0.291272,0.10757 -0.02877,0 -0.174907,0.0549 -0.324745,0.12196 -0.149838,0.0671 -0.291459,0.11782 -0.314712,0.11274 -0.02325,-0.005 -0.04228,0.0176 -0.04228,0.0505 0,0.0328 -0.02361,0.0451 -0.05248,0.0273 -0.02886,-0.0178 -0.06954,-0.005 -0.09039,0.0289 -0.02089,0.0338 0.102634,0.19641 0.275112,0.36213 0.240299,0.23089 0.334218,0.37075 0.404215,0.60192 0.05015,0.16563 0.140689,0.41061 0.201197,0.5444 0.06051,0.13379 0.09536,0.26696 0.07745,0.29594 -0.01791,0.029 -0.009,0.0527 0.0197,0.0527 0.02875,0 0.09497,0.15221 0.14717,0.33823 0.0522,0.18602 0.114727,0.33822 0.138959,0.33822 0.02423,0 0.04466,0.0317 0.0454,0.0705 7.39e-4,0.0388 0.05633,0.25287 0.12353,0.47581 0.0672,0.22295 0.132101,0.57989 0.144222,0.7932 0.04137,0.72808 0.102429,1.30995 0.137473,1.31011 0.01925,1.1e-4 0.199883,-0.0684 0.401408,-0.15216 z m 8.597708,-2.99726 c 0.730973,-0.93477 1.236849,-1.95293 1.264085,-2.54418 0.02008,-0.43602 0.01834,-0.48461 -0.03442,-0.95764 -0.03814,-0.34199 -0.06661,-0.42587 -0.149984,-0.44183 -0.114192,-0.0219 -0.157645,0.0249 -0.515403,0.55458 -0.271251,0.4016 -0.408378,0.6946 -0.566899,1.2113 -0.05707,0.18603 -0.134521,0.38896 -0.17211,0.45097 -0.03759,0.062 -0.112426,0.30299 -0.166303,0.53552 -0.05388,0.23253 -0.132202,0.51156 -0.174056,0.62007 -0.09292,0.24092 -0.12679,0.41656 -0.181383,0.94067 l -0.0422,0.40515 0.229007,-0.20785 c 0.125954,-0.11432 0.355304,-0.36936 0.509666,-0.56676 z m 58.314174,9.5699 c -0.286233,-0.0451 -0.662112,-0.19066 -1.381457,-0.53515 -0.300816,-0.14406 -1.03427,-0.81832 -1.26796,-1.16563 -0.07751,-0.1152 -0.167122,-0.20962 -0.199141,-0.20983 -0.08078,-5.1e-4 -0.743172,0.34809 -1.360464,0.71603 -0.284215,0.16941 -0.6013,0.33016 -0.704632,0.35724 -0.702045,0.18393 -0.733686,0.18746 -1.146572,0.12798 -0.48286,-0.0696 -1.096544,-0.33773 -1.319794,-0.57672 -0.08505,-0.091 -0.266711,-0.31936 -0.403709,-0.50739 -0.136992,-0.18802 -0.278037,-0.34212 -0.313432,-0.34244 -0.05576,-5e-4 -0.09623,0.0896 -0.138981,0.30947 -0.006,0.031 -0.04377,0.0817 -0.08388,0.11274 -0.04011,0.031 -0.176513,0.22125 -0.303121,0.42278 -0.126614,0.20152 -0.270793,0.42982 -0.320405,0.50733 -0.144861,0.22633 -0.559393,0.53011 -0.820728,0.60145 -0.132826,0.0363 -0.447458,0.068 -0.699181,0.0705 -0.395084,0.004 -0.541992,-0.0254 -1.074113,-0.21441 -0.813247,-0.28885 -1.132158,-0.45587 -1.437969,-0.75309 -0.591485,-0.57485 -1.174994,-1.78831 -1.172536,-2.43838 0.0033,-0.87772 0.461033,-2.30791 0.8434,-2.6353 0.226954,-0.19433 0.719029,-0.43688 1.223749,-0.6032 0.409459,-0.13494 0.65736,-0.17722 1.213405,-0.20694 0.445846,-0.0238 0.769114,-0.0155 0.893017,0.0231 0.281261,0.0876 0.747006,0.134 0.824927,0.0822 0.07485,-0.0497 0.111101,-0.96951 0.156073,-3.9599 0.01515,-1.00762 0.05342,-2.06034 0.08503,-2.33938 0.03161,-0.27903 0.04218,-0.64903 0.02347,-0.82221 -0.0568,-0.52588 0.242337,-0.88295 0.708482,-0.84568 0.10698,0.009 0.297389,0.0225 0.423129,0.031 0.289074,0.0195 0.770806,0.2246 0.933012,0.39726 0.105402,0.1122 0.119117,0.1736 0.09027,0.40413 -0.04616,0.36881 -0.133412,2.58311 -0.162741,4.12996 -0.03028,1.59685 0.04376,4.62419 0.127606,5.21754 0.09901,0.70075 0.507386,1.80358 0.808855,2.18436 0.102251,0.12916 0.251695,0.12426 0.460266,-0.0151 0.483914,-0.32326 1.92925,-0.90096 2.254091,-0.90096 0.112059,0 0.126569,-0.0448 0.18927,-0.58417 0.03735,-0.3213 0.11357,-0.68277 0.169382,-0.80328 0.05581,-0.12051 0.174811,-0.37765 0.26444,-0.57143 0.08963,-0.19377 0.182861,-0.35231 0.207173,-0.35231 0.02432,0 0.04421,-0.0322 0.04421,-0.0715 0,-0.0393 0.06428,-0.16607 0.142843,-0.28169 0.156214,-0.22989 0.436996,-0.39596 0.787271,-0.46565 0.124016,-0.0247 0.250849,-0.0521 0.281853,-0.0609 0.100842,-0.0287 0.786843,-0.14298 0.873744,-0.1456 0.291126,-0.009 1.201297,0.072 1.282961,0.11385 0.05396,0.0276 0.215668,0.0656 0.359345,0.0843 0.143672,0.0187 0.371973,0.0745 0.507336,0.12393 0.135357,0.0495 0.423675,0.12724 0.640702,0.17286 0.592848,0.12464 1.182368,0.43987 1.445748,0.77307 0.11977,0.15152 0.228859,0.33012 0.242429,0.3969 0.0136,0.0668 0.056,0.26092 0.0944,0.43144 0.0383,0.17053 0.0654,0.36712 0.0602,0.43688 -0.005,0.0698 0.01,0.12683 0.0327,0.12683 0.13047,0 0.41298,-0.74958 0.40685,-1.07951 -0.0151,-0.81526 0.005,-0.99654 0.13466,-1.18865 0.0753,-0.11183 0.20795,-0.2117 0.338429,-0.25471 0.11804,-0.0389 0.32024,-0.17842 0.44931,-0.31003 0.12908,-0.13162 0.36134,-0.30271 0.51613,-0.38022 0.27547,-0.13794 0.30721,-0.1408 1.49794,-0.13502 0.68296,0.003 1.37522,0.0357 1.57837,0.0738 0.19904,0.0373 0.39993,0.0741 0.44644,0.0817 0.41909,0.0686 1.3135,0.56782 1.64565,0.91845 0.0835,0.0882 0.21539,0.2998 0.29307,0.47032 0.12097,0.26556 0.14543,0.41794 0.17048,1.06202 0.0161,0.41359 0.058,0.84483 0.0931,0.9583 0.0863,0.27902 0.2884,0.69387 0.32171,0.66055 0.0148,-0.0148 0.0986,0.0101 0.18612,0.0554 0.0875,0.0453 0.2175,0.0834 0.2888,0.0848 0.0713,0.001 0.2311,0.0406 0.35512,0.0871 0.12401,0.0466 0.35943,0.12143 0.52314,0.16637 0.386,0.10596 0.72209,0.27896 0.76643,0.3945 0.0475,0.12371 0.0429,0.3774 -0.008,0.45773 -0.0229,0.0359 -0.15565,0.11204 -0.29508,0.16911 -0.31423,0.12862 -1.00021,0.13043 -1.69096,0.004 -0.85223,-0.15542 -0.92722,-0.18183 -1.58053,-0.55653 -0.26467,-0.1518 -0.62725,-0.59174 -0.83001,-1.00708 -0.20294,-0.41571 -0.20699,-0.4374 -0.24221,-1.29653 -0.0197,-0.48056 -0.0545,-0.91661 -0.0773,-0.96901 -0.0731,-0.16769 -0.30759,-0.2753 -0.78176,-0.35874 -0.64565,-0.11363 -1.0136,-0.1045 -1.28073,0.0318 -0.37715,0.19241 -0.41958,0.35156 -0.66856,2.50793 -0.0573,0.49607 -0.10388,0.96535 -0.10357,1.04286 0.002,0.53037 -0.0383,1.0537 -0.0861,1.11332 -0.0311,0.0387 -0.0398,0.0705 -0.0194,0.0705 0.0764,0 -0.34982,0.33659 -0.49713,0.39259 -0.31555,0.11997 -0.73229,0.0713 -1.113809,-0.13014 -0.34636,-0.18285 -0.6265,-0.47952 -0.58395,-0.61841 0.0113,-0.0368 0.0354,-0.19487 0.0536,-0.35137 l 0.0332,-0.28454 -0.4373,0.0632 c -0.240519,0.0348 -0.488279,0.0907 -0.550589,0.12426 -0.0623,0.0336 -0.3637,0.33108 -0.66975,0.66112 -0.794112,0.85635 -1.313703,1.18768 -2.068296,1.3189 -0.41292,0.0718 -0.456455,0.0719 -0.897313,0.002 z m 0.477628,-1.54032 c 0.185482,-0.0775 1.157119,-1.01961 1.157119,-1.12196 0,-0.0277 -0.121918,-0.18368 -0.270923,-0.34672 -0.357372,-0.39102 -0.606412,-0.98562 -0.691847,-1.6518 -0.07761,-0.60511 -0.144111,-0.67023 -0.62714,-0.614 -0.23338,0.0272 -0.326853,0.0689 -0.428433,0.19137 -0.265235,0.3197 -0.384143,0.61102 -0.516913,1.26638 -0.06832,0.33722 0.01889,1.13967 0.15591,1.43456 0.116326,0.25036 0.412509,0.57165 0.718218,0.77911 0.246587,0.16734 0.252619,0.1681 0.504009,0.0631 z m -11.169921,-0.21566 c 0.179089,-0.1314 0.744142,-1.1059 0.913271,-1.57505 0.251058,-0.6964 0.459133,-1.56031 0.4995,-2.07385 0.0078,-0.0994 -0.493243,-0.18222 -1.149036,-0.18998 -0.511168,-0.006 -0.776149,0.11224 -1.071041,0.47813 -0.376623,0.46731 -0.538333,1.01286 -0.487498,1.64466 0.05399,0.67105 0.206406,1.0004 0.722654,1.56157 0.216592,0.23544 0.395868,0.28386 0.57215,0.15452 z m 53.054785,1.37187 c -0.12402,-0.0206 -0.4411,-0.14209 -0.70463,-0.27007 -0.38245,-0.18573 -0.56617,-0.32182 -0.91028,-0.67429 -0.75353,-0.77184 -0.95765,-1.04883 -1.32244,-1.7945 -0.15168,-0.31004 -0.28056,-0.60175 -0.28641,-0.64826 -0.006,-0.0465 -0.0526,-0.24944 -0.10397,-0.45096 -0.0623,-0.24448 -0.0921,-0.58549 -0.0895,-1.02475 l 0.004,-0.65833 0.25786,-0.39862 c 0.14182,-0.21923 0.28005,-0.39861 0.30717,-0.39861 0.0271,0 0.12401,-0.0628 0.2153,-0.13966 0.3228,-0.27163 1.03339,-0.51902 1.85856,-0.64706 0.68914,-0.10693 0.85517,-0.11378 1.50727,-0.0622 0.40305,0.0319 0.78283,0.0595 0.84395,0.0614 0.0611,0.002 0.15685,0.0448 0.21273,0.0953 0.0942,0.0852 0.12723,0.0833 0.45257,-0.0266 0.62493,-0.21112 1.05422,-0.19258 1.55664,0.0672 0.26833,0.13876 0.33281,0.28921 0.35173,0.82064 0.009,0.26353 0.0374,0.50768 0.0623,0.54255 0.0249,0.0349 0.0597,0.31391 0.0774,0.62008 0.0177,0.30617 0.0668,0.6836 0.10924,0.83874 0.0424,0.15514 0.0772,0.33271 0.0773,0.3946 0,0.18174 0.15065,0.76222 0.29204,1.12719 0.0721,0.18602 0.13204,0.35495 0.13327,0.37539 10e-4,0.0204 0.0656,0.0856 0.14315,0.14473 0.56314,0.4298 1.44036,0.32629 2.00299,-0.23635 0.11973,-0.11973 0.26247,-0.20472 0.35322,-0.2103 0.0837,-0.005 0.17765,-0.0267 0.20865,-0.0479 0.031,-0.0212 0.2064,-0.0532 0.38977,-0.0712 0.36543,-0.0358 0.64013,0.0454 0.86371,0.25543 0.46255,0.43455 -0.33238,1.39279 -1.52585,1.83933 -0.31238,0.11687 -1.47006,0.26107 -1.57506,0.19617 -0.0264,-0.0163 -0.25571,-0.0754 -0.50955,-0.13139 -0.69449,-0.15305 -0.95775,-0.22585 -1.02822,-0.28434 -0.0351,-0.0291 -0.0785,-0.0382 -0.0965,-0.0202 -0.018,0.018 -0.12936,-0.033 -0.24748,-0.11323 -0.11812,-0.0803 -0.23532,-0.14594 -0.26043,-0.14594 -0.0524,0 -0.15283,-0.0762 -0.38975,-0.29594 -0.0919,-0.0853 -0.19692,-0.15261 -0.23329,-0.14965 -0.0364,0.003 -0.20565,0.16546 -0.37617,0.36112 -0.17052,0.19567 -0.34945,0.37095 -0.39763,0.38952 -0.0482,0.0186 -0.1877,0.12971 -0.31004,0.24699 -0.22311,0.21387 -0.60981,0.39184 -1.11109,0.51135 -0.28846,0.0688 -0.44819,0.0713 -0.80247,0.0125 z m 0.59359,-1.69709 c 0.14588,-0.0936 0.3881,-0.32825 0.53826,-0.52143 0.15016,-0.19317 0.2867,-0.36391 0.30341,-0.37941 0.0613,-0.0569 0.35597,-0.7121 0.43093,-0.9583 0.1119,-0.3675 0.14628,-0.86584 0.0952,-1.37885 l -0.0447,-0.44874 -0.22548,-0.0811 c -0.12402,-0.0446 -0.41574,-0.15542 -0.64826,-0.24624 -0.39665,-0.15492 -0.45414,-0.1627 -0.93012,-0.12576 -0.52706,0.0409 -1.011,0.22181 -1.2213,0.45658 -0.13054,0.14573 -0.2869,0.78476 -0.24202,0.9891 0.0202,0.0921 0.0455,0.22248 0.0562,0.28982 0.0452,0.28538 0.14909,0.62617 0.25298,0.82981 0.0612,0.12003 0.11133,0.25729 0.11133,0.30503 0,0.0477 0.0231,0.0868 0.0513,0.0868 0.0282,0 0.1066,0.11416 0.17415,0.25369 0.0675,0.13952 0.16018,0.2746 0.20586,0.30016 0.0457,0.0256 0.0892,0.0882 0.0967,0.1391 0.0163,0.11124 0.56778,0.65995 0.66325,0.65995 0.037,0 0.18657,-0.0766 0.33245,-0.17021 z m 16.34577,1.55056 c -0.17052,-0.0353 -0.61444,-0.21943 -0.98649,-0.40909 -0.37204,-0.18967 -0.81596,-0.375 -0.98648,-0.41185 -0.75236,-0.1626 -1.0604,-0.54453 -0.83615,-1.03671 0.0593,-0.13009 0.0402,-0.18193 -0.19313,-0.52408 -0.63816,-0.93591 -0.78106,-1.85039 -0.75082,-4.8048 0.0186,-1.81645 0.0477,-2.22792 0.20349,-2.8749 0.0336,-0.13952 0.0867,-0.39318 0.11801,-0.56371 0.0784,-0.42711 0.0817,-0.44621 0.12617,-0.73281 0.0216,-0.13952 0.0752,-0.38051 0.11893,-0.53552 0.0438,-0.15502 0.11112,-0.39601 0.14966,-0.53552 0.0885,-0.32035 0.0791,-0.29054 0.13335,-0.42278 0.0254,-0.062 0.11203,-0.27909 0.19242,-0.48241 0.27331,-0.69117 0.55187,-0.89867 1.20645,-0.89867 0.23479,0 0.44233,0.025 0.4612,0.0555 0.0189,0.0305 0.0901,0.0524 0.15835,0.0486 0.3145,-0.0175 0.84586,0.36369 0.94651,0.67905 0.0357,0.11183 0.0872,0.22743 0.11445,0.25688 0.0273,0.0295 0.0496,0.12701 0.0496,0.21679 0,0.0898 0.0373,0.23056 0.0828,0.31285 0.1383,0.25 0.42136,2.41056 0.42345,3.23225 6.2e-4,0.23826 0.0224,0.49193 0.0485,0.5637 0.026,0.0718 0.0276,0.37149 0.004,0.66603 -0.0241,0.29453 -0.0559,0.76382 -0.0706,1.04285 -0.0318,0.60194 -0.0428,0.67638 -0.23702,1.60656 -0.0486,0.23253 -0.0961,0.47352 -0.1056,0.53552 -0.01,0.062 -0.0316,0.1508 -0.049,0.1973 -0.0464,0.12404 -0.47711,1.43442 -0.61141,1.86023 -0.0636,0.20153 -0.12105,0.41028 -0.12776,0.46391 -0.007,0.0536 -0.0296,0.11493 -0.0509,0.13623 -0.0755,0.0755 -0.0371,0.2886 0.0783,0.43535 0.11173,0.14204 0.50962,0.44327 0.76314,0.57776 0.26918,0.1428 1.30688,-0.18003 1.45637,-0.45308 0.0326,-0.0595 0.13739,-0.17887 0.23293,-0.26527 0.19509,-0.17641 0.49104,-0.77882 0.59197,-1.20494 0.13737,-0.5799 0.22289,-0.64943 0.8494,-0.69049 0.39855,-0.0261 0.46945,-0.0142 0.76081,0.12839 0.56275,0.27532 0.71952,0.48408 0.773,1.02932 0.0375,0.38186 0.21207,0.85162 0.36949,0.99409 0.1873,0.1695 0.61573,0.25856 0.93036,0.19338 0.70685,-0.14641 1.87367,-1.08052 2.22514,-1.78137 0.21195,-0.42261 0.37477,-0.86291 0.43262,-1.16984 0.0234,-0.12402 0.0515,-0.26353 0.0625,-0.31004 0.0371,-0.15694 0.0337,-1.32838 -0.004,-1.44779 -0.0427,-0.13443 -0.18414,-0.18507 -0.52008,-0.18619 -0.24907,-8.2e-4 -0.72799,-0.18925 -1.09013,-0.4289 -0.38322,-0.2536 -0.41332,-0.63174 -0.0747,-0.93819 0.11964,-0.10828 0.94355,-0.22594 1.08734,-0.15527 0.0465,0.0229 0.2065,0.0592 0.35553,0.0809 l 0.27098,0.0393 -0.0306,-1.17363 c -0.0168,-0.6455 -0.0546,-1.38925 -0.0839,-1.65278 -0.0469,-0.4215 -0.0419,-0.48835 0.0414,-0.55563 0.39581,-0.31957 1.28746,-0.33078 1.75889,-0.0221 0.23841,0.15609 0.42734,0.54747 0.37156,0.76971 -0.0181,0.072 -0.0373,0.71652 -0.0426,1.43216 -0.008,1.05607 0.006,1.32441 0.0722,1.42458 0.0698,0.10517 0.15655,0.12973 0.58666,0.16609 0.2776,0.0235 0.66961,0.0737 0.87113,0.11156 0.20153,0.0379 0.55303,0.10401 0.78113,0.14695 0.22809,0.0429 0.4335,0.0781 0.45647,0.0781 0.023,0 0.0616,-0.55173 0.0858,-1.22606 0.0869,-2.41723 0.0585,-2.27026 0.46164,-2.38674 0.54842,-0.15847 1.33533,-0.024 1.60495,0.27435 0.27928,0.30897 0.2823,0.31771 0.21123,0.61224 -0.0892,0.36987 -0.0678,2.73622 0.0254,2.79547 0.0361,0.023 0.16883,0.0421 0.29497,0.0426 0.29986,0.001 0.74647,0.13606 0.9876,0.29839 0.58308,0.39251 0.29352,0.90736 -0.5472,0.97293 -0.21334,0.0166 -0.48936,0.049 -0.61338,0.0719 l -0.22548,0.0416 0.0201,0.33679 c 0.0306,0.51414 0.19038,1.07496 0.48399,1.69918 0.26417,0.5616 0.26896,0.5674 0.59818,0.72476 0.31298,0.14959 0.34562,0.15434 0.57311,0.0834 0.16571,-0.0516 0.36921,-0.19983 0.64993,-0.47322 0.44932,-0.4376 0.45992,-0.46938 0.3518,-1.05426 -0.0589,-0.31875 -0.0696,-0.40316 -0.16176,-1.28112 -0.11896,-1.13309 0.15978,-2.95916 0.66147,-4.33333 0.31023,-0.84976 0.63468,-1.27695 1.03837,-1.36719 0.65816,-0.14714 0.75525,-0.16157 0.91456,-0.13596 0.41586,0.0669 0.74837,0.15592 0.93815,0.25125 0.362,0.18184 0.83752,0.83078 0.83752,1.14296 0,0.0762 0.053,0.2611 0.11784,0.41094 0.0648,0.14984 0.12749,0.41952 0.13929,0.5993 0.0118,0.17978 0.0353,0.34929 0.0522,0.3767 0.0474,0.0767 -0.0796,1.08351 -0.14685,1.16459 -0.0327,0.0394 -0.0437,0.0973 -0.0243,0.12859 0.0194,0.0313 -0.013,0.15291 -0.0718,0.27023 -0.0589,0.11733 -0.17722,0.39089 -0.26302,0.60792 -0.20734,0.52449 -0.88548,1.73073 -1.4121,2.51176 l -0.42518,0.63059 0.12397,0.37253 c 0.1193,0.35849 0.25797,0.67923 0.41385,0.95719 0.0406,0.0723 0.14647,0.17076 0.23533,0.2187 0.0889,0.0479 0.22499,0.12177 0.3025,0.16406 0.0775,0.0423 0.19652,0.077 0.26447,0.0772 0.1169,3.4e-4 0.87591,-0.47872 1.43249,-0.90413 l 0.2548,-0.19474 -0.12467,-0.32158 c -0.0686,-0.17687 -0.17848,-0.39716 -0.24424,-0.48952 -0.21475,-0.30158 -0.30049,-0.62859 -0.30767,-1.17342 -0.005,-0.41216 0.0116,-0.5339 0.0829,-0.59189 0.0493,-0.0402 0.15577,-0.18716 0.23651,-0.32668 0.19737,-0.34104 0.51966,-0.7064 0.74717,-0.84701 0.49322,-0.30483 1.3687,-0.3682 1.93088,-0.13977 0.60015,0.24386 0.6928,0.32459 0.95292,0.83027 0.132,0.2566 0.24055,0.51362 0.24121,0.57115 6.8e-4,0.0575 0.0404,0.25582 0.0883,0.44064 l 0.0871,0.33603 -0.17164,0.27894 c -0.0944,0.15341 -0.17163,0.30081 -0.17163,0.32755 0,0.0267 -0.0399,0.0817 -0.0887,0.12222 -0.0488,0.0405 -0.13936,0.17294 -0.2013,0.29436 -0.0619,0.12142 -0.21658,0.33354 -0.34364,0.47138 -0.20268,0.21989 -0.2209,0.26071 -0.14858,0.33304 0.0466,0.0466 0.28965,0.10857 0.55915,0.14257 0.26219,0.0331 0.60761,0.0969 0.7676,0.14179 0.15999,0.0449 0.58214,0.10339 0.93813,0.12995 0.43616,0.0325 0.70035,0.0797 0.8101,0.14452 0.3371,0.19913 0.42544,0.62191 0.16553,0.79222 -0.0661,0.0433 -0.29625,0.13315 -0.51132,0.19958 -0.31719,0.098 -0.46611,0.11367 -0.78852,0.0831 -0.21861,-0.0207 -0.51162,-0.0362 -0.65114,-0.0345 -0.13952,0.002 -0.29172,-0.0119 -0.33822,-0.0302 -0.0465,-0.0183 -0.19871,-0.0429 -0.33823,-0.0546 -0.35326,-0.0297 -1.08838,-0.18037 -1.50715,-0.30895 l -0.35156,-0.10795 -0.61913,0.44542 c -0.90137,0.64848 -1.11789,0.73763 -1.97543,0.81336 -0.1679,0.0148 -0.79114,-0.0407 -1.07105,-0.0954 -0.64543,-0.12619 -1.88834,-0.92195 -2.00268,-1.28219 -0.0299,-0.0942 -0.0673,-0.10564 -0.2424,-0.0741 -0.11387,0.0205 -0.2324,0.053 -0.26341,0.0722 -0.11463,0.0709 -0.7455,0.1883 -1.15402,0.21471 -0.40425,0.0261 -0.56278,2.9e-4 -1.12099,-0.1829 -0.13512,-0.0443 -0.26654,-0.0677 -0.29205,-0.0519 -0.0255,0.0158 -0.0623,0.003 -0.0818,-0.0286 -0.0195,-0.0315 -0.0847,-0.0573 -0.14483,-0.0573 -0.0602,0 -0.10941,-0.0239 -0.10941,-0.0531 0,-0.0292 -0.15273,-0.13446 -0.33939,-0.23395 -0.20358,-0.10851 -0.48485,-0.33509 -0.70288,-0.56621 l -0.36348,-0.38531 -0.13671,0.1367 c -0.0752,0.0752 -0.12648,0.14693 -0.11399,0.15942 0.0554,0.0554 -0.6845,0.62405 -1.01055,0.77662 -0.32475,0.15197 -0.41542,0.16852 -0.91828,0.1676 -0.30688,-5.6e-4 -0.65943,-0.026 -0.78344,-0.0564 -0.12402,-0.0305 -0.30158,-0.0566 -0.3946,-0.0581 -0.093,-0.002 -0.43681,-0.13636 -0.76401,-0.29979 l -0.5949,-0.29714 -0.13655,0.21609 c -0.17524,0.27732 -0.87965,1.00087 -0.97439,1.00087 -0.0231,0 -0.17288,0.10349 -0.3329,0.22998 -0.47334,0.37415 -1.34028,0.76479 -1.73548,0.78199 -1.43053,0.0623 -2.19355,-0.0946 -2.8884,-0.59379 -0.29999,-0.21552 -0.38914,-0.23381 -0.49835,-0.10221 -0.0974,0.11733 -0.6365,0.4822 -0.9252,0.62616 -0.45934,0.22904 -1.13991,0.36213 -1.77567,0.34724 -0.32554,-0.008 -0.73141,-0.0428 -0.90193,-0.0781 z m 12.52018,-3.18723 c 0.41138,-0.20987 0.88438,-0.79669 1.26625,-1.57092 0.21257,-0.43098 0.25287,-0.56317 0.2387,-0.78292 l -0.017,-0.26438 -0.31004,-0.0375 c -0.17052,-0.0206 -0.58907,-0.0935 -0.93011,-0.16197 -0.34105,-0.0685 -0.84141,-0.1318 -1.11194,-0.14073 l -0.49185,-0.0162 0.0306,0.34731 c 0.0168,0.19103 0.0528,0.46147 0.0799,0.60099 0.0272,0.13952 0.0651,0.3805 0.0842,0.53552 0.0635,0.51386 0.24897,1.2067 0.37404,1.3975 0.15621,0.2383 0.43766,0.27165 0.78726,0.0933 z m 13.07206,-1.52977 c 0,-0.11524 -0.10278,-0.0289 -0.12902,0.10835 -0.0275,0.144 -0.0243,0.14695 0.0498,0.0456 0.0436,-0.0596 0.0792,-0.12887 0.0792,-0.15395 z m -27.17854,-0.45428 c 0.0982,-0.38685 0.17642,-0.71931 0.20222,-0.85965 0.0114,-0.062 0.0712,-0.35373 0.133,-0.64826 0.10415,-0.49684 0.12659,-0.8581 0.14708,-2.36757 0.004,-0.26353 0.0268,-0.51109 0.0516,-0.55012 0.0248,-0.039 0.0251,-0.12781 7.3e-4,-0.19729 -0.0244,-0.0695 -0.0471,-0.29122 -0.0504,-0.49274 -0.008,-0.46841 -0.0868,-1.12741 -0.13527,-1.12741 -0.0592,0 -0.39815,1.7085 -0.48648,2.45212 -0.10786,0.9081 -0.0887,4.08686 0.0246,4.08686 0.0208,0 0.0716,-0.13317 0.11294,-0.29594 z m 22.43982,-1.52201 c 0.33701,-0.74246 0.45937,-1.23458 0.4791,-1.92678 0.0169,-0.59502 -0.006,-0.78053 -0.0925,-0.75166 -0.10523,0.0351 -0.34133,0.83014 -0.43967,1.48057 -0.0234,0.15502 -0.0689,0.42137 -0.10105,0.59189 -0.0868,0.46057 -0.12881,1.01467 -0.0769,1.01467 0.025,0 0.12899,-0.18391 0.23101,-0.40869 z m -63.89885,5.9927 c -0.36419,-0.0575 -1.02856,-0.446 -1.2962,-0.75799 -0.27909,-0.32535 -0.56046,-0.9504 -0.63724,-1.4156 -0.1104,-0.6689 -0.14788,-1.17128 -0.10934,-1.46564 0.15109,-1.15389 0.21439,-1.54729 0.27662,-1.7193 0.24683,-0.6822 0.24549,-0.68008 0.57404,-0.90548 0.17792,-0.12206 0.38642,-0.22193 0.46334,-0.22193 0.0769,0 0.22591,-0.0483 0.33109,-0.10742 0.17191,-0.0966 0.29925,-0.10614 1.25881,-0.0948 0.58716,0.007 1.09165,0.0273 1.12109,0.0453 0.0294,0.018 0.34524,0.0621 0.70178,0.0981 0.83245,0.0841 0.93849,0.12035 1.22972,0.42085 0.29067,0.29993 0.34472,0.52988 0.21444,0.91225 -0.24707,0.72511 0.0513,2.25909 0.57822,2.9723 0.12647,0.1712 0.26086,0.33037 0.29865,0.35373 0.11656,0.072 0.6988,0.0893 0.92817,0.0276 0.11968,-0.0322 0.23225,-0.053 0.25016,-0.0461 0.0179,0.007 0.13207,-0.0611 0.25367,-0.15103 0.65799,-0.48657 1.13042,-1.11174 1.30346,-1.72492 0.0992,-0.35157 0.23988,-1.52362 0.24123,-2.01003 l 0.001,-0.40347 -0.29595,-0.0252 c -0.45876,-0.039 -1.14877,-0.19768 -1.3817,-0.31775 -0.35231,-0.18161 -0.68992,-0.50517 -0.68992,-0.6612 0,-0.19224 0.14499,-0.45488 0.29654,-0.53717 0.19958,-0.10837 1.11835,-0.0659 1.45634,0.0673 0.15435,0.0608 0.34477,0.11062 0.42316,0.11062 h 0.14253 l -0.0303,-0.60598 c -0.0167,-0.3333 -0.0601,-0.90514 -0.0965,-1.27077 -0.0551,-0.55412 -0.053,-0.69019 0.0126,-0.81737 0.10335,-0.2004 0.17445,-0.27303 0.27666,-0.28254 0.0461,-0.004 0.21049,-0.0198 0.36524,-0.0345 0.27112,-0.0257 0.65872,0.0665 1.05781,0.25168 0.18868,0.0875 0.44123,0.57311 0.44117,0.84823 -4e-5,0.21654 0.0888,1.93624 0.10051,1.9452 0.004,0.003 0.30563,0.0197 0.66992,0.0367 0.3643,0.017 0.73846,0.0636 0.83147,0.10361 0.37822,0.16271 0.50902,0.40485 0.36453,0.67483 -0.11927,0.22285 -0.63393,0.3977 -1.43557,0.4877 l -0.39459,0.0443 -4e-5,0.98648 c -3e-5,0.95618 0.0151,1.13839 0.13251,1.59792 0.12804,0.50107 0.59751,0.75135 1.61501,0.86097 0.18897,0.0204 0.31458,0.006 0.38115,-0.0446 0.0936,-0.0707 0.0895,-0.1004 -0.0732,-0.52249 -0.16474,-0.42745 -0.1712,-0.47573 -0.14379,-1.07529 0.0297,-0.64941 0.1362,-1.02712 0.35375,-1.25453 0.0562,-0.0587 0.17937,-0.19348 0.27375,-0.29945 0.0944,-0.10597 0.2212,-0.22398 0.28185,-0.26224 0.0606,-0.0383 0.2213,-0.13769 0.35701,-0.22095 0.7711,-0.47308 2.32326,-0.48423 3.1303,-0.0225 0.31511,0.18029 0.59708,0.45999 0.59708,0.59229 0,0.0403 0.0378,0.10467 0.0839,0.14298 0.0462,0.0383 0.0707,0.091 0.0546,0.11717 -0.0162,0.0261 0.009,0.1405 0.057,0.25416 0.11482,0.27482 0.10886,0.4491 -0.0248,0.72471 -0.10378,0.214 -0.81658,0.92665 -1.58995,1.5896 -0.19467,0.16689 -0.29994,0.29492 -0.26877,0.32688 0.0317,0.0325 0.27253,0.0269 0.63006,-0.0144 0.84346,-0.0976 1.51876,-0.0867 1.76003,0.0284 0.15389,0.0734 0.20681,0.13871 0.23527,0.2904 0.0669,0.35636 -0.0165,0.46425 -0.58702,0.75967 -0.65934,0.34142 -1.1391,0.43594 -1.8908,0.37251 -0.29022,-0.0245 -0.67749,-0.0944 -0.86058,-0.15545 -0.51493,-0.17159 -0.7483,-0.22741 -0.76687,-0.18346 -0.035,0.0829 -0.64678,0.39412 -0.89924,0.4575 -0.36725,0.0922 -0.89655,-5.8e-4 -1.4099,-0.24716 -0.23216,-0.11151 -0.58477,-0.22593 -0.80364,-0.26077 -0.45896,-0.0731 -0.97169,-0.23783 -1.22982,-0.39521 -0.24965,-0.15221 -0.32987,-0.14041 -0.49025,0.0721 -0.24055,0.31876 -1.04855,1.01224 -1.36291,1.16975 -0.87065,0.43624 -2.74014,0.49189 -3.55483,0.10582 -0.35808,-0.16969 -0.72846,-0.44143 -0.97239,-0.71342 -0.11816,-0.13177 -0.23305,-0.23957 -0.25529,-0.23957 -0.0222,0 -0.1365,0.13946 -0.2539,0.30992 -0.31277,0.45413 -0.89756,0.97608 -1.30965,1.16892 -0.39086,0.1829 -0.81293,0.2349 -1.29237,0.15922 z m 0.75878,-1.92566 c 0.49276,-0.54031 0.88122,-1.2485 0.93606,-1.70651 0.0181,-0.15114 0.0457,-0.2955 0.0613,-0.3208 0.0269,-0.0436 0.0573,-0.27913 0.12038,-0.93295 l 0.0278,-0.28839 -0.36946,-0.10001 c -0.37475,-0.10144 -0.70075,-0.0933 -1.01268,0.0253 -0.19494,0.0741 -0.3749,0.47839 -0.3749,0.84219 0,0.14625 -0.0286,0.29446 -0.0635,0.32937 -0.0437,0.0437 -0.0557,0.32402 -0.0385,0.89911 0.021,0.70239 0.0446,0.87949 0.14802,1.11057 0.0677,0.15121 0.12307,0.30975 0.12307,0.35232 0,0.15813 0.18784,0.0689 0.44235,-0.2102 z m 13.76942,-2.57573 c 0.63014,-0.68872 0.65869,-0.7444 0.3816,-0.7444 -0.26249,0 -0.70761,0.45576 -0.75901,0.77714 -0.0519,0.32463 0.0592,0.31499 0.37741,-0.0327 z m 31.68479,-0.0966 c -0.58258,-0.27074 -0.79588,-0.61263 -0.60841,-0.97516 0.0885,-0.17113 0.26661,-0.27329 0.36762,-0.21086 0.0291,0.018 0.0662,0.0113 0.0824,-0.0149 0.0162,-0.0262 0.25543,-0.0438 0.53159,-0.0391 0.63486,0.0109 0.95618,0.16871 1.106,0.54313 0.0519,0.12976 0.0734,0.25096 0.0477,0.26935 -0.0257,0.0184 -0.0908,0.10282 -0.1448,0.18765 -0.16197,0.25456 -0.35575,0.34564 -0.75454,0.35464 -0.26769,0.006 -0.43256,-0.0241 -0.62764,-0.11476 z m 20.19795,-2.00068 c -0.0192,-0.031 0.0174,-0.0564 0.0812,-0.0564 0.0638,0 0.11606,0.0254 0.11606,0.0564 0,0.031 -0.0366,0.0564 -0.0812,0.0564 -0.0447,0 -0.0969,-0.0254 -0.11606,-0.0564 z m -76.43851,-5.46707 c -0.41056,-0.074 -0.52387,-0.14637 -0.89891,-0.57428 -0.121939,-0.13914 -0.127049,-0.28709 -0.0289,-0.83587 0.10603,-0.59252 0.0836,-5.18731 -0.0297,-6.08802 -0.0136,-0.10852 -0.0401,-0.53846 -0.0587,-0.95543 -0.0187,-0.41698 -0.0423,-0.77211 -0.0526,-0.78919 -0.0103,-0.0171 -0.034,-0.38619 -0.0527,-0.82024 -0.0187,-0.43406 -0.0488,-0.91603 -0.0669,-1.07105 -0.0289,-0.2474 -0.0152,-0.30244 0.11194,-0.45034 0.128709,-0.14969 0.188969,-0.17177 0.540009,-0.19785 0.21732,-0.0162 0.40261,-0.007 0.41176,0.0205 0.009,0.0274 0.0853,0.0499 0.16929,0.0499 0.084,0 0.15306,0.0285 0.15354,0.0634 6.2e-4,0.0459 0.0123,0.0455 0.0423,-0.001 0.0228,-0.0356 0.18094,-0.12629 0.35146,-0.20162 0.92539,-0.40879 1.51475,-0.50028 2.33261,-0.3621 0.30087,0.0508 0.62227,0.13133 0.71423,0.17888 0.45007,0.23274 1.03714,1.03339 1.32159,1.8024 0.0573,0.15502 0.12195,0.30722 0.14358,0.33822 0.14171,0.20318 0.22151,0.79664 0.24201,1.79958 0.007,0.33646 0.0369,0.56173 0.0806,0.60545 0.0383,0.0383 0.0696,0.10172 0.0696,0.14094 0,0.0789 0.19291,0.20178 0.24109,0.15361 0.0296,-0.0296 0.17448,-0.0653 0.30041,-0.074 0.15872,-0.011 0.60512,-0.44031 0.99922,-0.96101 0.46941,-0.62019 0.47458,-0.64128 0.2632,-1.07265 -0.0532,-0.10851 -0.0996,-0.29367 -0.10313,-0.41146 -0.004,-0.11779 -0.0212,-0.238 -0.0392,-0.26712 -0.0669,-0.10821 -0.24276,-3.18102 -0.20638,-3.60558 0.004,-0.0465 0.0186,-0.19871 0.0324,-0.33823 0.0138,-0.13951 0.0414,-0.41855 0.0612,-0.62007 0.0198,-0.20153 0.0853,-0.50054 0.14553,-0.66447 0.0602,-0.16393 0.10951,-0.33598 0.10951,-0.38231 0,-0.0463 0.0418,-0.17857 0.0928,-0.29384 0.051,-0.11526 0.10234,-0.25872 0.114,-0.31879 0.0496,-0.25543 0.50947,-1.01576 0.71451,-1.1814 0.21413,-0.17298 0.22378,-0.17494 0.82832,-0.16813 0.55765,0.006 0.63558,0.0206 0.88257,0.16219 0.32377,0.18559 0.72667,0.5584 0.84321,0.78022 0.0463,0.0881 0.15963,0.40514 0.25193,0.70463 0.0923,0.29949 0.19517,0.60794 0.22861,0.68545 0.0842,0.19522 0.14,1.39397 0.0918,1.97297 -0.0931,1.11869 -0.69329,2.7213 -1.5095,4.0305 -0.15464,0.24803 -0.2813,0.47633 -0.28148,0.50733 0,0.031 0.0944,0.15257 0.21025,0.27014 0.22714,0.23059 0.65477,0.67056 0.97157,0.99959 0.10852,0.11271 0.31936,0.24998 0.46855,0.30506 0.26203,0.0967 0.274,0.0966 0.35186,-0.004 0.20268,-0.26315 0.47328,-0.80746 0.44197,-0.88903 -0.0189,-0.0491 -0.0103,-0.0894 0.0191,-0.0894 0.0549,0 0.128,-0.21084 0.24447,-0.70464 0.0366,-0.15502 0.0767,-0.7091 0.0892,-1.2313 0.0181,-0.75548 0.006,-0.98326 -0.0598,-1.1149 -0.14528,-0.29122 0.0722,-0.64652 0.4741,-0.77462 0.29196,-0.0931 0.82833,-0.0395 1.18379,0.11829 0.47203,0.20948 0.49955,0.2702 0.42841,0.94501 -0.0415,0.39356 -0.039,1.22477 0.004,1.40926 0.077,0.32913 0.48743,1.00995 0.80661,1.33816 0.30663,0.31531 0.9559,0.74755 1.12289,0.74755 0.0903,0 0.27403,-0.42318 0.34667,-0.79861 0.0993,-0.51345 0.11829,-1.19116 0.0496,-1.77233 -0.11939,-1.00959 -0.11983,-1.05291 -0.0126,-1.26226 0.19251,-0.37588 0.97714,-0.51153 1.51031,-0.2611 0.49899,0.23437 0.5066,0.25361 0.51243,1.29594 0.006,1.02984 0.0724,1.57531 0.20917,1.71207 0.0872,0.0872 0.10615,0.0867 0.27787,-0.007 0.10137,-0.0551 0.2975,-0.16147 0.43583,-0.23645 0.27673,-0.15 0.55192,-0.16758 0.96001,-0.0613 0.742,0.19318 0.35742,1.15304 -0.66425,1.65788 -0.41624,0.20567 -0.44743,0.21202 -1.06056,0.21572 l -0.6317,0.004 -0.27307,0.35981 c -0.3761,0.49557 -0.77175,0.69503 -1.37229,0.69182 -0.46559,-0.002 -1.13828,-0.1742 -1.35964,-0.34708 -0.0738,-0.0576 -0.23741,-0.1572 -0.36358,-0.22124 -0.20836,-0.10576 -0.38638,-0.23487 -0.90413,-0.65572 -0.18934,-0.1539 -0.24755,-0.14079 -0.24755,0.0558 0,0.30773 -0.8087,1.31907 -1.18378,1.48041 -0.51711,0.22244 -1.15305,0.2018 -1.73914,-0.0564 -0.90392,-0.39828 -1.54061,-0.75414 -1.78995,-1.00043 -0.0653,-0.0645 -0.14297,-0.11723 -0.17266,-0.11723 -0.0297,0 -0.1269,-0.0761 -0.21601,-0.16911 -0.0891,-0.093 -0.18204,-0.16911 -0.20652,-0.16911 -0.0245,0 -0.20659,0.1637 -0.4047,0.36377 -0.80052,0.80843 -1.70782,1.09964 -2.74283,0.88035 -0.20152,-0.0427 -0.49197,-0.14016 -0.64543,-0.21657 -0.38193,-0.19018 -0.85621,-0.69653 -1.06806,-1.14029 -0.17267,-0.36169 -0.17495,-0.37803 -0.17726,-1.26834 -0.003,-1.00783 -0.0746,-1.34405 -0.42952,-2.00743 -0.24738,-0.46231 -0.29151,-0.48475 -0.70047,-0.35612 -0.37166,0.1169 -0.63656,0.35639 -0.80615,0.7288 -0.12272,0.2695 -0.24768,0.38807 -0.5359,0.50849 l -0.21542,0.09 0.0364,0.63087 c 0.02,0.34697 0.0595,0.8338 0.0878,1.08183 0.0282,0.24803 0.0666,0.94378 0.0853,1.54611 0.0187,0.60233 0.0468,1.11587 0.0624,1.14121 0.0157,0.0253 0.0219,0.76281 0.0139,1.63883 -0.008,0.87601 -0.0158,1.92596 -0.0172,2.33321 -0.003,0.91051 -0.004,0.91122 -0.67912,1.11601 -0.031,0.009 -0.15784,-0.001 -0.28186,-0.0235 z m 9.1884,-12.04561 c 0.35856,-1.06573 0.42341,-1.38946 0.4208,-2.10055 -0.003,-0.71656 -0.19622,-1.5841 -0.33443,-1.49868 -0.0671,0.0415 -0.29572,0.79941 -0.48902,1.62142 -0.0294,0.12514 -0.0268,1.90955 0.003,2.18471 0.008,0.0775 0.0193,0.27833 0.0242,0.44627 0.005,0.16794 0.0237,0.29045 0.0419,0.27225 0.0182,-0.0182 0.1682,-0.43464 0.33332,-0.92542 z m 16.37906,11.23902 c -0.23066,-0.0256 -0.59848,-0.11075 -0.81737,-0.18918 -0.2189,-0.0784 -0.47913,-0.16653 -0.57828,-0.19577 -0.0991,-0.0292 -0.30715,-0.13479 -0.46223,-0.23454 -0.15509,-0.0998 -0.44741,-0.28283 -0.64961,-0.40685 -0.20221,-0.12401 -0.36836,-0.24885 -0.36924,-0.27741 -8.4e-4,-0.0286 -0.0457,-0.10068 -0.0996,-0.16026 -0.23972,-0.26488 -0.0357,-1.16257 0.39187,-1.72411 0.3128,-0.41082 1.47256,-1.56077 1.76368,-1.74877 0.12402,-0.0801 0.45378,-0.33568 0.73282,-0.568 0.27903,-0.23232 0.51531,-0.42688 0.52506,-0.43237 0.01,-0.006 0.001,-0.0988 -0.0193,-0.20729 -0.0433,-0.23091 -0.1314,-0.23832 -0.3268,-0.0275 -0.21213,0.22889 -0.53698,0.36545 -0.97205,0.40861 -0.32647,0.0324 -0.46323,0.0183 -0.75676,-0.0781 -0.93735,-0.30772 -2.02001,-1.19242 -2.42347,-1.98037 -0.21565,-0.42115 -0.2807,-1.09284 -0.14166,-1.46276 0.0524,-0.13952 0.13737,-0.37278 0.18873,-0.51836 0.081,-0.2297 0.2807,-0.49631 0.37169,-0.49631 0.0163,0 0.15057,-0.0742 0.2983,-0.16488 0.14773,-0.0907 0.48423,-0.24534 0.74776,-0.34366 0.45571,-0.17004 0.52061,-0.17908 1.32682,-0.18488 l 0.84766,-0.006 0.39249,0.19928 c 0.21586,0.1096 0.46443,0.21729 0.55236,0.23931 0.31107,0.0779 0.59373,0.49197 0.87074,1.2756 0.0932,0.26353 0.23314,0.64403 0.3111,0.84556 0.0779,0.20152 0.17496,0.4869 0.21559,0.63417 0.0406,0.14726 0.0961,0.26776 0.12326,0.26776 0.10204,0 1.42143,-1.48307 1.57971,-1.77568 0.23999,-0.44366 0.46425,-0.5381 1.20841,-0.50885 0.44018,0.0173 0.56265,0.0439 0.77541,0.16861 0.29036,0.17016 0.41579,0.40717 0.38968,0.73631 -0.01,0.12033 -0.002,0.24338 0.0164,0.27345 0.0186,0.0301 0.0411,0.12002 0.05,0.19991 0.11052,0.99001 0.49018,1.79787 0.93069,1.98033 0.13952,0.0578 0.18094,0.0535 0.27139,-0.0284 0.12406,-0.11227 0.51944,-0.84489 0.5476,-1.01466 0.0105,-0.0636 0.0585,-0.28046 0.10662,-0.48199 0.11294,-0.47314 0.11825,-1.84789 0.008,-2.07269 -0.0898,-0.18304 -0.0661,-0.3269 0.0795,-0.48318 0.0588,-0.0631 0.10696,-0.13539 0.10696,-0.16054 0,-0.0252 0.0524,-0.0457 0.11644,-0.0457 0.15587,0 0.31991,-0.0907 0.57284,-0.3169 0.33273,-0.29749 0.569,-0.37544 1.14276,-0.37701 0.67452,-0.002 0.77372,0.009 1.26834,0.14258 0.6068,0.16351 0.88061,0.3226 1.30512,0.75832 0.55898,0.57374 0.67582,0.84737 0.72997,1.70961 0.0243,0.38754 0.0603,0.8822 0.0798,1.09922 0.0196,0.21703 0.0379,0.42631 0.0408,0.46506 0.003,0.0388 0.0118,0.0705 0.02,0.0705 0.008,0 0.15931,-0.15151 0.33594,-0.33668 0.17663,-0.18518 0.36799,-0.35155 0.42524,-0.36972 0.0573,-0.0182 0.22217,0.0192 0.36647,0.083 0.14429,0.0638 0.29524,0.11605 0.33542,0.11605 0.11382,0 0.41996,0.28113 0.41981,0.38551 0,0.0515 -0.0588,0.25638 -0.13041,0.45528 -0.17028,0.47265 -0.55086,0.9256 -0.85594,1.01873 -0.12402,0.0379 -0.2889,0.0958 -0.36641,0.12868 -0.23027,0.0978 -0.29356,0.11099 -0.66101,0.13779 -0.28921,0.0211 -0.40327,0.001 -0.64826,-0.11271 -0.38532,-0.17926 -0.97923,-0.71995 -1.01816,-0.92692 -0.0162,-0.0859 -0.0714,-0.29576 -0.12274,-0.46628 -0.0711,-0.23613 -0.0919,-0.51883 -0.0872,-1.18586 0.006,-0.83593 0,-0.88734 -0.13519,-1.12874 -0.21401,-0.38291 -0.42912,-0.56281 -0.70293,-0.58787 l -0.23434,-0.0215 -0.16806,0.33294 c -0.14778,0.29275 -0.16829,0.39267 -0.16986,0.82779 -9.6e-4,0.27217 -0.0382,0.7612 -0.0828,1.08674 -0.0445,0.32554 -0.0819,0.84556 -0.0831,1.1556 -0.002,0.4984 -0.0182,0.58983 -0.14096,0.78919 -0.0764,0.12401 -0.13967,0.20788 -0.14064,0.18637 -9.6e-4,-0.0215 -0.119,0.0127 -0.26228,0.0761 -0.15317,0.0678 -0.322,0.10295 -0.40968,0.0854 -0.11136,-0.0223 -0.18462,0.007 -0.28909,0.11624 -0.077,0.0803 -0.27945,0.2117 -0.44997,0.29192 -0.25878,0.12173 -0.3896,0.14565 -0.79124,0.1447 -0.47019,-10e-4 -0.49514,-0.008 -1.09213,-0.31004 -0.33602,-0.16989 -0.64876,-0.36597 -0.69498,-0.43573 -0.0462,-0.0698 -0.11772,-0.12683 -0.15889,-0.12683 -0.11594,0 -0.69257,-0.77226 -0.87182,-1.1676 -0.0884,-0.19492 -0.18358,-0.35441 -0.21155,-0.35441 -0.028,0 -0.26794,0.22196 -0.53327,0.49325 -0.26533,0.27128 -0.66337,0.66952 -0.88454,0.88497 -0.22117,0.21545 -0.41803,0.45508 -0.43747,0.53252 -0.0194,0.0774 -0.0123,0.28166 0.0158,0.45383 0.0475,0.29057 0.0517,1.86553 0.006,2.31419 -0.0519,0.51127 -0.30266,1.38602 -0.51518,1.797 -0.115,0.22238 -0.40038,0.4597 -0.76468,0.63591 -0.4326,0.20924 -0.69566,0.25381 -1.18025,0.19999 z m 0.29535,-1.63154 c 0.23855,-0.36789 0.43406,-1.22359 0.43406,-1.89973 0,-0.46879 -0.0279,-0.48389 -0.37392,-0.20204 -0.36206,0.29493 -1.08795,1.07419 -1.30745,1.40359 -0.20564,0.30859 -0.1747,0.44217 0.14871,0.64194 0.3726,0.23015 0.51767,0.28686 0.74497,0.29122 0.17357,0.003 0.21845,-0.0265 0.35363,-0.23498 z m -1.51503,-5.7881 c 0.16069,-0.17756 0.31243,-0.76916 0.34594,-1.34877 0.0484,-0.83769 -0.10279,-0.99268 -0.718,-0.73587 -0.44451,0.18554 -0.63627,0.34748 -0.71241,0.60159 -0.0977,0.32598 -0.0837,0.4524 0.0816,0.74052 0.15578,0.27154 0.72736,0.85051 0.83966,0.85051 0.036,0 0.10951,-0.0486 0.16326,-0.10798 z m -35.960123,6.78933 c -0.357412,-0.1503 -0.472661,-0.22859 -0.55556,-0.37739 -0.05753,-0.10326 -0.125441,-0.19559 -0.150915,-0.20517 -0.08662,-0.0326 0.09536,-0.42807 0.250229,-0.54379 0.125616,-0.0939 0.255359,-0.11837 0.699818,-0.13211 0.689029,-0.0213 0.956975,-0.14981 1.483482,-0.71143 0.862724,-0.92027 1.238158,-1.58028 1.338249,-2.35265 l 0.04131,-0.3188 -0.454082,-0.0195 c -0.793534,-0.0341 -1.391457,-0.40259 -2.15804,-1.32996 -0.10892,-0.13176 -0.217957,-0.23957 -0.242304,-0.23957 -0.02435,0 -0.124353,0.17122 -0.222241,0.3805 -0.219248,0.46875 -0.332524,0.59245 -0.763539,0.83377 -0.315236,0.17649 -0.378456,0.19063 -0.90193,0.20171 -0.6636,0.014 -0.920492,-0.0533 -1.706405,-0.4474 -0.235905,-0.11829 -0.342107,-0.21997 -0.510227,-0.48852 l -0.21231,-0.33914 -0.01419,-0.90193 c -0.01864,-1.18422 -0.04726,-1.46436 -0.175228,-1.7152 -0.129929,-0.25468 -0.247422,-0.35779 -0.418106,-0.3669 -0.07124,-0.004 -0.202106,-0.0545 -0.290828,-0.11262 -0.08872,-0.0581 -0.252376,-0.11621 -0.36368,-0.12907 -0.201074,-0.0232 -0.203526,-0.0209 -0.379853,0.36102 -0.284779,0.61682 -0.376482,1.15236 -0.379549,2.21644 -0.003,1.05098 -0.04184,1.32915 -0.217534,1.55879 -0.138711,0.18129 -0.18423,0.20018 -0.561135,0.23283 -0.386105,0.0334 -1.11045,-0.28354 -1.111482,-0.4864 0,-0.0417 -0.04945,-0.14476 -0.109415,-0.22898 -0.109923,-0.15437 -0.108372,-0.33598 0.01206,-1.41447 0.02577,-0.23073 -0.07081,-0.68478 -0.211982,-0.99667 -0.139686,-0.30859 -0.387023,-0.52808 -0.810034,-0.71883 -0.201001,-0.0906 -0.26528,-0.0962 -0.445773,-0.0387 -0.438146,0.13966 -1.024169,1.07659 -1.144001,1.82902 -0.07271,0.45657 -0.0453,1.9999 0.03791,2.13455 0.08323,0.13467 0.07582,0.39066 -0.01534,0.52979 -0.166597,0.25426 -0.35784,0.31242 -0.814374,0.24767 -0.508531,-0.0721 -0.857211,-0.22402 -0.988932,-0.4308 -0.05615,-0.0882 -0.121202,-0.17416 -0.144557,-0.19111 -0.0679,-0.0493 -0.122527,-0.44613 -0.116038,-0.84293 0.0033,-0.20152 0.02364,-1.13243 0.0452,-2.06867 0.02545,-1.10449 0.01921,-1.75967 -0.01776,-1.86572 -0.04839,-0.13882 -0.03602,-0.19025 0.0821,-0.34117 0.07649,-0.0977 0.173176,-0.17771 0.214851,-0.17771 0.04167,0 0.08571,-0.0298 0.09784,-0.0662 0.01674,-0.0502 0.130103,-0.0481 0.469753,0.009 0.246227,0.0412 0.509004,0.0973 0.583937,0.12474 0.07494,0.0274 0.15104,0.0287 0.169112,0.003 0.01808,-0.0259 0.197748,-0.11839 0.399273,-0.20556 0.312654,-0.13523 0.438309,-0.15789 0.856523,-0.15446 0.306594,0.002 0.568407,0.0367 0.699198,0.0914 0.11499,0.0481 0.219546,0.0769 0.232348,0.0641 0.03378,-0.0338 0.664716,0.22078 0.937826,0.37838 0.128458,0.0741 0.303319,0.15153 0.38858,0.17202 0.1345,0.0323 0.155024,0.0203 0.155064,-0.0907 2.2e-5,-0.0703 0.07377,-0.28375 0.163875,-0.47422 0.153373,-0.3242 0.183712,-0.35374 0.475283,-0.46283 0.434899,-0.16272 1.252802,-0.15572 2.038399,0.0174 0.09301,0.0205 0.271013,0.06 0.395564,0.0876 0.513542,0.11424 1.296016,0.55459 1.6096,0.90582 0.416139,0.46611 0.611773,1.14607 0.619857,2.15447 0.0033,0.40373 0.02915,0.79524 0.05758,0.87003 0.09192,0.24176 0.233391,0.1309 0.413129,-0.32373 0.157849,-0.39926 0.166953,-0.46674 0.167201,-1.23962 0,-0.65996 -0.01813,-0.85211 -0.09524,-0.99778 -0.05253,-0.0992 -0.0955,-0.25182 -0.0955,-0.3391 0,-0.15896 0.169011,-0.53606 0.240009,-0.53552 0.02077,1.7e-4 0.124095,-0.0294 0.229615,-0.0657 0.289857,-0.0996 1.071125,-0.0284 1.265232,0.11538 0.216575,0.16043 0.387564,0.43036 0.487718,0.76996 0.04732,0.16045 0.208109,0.49466 0.357305,0.74269 0.149196,0.24803 0.318291,0.55243 0.375766,0.67645 0.05748,0.12401 0.221368,0.40462 0.364194,0.62356 0.142831,0.21895 0.286757,0.44555 0.319829,0.50357 0.03308,0.058 0.104545,0.13255 0.158813,0.16562 0.123283,0.0751 0.292293,-0.11718 0.453614,-0.51618 0.05988,-0.14808 0.227382,-0.52291 0.372244,-0.83294 0.319108,-0.68299 0.409881,-0.93893 0.535751,-1.51053 0.06856,-0.31135 0.148091,-0.50362 0.272783,-0.65944 0.169022,-0.21124 0.189417,-0.22003 0.514224,-0.2215 0.34872,-0.002 0.72797,0.0642 1.002731,0.1739 0.303229,0.12108 0.407142,0.51447 0.286797,1.08575 -0.04623,0.21945 -0.108818,0.44442 -0.139089,0.49994 -0.03027,0.0555 -0.04098,0.12367 -0.02382,0.15145 0.03258,0.0527 -0.02864,0.53683 -0.171688,1.35782 -0.04626,0.26553 -0.122059,0.8997 -0.168429,1.40926 -0.130932,1.43868 -0.163548,1.67895 -0.238031,1.75344 -0.03813,0.0381 -0.06932,0.11546 -0.06932,0.17185 0,0.19545 -0.272986,0.88263 -0.446957,1.1251 -0.96662,1.34722 -1.353914,1.77091 -2.02053,2.21037 -0.225477,0.14864 -0.441094,0.27672 -0.47915,0.28461 -0.03806,0.008 -0.14529,0.0457 -0.238301,0.084 -0.09301,0.0383 -0.384729,0.0789 -0.648262,0.0901 -0.441049,0.0188 -0.515007,0.005 -0.930115,-0.16922 z m 77.400133,-1.46886 c -0.0602,-0.0455 -0.15807,-0.0828 -0.21752,-0.0828 -0.0594,0 -0.24761,-0.13951 -0.41812,-0.31003 -0.32841,-0.32841 -0.3338,-0.35089 -0.17829,-0.74443 0.0342,-0.0866 0.0704,-0.23361 0.0805,-0.32662 0.0249,-0.2311 0.0561,-0.41058 0.19104,-1.09923 0.0638,-0.32554 0.11606,-0.68864 0.11616,-0.80689 0,-0.20081 -0.0101,-0.21395 -0.15485,-0.19923 -0.51903,0.0528 -2.00186,-0.29256 -2.48563,-0.57884 -0.33809,-0.20007 -0.65465,-0.41259 -0.6927,-0.46503 -0.0196,-0.027 -0.2275,0.0249 -0.46197,0.11544 -0.36162,0.13962 -0.46175,0.2091 -0.6598,0.45785 -0.12842,0.16128 -0.29285,0.30814 -0.36541,0.32635 -0.0726,0.0182 -0.14511,0.0675 -0.16122,0.10946 -0.0324,0.0844 -1.07423,0.59842 -1.4217,0.70146 -0.6134,0.18191 -0.92932,0.24372 -1.26295,0.2471 -0.74859,0.008 -1.33126,-0.46545 -1.20457,-0.9779 0.0591,-0.23901 0.27033,-0.33099 0.7714,-0.33585 0.18031,-0.002 0.38325,-0.0337 0.45096,-0.0709 0.0677,-0.0373 0.15598,-0.0732 0.19612,-0.0799 0.17078,-0.0285 1.01282,-0.49619 1.17809,-0.65432 0.28976,-0.27725 0.35487,-0.45802 0.26203,-0.72748 -0.0427,-0.12402 -0.0641,-0.24742 -0.0476,-0.27422 0.0166,-0.0268 0.004,-0.0647 -0.0272,-0.0841 -0.0315,-0.0195 -0.0573,-0.0705 -0.0573,-0.11336 0,-0.0647 -0.22981,-0.59179 -0.52393,-1.20179 -0.0347,-0.0719 -0.1551,-0.21394 -0.26758,-0.31556 -0.11249,-0.10163 -0.22016,-0.22553 -0.23928,-0.27535 -0.0402,-0.10484 -0.43788,-0.32115 -0.59039,-0.32115 -0.0688,0 -0.12903,0.0711 -0.1791,0.21139 -0.0415,0.11627 -0.1378,0.33823 -0.21401,0.49325 -0.17433,0.35459 -0.63645,1.67155 -0.60462,1.72305 0.0622,0.10057 -0.40076,1.07298 -0.64225,1.34914 -0.0949,0.10852 -0.23071,0.2959 -0.30182,0.41642 -0.17819,0.302 -0.63896,0.72862 -0.85348,0.79021 -0.39398,0.11312 -0.72066,0.071 -1.16473,-0.15022 -0.2328,-0.11597 -0.45386,-0.21085 -0.49125,-0.21085 -0.0374,0 -0.0974,0.0571 -0.13341,0.12684 -0.16659,0.32298 -0.52833,0.72129 -0.75452,0.83078 -0.36339,0.17592 -0.46698,0.19594 -0.96775,0.18701 -0.38787,-0.007 -0.49475,-0.0307 -0.68942,-0.15363 -0.12672,-0.08 -0.26098,-0.14544 -0.29835,-0.14544 -0.0835,0 -0.58766,-0.41813 -0.77985,-0.64674 -0.0775,-0.0922 -0.18721,-0.21461 -0.2438,-0.27201 -0.11408,-0.11575 -0.48901,-0.86878 -0.48901,-0.98217 0,-0.11896 -0.0909,-0.0826 -0.29031,0.11615 -0.1551,0.15457 -0.24754,0.19505 -0.51732,0.22649 -0.19543,0.0228 -0.42375,0.0124 -0.56371,-0.0256 -0.12937,-0.0351 -0.26665,-0.0687 -0.30506,-0.0747 -0.12196,-0.0188 -0.46569,-0.46779 -0.46569,-0.60826 0,-0.0743 0.0711,-0.2478 0.15807,-0.38564 0.21431,-0.33978 0.50632,-1.1188 0.79124,-2.11084 0.26383,-0.91866 0.41106,-1.89867 0.29592,-1.96983 -0.18686,-0.11549 0.10345,-0.56858 0.44726,-0.69808 0.20825,-0.0784 0.79505,-0.038 1.00207,0.0691 0.0985,0.051 0.18577,0.0869 0.19384,0.08 0.0403,-0.0348 0.2857,0.23016 0.36324,0.39218 0.0668,0.13952 0.0776,0.25638 0.0446,0.47915 -0.0241,0.16205 -0.043,0.71319 -0.0422,1.22475 0.001,0.81618 0.0192,0.99572 0.14531,1.46564 0.17754,0.66156 0.54103,1.68536 0.73259,2.06338 0.25321,0.4997 0.40134,0.53076 0.60716,0.12731 0.39505,-0.77436 0.49932,-1.81429 0.35814,-3.57177 -0.12969,-1.61446 -0.12613,-1.63781 0.28616,-1.87613 0.19493,-0.11267 0.27478,-0.12578 0.58932,-0.0967 0.5132,0.0474 0.88865,0.25976 1.03197,0.58377 0.0936,0.21169 0.10233,0.30917 0.0628,0.70465 -0.0633,0.63341 -0.0462,1.15862 0.0573,1.7555 0.0484,0.27903 0.10272,0.6088 0.12076,0.73281 0.018,0.12402 0.0489,0.27622 0.0685,0.33823 0.0196,0.062 0.0295,0.15577 0.0219,0.20836 -0.0142,0.0983 0.17565,0.32716 0.27144,0.32716 0.0516,0 0.24511,-0.38233 0.34239,-0.67645 0.0256,-0.0775 0.11011,-0.30581 0.18772,-0.50733 0.0776,-0.20153 0.22178,-0.58203 0.32036,-0.84556 0.40667,-1.08711 0.52891,-1.39815 0.68223,-1.73593 0.0886,-0.19516 0.16106,-0.37465 0.16106,-0.39886 0,-0.0807 0.25264,-0.28269 0.46401,-0.37101 0.22481,-0.0939 0.82844,-0.11777 0.9883,-0.039 0.21116,0.10401 0.83853,0.29003 0.97811,0.29002 0.0811,-1e-5 0.20792,0.047 0.28186,0.1044 0.0739,0.0574 0.22755,0.14815 0.34136,0.20161 0.46103,0.21652 1.17361,1.05187 1.59028,1.86424 l 0.26021,0.50734 -0.005,-0.8845 c -0.003,-0.53632 0.0215,-0.96903 0.0619,-1.09923 0.20889,-0.67252 0.55432,-1.08687 1.16303,-1.39509 0.28434,-0.14397 0.35969,-0.15669 0.88421,-0.1492 0.70445,0.0101 0.96785,0.0992 1.40469,0.47534 0.3229,0.27805 0.6525,0.81816 0.5754,0.94291 -0.0321,0.0519 0.52607,0.0154 0.58828,-0.0385 0.0121,-0.0105 0.0298,-1.01539 0.0393,-2.23309 0.01,-1.21771 0.03,-2.32816 0.0455,-2.46768 0.0155,-0.13951 0.0428,-0.42937 0.0607,-0.64411 0.0363,-0.43726 0.0656,-0.49033 0.34262,-0.6218 0.15012,-0.0712 0.27594,-0.0837 0.54702,-0.0539 0.80493,0.0882 1.13973,0.48508 0.96792,1.14742 -0.0793,0.30585 -0.0684,1.12362 0.029,2.1736 0.0288,0.31004 0.0529,1.30585 0.0536,2.21292 0.001,1.4882 0.0116,1.67256 0.10692,1.88841 0.0581,0.13156 0.12314,0.30896 0.14447,0.39422 0.0964,0.38504 0.24501,0.004 0.24745,-0.63405 0.001,-0.2577 -0.0231,-0.54706 -0.0535,-0.64302 -0.0972,-0.30679 -0.0553,-0.57382 0.1192,-0.76066 0.2253,-0.24119 0.54125,-0.30176 1.05817,-0.20285 0.76618,0.14659 0.80071,0.1941 0.86655,1.19232 0.0283,0.42928 0.0732,0.88434 0.0997,1.01126 0.076,0.36362 0.37059,0.82 0.75543,1.17034 0.49555,0.45112 0.54194,0.48732 0.62442,0.48732 0.11228,0 0.83607,-0.49219 0.93335,-0.63469 0.0474,-0.0695 0.10039,-0.139 0.11769,-0.1545 0.0173,-0.0155 0.0371,-0.0536 0.0441,-0.0846 0.007,-0.031 0.0497,-0.1599 0.0951,-0.28644 0.10755,-0.29996 0.0868,-0.93982 -0.0489,-1.50544 l -0.1053,-0.43898 0.22771,-0.21881 c 0.12524,-0.12034 0.34967,-0.27436 0.49874,-0.34227 l 0.27103,-0.12347 0.47594,0.24574 c 0.26176,0.13515 0.51708,0.30793 0.56736,0.38395 0.0618,0.0934 0.10344,0.33082 0.12848,0.73282 0.0779,1.25045 0.17885,1.67548 0.44257,1.86327 0.22754,0.16202 0.81261,0.33805 1.1202,0.33703 0.54948,-0.002 1.82033,-0.43208 1.90158,-0.64379 0.0334,-0.087 0.005,-0.17968 -0.3187,-1.04647 -0.61022,-1.63318 -0.69692,-1.99781 -0.65788,-2.76682 0.0385,-0.75806 0.0745,-1.03946 0.21234,-1.65827 0.0622,-0.27903 0.14672,-0.66338 0.18793,-0.85411 0.0412,-0.19072 0.15325,-0.51415 0.24898,-0.71872 0.0957,-0.20457 0.16051,-0.37195 0.14396,-0.37195 -0.0165,0 0.0482,-0.10647 0.14389,-0.23659 0.0957,-0.13012 0.17403,-0.2633 0.17408,-0.29595 0,-0.0719 0.38995,-0.44556 0.55941,-0.53626 0.22577,-0.12082 0.65112,-0.082 0.99675,0.091 0.60556,0.30311 0.72069,0.51192 1.03637,1.87972 0.0966,0.41855 0.20287,0.81024 0.23615,0.87042 0.22203,0.40136 0.31112,1.88671 0.15912,2.65274 -0.0369,0.18603 -0.10234,0.54116 -0.14541,0.78919 -0.0431,0.24803 -0.10355,0.59048 -0.13443,0.761 -0.0493,0.27242 -0.49698,1.26756 -0.68997,1.53384 -0.0574,0.0792 -0.0487,0.13442 0.0491,0.31003 0.13405,0.24077 0.40616,0.40294 0.73012,0.43514 0.1906,0.0189 0.26533,-0.0137 0.58493,-0.2552 0.32941,-0.24895 0.84926,-0.5018 1.03171,-0.5018 0.038,0 0.16384,0.0507 0.27954,0.11274 0.11569,0.062 0.2476,0.11274 0.29313,0.11274 0.23974,0 0.25629,0.61603 0.0209,0.77799 -0.0723,0.0497 -0.33139,0.28913 -0.57575,0.53196 -0.581,0.57736 -0.56029,0.56624 -1.24682,0.66989 -0.32258,0.0487 -0.42547,0.0445 -0.56371,-0.0233 -0.16612,-0.0814 -0.37988,-0.14766 -0.86363,-0.26782 -0.13395,-0.0333 -0.38128,-0.1486 -0.54961,-0.25628 -0.16833,-0.10769 -0.30606,-0.17952 -0.30606,-0.15963 0,0.0199 -0.0447,-0.0191 -0.0994,-0.0866 l -0.0994,-0.12279 -0.47837,0.17975 c -0.2631,0.0989 -0.59702,0.22731 -0.74203,0.28546 -0.14502,0.0581 -0.30388,0.0903 -0.35303,0.0714 -0.0492,-0.0189 -0.12571,-0.004 -0.17012,0.0327 -0.0444,0.0369 -0.3174,0.0811 -0.60664,0.0984 -0.42364,0.0253 -0.6333,0.007 -1.07817,-0.0944 -0.47812,-0.10892 -1.28063,-0.43319 -1.56455,-0.63218 -0.0717,-0.0503 -0.14176,-0.0278 -0.34147,0.10961 -0.13818,0.0951 -0.28459,0.21304 -0.32536,0.26216 -0.0408,0.0491 -0.10464,0.0893 -0.14194,0.0893 -0.0373,0 -0.1266,0.0625 -0.19842,0.139 -0.10745,0.11438 -0.49765,0.28293 -0.96011,0.41473 -0.26978,0.0769 -0.752,0.0701 -0.92724,-0.0131 -0.10396,-0.0493 -0.20773,-0.0897 -0.23059,-0.0897 -0.12383,0 -1.0712,-0.69362 -1.43962,-1.05403 l -0.42718,-0.41789 -0.30435,0.20044 c -0.16739,0.11024 -0.35058,0.20044 -0.40708,0.20044 -0.21523,0 -0.42169,0.15983 -0.4527,0.35046 -0.0166,0.10178 -0.0686,0.34994 -0.11555,0.55147 -0.047,0.20152 -0.13656,0.59471 -0.19902,0.87374 -0.11,0.49143 -0.2582,1.03857 -0.32827,1.21197 -0.0188,0.0465 -0.0307,0.10198 -0.0264,0.12328 0.004,0.0213 -0.0814,0.31098 -0.19043,0.64374 -0.109,0.33276 -0.2012,0.68526 -0.20489,0.78334 -0.01,0.25927 -0.15471,0.40123 -0.54345,0.53218 -0.40472,0.13635 -0.40071,0.13613 -0.5416,0.0296 z m -0.63781,-5.08775 c 0.0909,-0.0789 0.21066,-0.39692 0.21139,-0.56161 0,-0.0388 -0.0514,-0.0705 -0.11466,-0.0705 -0.16096,0 -0.91293,-0.7181 -0.99314,-0.9484 -0.0359,-0.10307 -0.0829,-0.20454 -0.10449,-0.22549 -0.0216,-0.0209 -0.13172,0.076 -0.24477,0.21552 -0.11306,0.13948 -0.33873,0.39544 -0.5015,0.5688 -0.16277,0.17337 -0.29595,0.33995 -0.29595,0.3702 0,0.0795 0.34903,0.37655 0.64862,0.55212 0.41342,0.24228 1.16769,0.296 1.3945,0.0993 z m -2.20811,-3.2332 c 0.20068,-0.39337 0.10556,-0.46044 -0.13245,-0.0934 -0.17491,0.26975 -0.21498,0.50449 -0.0648,0.37989 0.0488,-0.0405 0.13755,-0.16941 0.19729,-0.28651 z m 16.56724,-0.40061 c 0.2267,-1.04636 0.30261,-2.16337 0.16455,-2.42135 -0.0344,-0.0643 -0.07,-0.18308 -0.0791,-0.26405 -0.0763,-0.67798 -0.12797,-0.83939 -0.22059,-0.68952 -0.0169,0.0273 -0.0687,0.32084 -0.11527,0.65235 -0.0465,0.33151 -0.097,0.62286 -0.11225,0.64745 -0.0152,0.0246 -0.0415,0.28782 -0.0585,0.58494 -0.0333,0.5818 0.0664,1.24128 0.22406,1.48183 0.0473,0.0722 0.086,0.17016 0.086,0.21775 0,0.1717 0.0483,0.0807 0.11115,-0.2094 z m -163.448277,8.25052 c -0.342098,-0.15539 -0.71215,-0.76882 -0.531235,-0.88064 0.03151,-0.0195 0.04326,-0.0581 0.02611,-0.0859 -0.01715,-0.0277 0.06958,-0.11406 0.192725,-0.1918 0.211991,-0.13382 0.265362,-0.14116 1.002657,-0.13779 1.355704,0.006 2.238745,-0.24721 3.057812,-0.87746 0.537521,-0.41362 0.705059,-0.65914 1.059886,-1.55323 0.271717,-0.68467 0.309097,-0.93461 0.310135,-2.07365 0.0011,-1.19235 -0.09522,-2.1459 -0.221637,-2.19441 -0.04434,-0.017 -0.427786,0.0127 -0.852103,0.066 -1.227461,0.15419 -1.796759,0.17624 -1.913463,0.0741 -0.054,-0.0473 -0.216499,-0.13739 -0.361116,-0.2003 -0.144617,-0.0629 -0.293645,-0.17385 -0.331175,-0.24653 -0.03753,-0.0727 -0.119009,-0.18792 -0.181065,-0.2561 -0.06303,-0.0693 -0.09792,-0.16281 -0.07905,-0.21198 0.01858,-0.0484 0.036,-0.10677 0.03873,-0.1297 0.0027,-0.0229 0.05797,-0.0981 0.122776,-0.1671 0.203011,-0.2161 0.529337,-0.29783 1.284617,-0.32177 0.959586,-0.0304 2.051727,-0.0967 2.084194,-0.12656 0.03411,-0.0314 0.0088,-0.77934 -0.05203,-1.54015 -0.02605,-0.32554 -0.03543,-1.26144 -0.02085,-2.07977 0.01852,-1.03919 0.008,-1.49932 -0.0349,-1.52583 -0.06502,-0.0402 0.07192,-0.38118 0.189443,-0.47174 0.09485,-0.0731 -0.584634,0.0109 -0.88441,0.10926 -0.203344,0.0667 -0.371392,0.19336 -0.690502,0.52024 -0.625583,0.6408 -0.627459,0.64296 -0.725275,0.83727 -0.04978,0.0989 -0.147026,0.21938 -0.216109,0.26776 -0.06908,0.0484 -0.106694,0.088 -0.08358,0.088 0.02311,0 4.51e-4,0.0634 -0.05031,0.14093 -0.05079,0.0775 -0.0704,0.14216 -0.04358,0.14366 0.02682,0.001 -0.116123,0.0891 -0.317648,0.19456 -0.242187,0.1268 -0.447108,0.19276 -0.604442,0.19457 -0.292313,0.003 -0.861097,-0.25044 -0.861404,-0.38437 -1.12e-4,-0.0506 -0.05085,-0.1751 -0.112741,-0.27662 -0.06189,-0.10151 -0.11253,-0.22677 -0.11253,-0.27836 0,-0.13202 0.215838,-0.4316 0.400251,-0.55554 0.0855,-0.0575 0.145022,-0.12135 0.132278,-0.14197 -0.01274,-0.0206 0.192177,-0.28797 0.455379,-0.59412 0.593148,-0.68993 0.751976,-0.85536 1.19978,-1.24961 0.301755,-0.26567 0.391745,-0.31462 0.593892,-0.32304 0.131037,-0.006 0.291749,-0.0386 0.357139,-0.0736 0.317462,-0.16991 2.909594,-0.23046 4.1603,-0.0972 0.402515,0.0429 0.75242,0.0653 0.777565,0.0497 0.02514,-0.0155 0.08657,0.006 0.136506,0.0471 0.0717,0.0595 0.352648,0.0703 1.336333,0.0516 1.982798,-0.0377 2.178631,-0.0254 2.469515,0.15499 0.447401,0.27746 0.712112,0.75873 0.538034,0.9782 -0.146812,0.18509 -0.552047,0.42959 -0.66364,0.40041 -0.06153,-0.0161 -0.11188,-0.004 -0.11188,0.0261 0,0.0347 -0.08957,0.0385 -0.239575,0.0101 -0.131766,-0.0249 -0.784961,-0.0321 -1.451543,-0.016 -0.778377,0.0188 -1.343052,0.006 -1.578376,-0.0342 -0.882276,-0.15292 -1.085227,-0.17692 -1.822682,-0.21562 -0.428904,-0.0225 -0.806043,-0.0247 -0.838087,-0.005 -0.03626,0.0224 -0.01163,0.0991 0.0652,0.20301 0.10907,0.14752 0.125697,0.25181 0.142608,0.89451 0.06324,2.40353 0.151156,4.28307 0.202358,4.32635 0.01318,0.0111 0.315679,0.002 0.672223,-0.0203 0.356544,-0.0223 1.269747,-0.0294 2.029341,-0.0157 1.149588,0.0206 1.465099,0.008 1.882342,-0.0724 0.386756,-0.075 0.52501,-0.0823 0.605219,-0.0323 0.05718,0.0357 0.176509,0.0649 0.265185,0.0649 0.197401,0 0.490657,0.2734 0.671923,0.62642 0.135141,0.26319 0.159229,0.38825 0.07479,0.38825 -0.02854,0 -0.06807,0.0736 -0.08783,0.16363 -0.06732,0.30651 -0.163576,0.31749 -2.601205,0.29679 -1.456777,-0.0124 -2.394398,0.004 -2.762159,0.0477 -0.306213,0.0365 -0.572109,0.0759 -0.590881,0.0875 -0.01877,0.0116 -0.01261,0.15499 0.01369,0.3187 0.162037,1.00868 0.251843,2.98111 0.166215,3.65065 -0.02966,0.23194 -0.04559,0.43007 -0.03538,0.44027 0.0102,0.0102 0.212034,-0.0464 0.44851,-0.12577 0.236477,-0.0794 0.480952,-0.14434 0.54328,-0.14434 0.06233,0 0.127925,-0.038 0.145771,-0.0846 0.01785,-0.0465 0.08681,-0.0851 0.15325,-0.0859 0.06644,-7.2e-4 0.311053,-0.0532 0.543582,-0.11649 0.608432,-0.16574 0.887054,-0.18302 1.32253,-0.082 0.211837,0.0491 0.391601,0.0825 0.399476,0.0741 0.0079,-0.008 0.039,-0.1674 0.06917,-0.35342 0.05234,-0.32271 0.162451,-0.68578 0.329208,-1.08549 0.04212,-0.10096 0.07057,-0.19239 0.06323,-0.20317 -0.0073,-0.0108 0.06909,-0.089 0.169855,-0.17377 0.100762,-0.0848 0.183204,-0.18995 0.183204,-0.2337 0,-0.0438 0.02782,-0.0796 0.06181,-0.0796 0.034,0 0.170919,-0.096 0.304271,-0.21342 0.25688,-0.22612 1.190345,-0.76636 1.539729,-0.89111 0.114446,-0.0409 0.372968,-0.0753 0.574493,-0.0766 0.436974,-0.003 1.344036,0.102 1.471714,0.16998 0.04985,0.0265 0.183025,0.0545 0.295945,0.0621 0.112921,0.008 0.205311,0.034 0.205311,0.0587 0,0.0247 0.04858,0.0448 0.10795,0.0448 0.05937,0 0.205232,0.10954 0.324131,0.24342 0.161287,0.18161 0.287751,0.26259 0.498034,0.31894 0.548578,0.14701 0.799927,0.27668 1.112943,0.57417 0.340226,0.32336 0.515127,0.66605 0.577268,1.13107 0.01958,0.14654 0.05316,0.2763 0.07463,0.28834 0.02146,0.012 0.241955,-1.7e-4 0.489985,-0.0272 0.375855,-0.0409 0.549489,-0.0983 1.042513,-0.34471 0.438097,-0.21895 0.624996,-0.346 0.720486,-0.48979 0.169578,-0.25535 0.481569,-1.25968 0.491291,-1.58152 0.0094,-0.31247 0.0858,-0.45915 0.339978,-0.65301 0.185777,-0.1417 0.223481,-0.14864 0.661597,-0.12178 0.627115,0.0385 0.877196,0.16652 1.051375,0.5384 0.119313,0.25474 0.124341,0.29894 0.0566,0.49756 -0.04089,0.11989 -0.06816,0.2494 -0.06059,0.28781 0.0076,0.0384 -0.01056,0.11525 -0.04028,0.17077 -0.02971,0.0555 -0.07067,0.36656 -0.09101,0.69118 -0.02034,0.32463 -0.04748,0.62828 -0.06031,0.67478 -0.01283,0.0465 -0.0366,0.41691 -0.05283,0.82312 -0.02716,0.67975 -0.02048,0.75003 0.08382,0.88263 0.06233,0.0792 0.113329,0.1755 0.113329,0.21391 0,0.12677 0.378391,0.64211 0.59984,0.81695 0.459626,0.36287 1.238969,0.60214 1.546443,0.47478 0.268984,-0.11142 0.601903,-0.58966 1.019062,-1.4639 0.214515,-0.44956 0.414488,-0.86142 0.444385,-0.91526 0.0299,-0.0538 0.05436,-0.16164 0.05436,-0.23957 0,-0.0779 0.01902,-0.14169 0.04228,-0.14169 0.02325,0 0.04019,-0.10712 0.03764,-0.23805 -0.01099,-0.56365 0.07045,-1.46302 0.136147,-1.50362 0.09926,-0.0613 0.35004,-0.7839 0.363967,-1.04868 0.0093,-0.17692 0.05435,-0.26492 0.209158,-0.40864 0.21883,-0.20315 0.283968,-0.21244 0.734134,-0.10474 0.776517,0.18579 0.862,0.31279 0.900047,1.33722 0.01581,0.42578 0.01026,0.89657 -0.01234,1.0462 -0.0226,0.14962 -0.04787,0.52571 -0.05616,0.83575 -0.01656,0.61962 0.02371,0.74563 0.378348,1.18378 0.100377,0.12402 0.188017,0.25085 0.194755,0.28186 0.0067,0.031 0.117597,0.25885 0.246351,0.50633 0.248069,0.47682 0.593623,0.8754 0.757523,0.87376 0.166118,-0.002 0.659968,-0.51447 0.840498,-0.87276 0.09373,-0.18602 0.187963,-0.43969 0.209408,-0.5637 0.238814,-1.3811 0.353932,-2.64819 0.246618,-2.7145 -0.08327,-0.0515 -0.04166,-0.45872 0.05966,-0.58384 0.140838,-0.17393 0.601256,-0.33747 0.950244,-0.33752 0.286944,-5e-5 0.295729,-0.005 0.604103,-0.35647 0.613307,-0.69857 1.396374,-0.93886 2.656064,-0.81504 0.440583,0.0433 0.996887,0.2992 1.357252,0.62433 0.28135,0.25384 0.629026,0.80644 0.716637,1.13902 0.113372,0.43039 0.224425,0.80131 0.27847,0.93012 0.07311,0.17423 0.143203,0.48769 0.207987,0.93011 0.06166,0.42109 0.372606,0.99201 0.778386,1.42916 0.162513,0.17508 0.295859,0.33736 0.296325,0.36061 0.0022,0.11131 0.149184,0.007 0.540358,-0.38266 0.246473,-0.24568 0.490131,-0.43769 0.577575,-0.45516 l 0.151251,-0.0302 v -0.54542 c 0,-0.66535 0.08754,-1.14792 0.262649,-1.44791 0.140946,-0.24146 0.825504,-0.90424 1.222109,-1.18322 0.132224,-0.093 0.35958,-0.26076 0.505236,-0.37278 0.145656,-0.11201 0.34093,-0.24551 0.433941,-0.29666 0.09301,-0.0512 0.207162,-0.11762 0.253668,-0.14771 0.177482,-0.11483 0.943429,-0.46226 1.240153,-0.56253 0.496106,-0.16765 1.178754,-0.29475 1.629594,-0.30342 l 0.417627,-0.008 -0.0034,-0.28185 c -0.0019,-0.15502 -0.0075,-0.63699 -0.01247,-1.07104 -0.005,-0.43405 0.02622,-1.23311 0.0694,-1.77567 0.04318,-0.54257 0.07845,-1.07527 0.07838,-1.18379 -5.64e-4,-0.61767 0.03841,-1.29652 0.07413,-1.29652 0.04617,0 0.07398,-0.48233 0.07615,-1.32092 0.0014,-0.55368 0.0035,-0.56209 0.185008,-0.75453 l 0.18356,-0.19461 0.460339,0.0402 c 0.46305,0.0404 0.873084,0.1728 0.996823,0.3219 0.03669,0.0442 0.09746,0.19539 0.135064,0.33596 0.05652,0.21132 0.05104,0.38181 -0.03163,0.98428 -0.09381,0.68367 -0.136085,2.59782 -0.163142,7.38729 -0.003,0.52668 0.06176,0.90898 0.197753,1.16775 0.09223,0.1755 0.446072,1.18084 0.493908,1.4033 0.02488,0.1157 0.07122,0.24254 0.102972,0.28186 0.03176,0.0393 0.138441,0.26655 0.237078,0.50494 0.09864,0.2384 0.1971,0.44134 0.218814,0.45097 0.02171,0.01 0.09838,0.0936 0.170374,0.18662 0.072,0.093 0.141789,0.1633 0.155087,0.1562 0.0133,-0.007 0.07932,-0.0643 0.14671,-0.12708 0.0674,-0.0628 0.231373,-0.16685 0.364396,-0.23124 0.327598,-0.15859 0.86446,-0.1104 1.348565,0.12103 l 0.343866,0.16439 -0.05365,0.32476 c -0.04791,0.29001 -0.08471,0.35339 -0.343867,0.59229 -0.159618,0.14715 -0.309237,0.26764 -0.33249,0.26776 -0.02325,1.2e-4 -0.08743,0.0446 -0.142606,0.0989 -0.130121,0.12795 -0.543486,0.32752 -0.829787,0.40063 -0.44115,0.11264 -0.710066,0.089 -1.112079,-0.0977 -0.208599,-0.0969 -0.398912,-0.17613 -0.42292,-0.17613 -0.08775,0 -0.909319,-0.82265 -0.996463,-0.99778 -0.04938,-0.0992 -0.130092,-0.20296 -0.179377,-0.23055 -0.04928,-0.0276 -0.09037,-0.0732 -0.09131,-0.10145 -9.58e-4,-0.0282 -0.02474,-0.11189 -0.0529,-0.18595 -0.02816,-0.0741 -0.03869,-0.14715 -0.02342,-0.16243 0.03601,-0.036 -0.07197,-0.23844 -0.127195,-0.23844 -0.02322,0 -0.08426,0.0711 -0.135627,0.15811 -0.203295,0.34415 -1.30056,1.37138 -1.495427,1.39998 -0.04407,0.007 -0.124461,0.0519 -0.17865,0.10093 -0.139083,0.12587 -0.773929,0.43472 -1.075365,0.52316 -0.139517,0.0409 -0.56034,0.0902 -0.935159,0.10953 -0.608445,0.0313 -0.723255,0.0217 -1.071044,-0.0902 -0.531192,-0.17085 -0.879386,-0.35243 -1.209361,-0.63067 l -0.278256,-0.23463 -0.122528,0.16336 c -0.178966,0.23859 -0.786013,0.81068 -0.949669,0.89498 -0.07751,0.0399 -0.283048,0.10411 -0.456754,0.14265 -0.256448,0.0569 -0.357132,0.0561 -0.53552,-0.004 -0.120831,-0.041 -0.249889,-0.0798 -0.286794,-0.0862 -0.184688,-0.0322 -0.515063,-0.16342 -0.665717,-0.26449 -0.269724,-0.18094 -0.867705,-0.77824 -1.055887,-1.05469 -0.09497,-0.13951 -0.229858,-0.31708 -0.299744,-0.39459 -0.143068,-0.15867 -0.508019,-1.00932 -0.616709,-1.43745 -0.03935,-0.15502 -0.08852,-0.42137 -0.109246,-0.59189 -0.03547,-0.29179 -0.07871,-0.47195 -0.209677,-0.87374 -0.03032,-0.093 -0.06744,-0.23012 -0.08249,-0.30467 -0.103354,-0.51196 -0.454552,-0.69605 -0.940519,-0.493 -0.227282,0.095 -0.760722,0.67109 -0.808114,0.87277 -0.01944,0.0827 -0.08007,0.22648 -0.134754,0.31949 -0.05468,0.093 -0.11647,0.2498 -0.137309,0.34842 -0.02084,0.0986 -0.07431,0.20954 -0.118822,0.24648 -0.04451,0.0369 -0.08093,0.11356 -0.08093,0.17025 0,0.0567 -0.03901,0.25019 -0.0867,0.42997 -0.04768,0.17979 -0.166825,0.74544 -0.26476,1.257 -0.151005,0.78878 -0.176241,1.04147 -0.166075,1.66293 0.01626,0.99372 -0.04702,1.1436 -0.551545,1.30654 -0.270121,0.0872 -0.303131,0.0864 -0.608842,-0.0153 -0.17777,-0.0591 -0.376094,-0.15823 -0.440711,-0.22024 -0.126261,-0.12116 -0.305294,-0.1775 -0.305294,-0.0961 0,0.1926 -1.126319,0.31405 -1.535733,0.1656 -0.131967,-0.0479 -0.308282,-0.10222 -0.391811,-0.12082 -0.173518,-0.0386 -0.847957,-0.48499 -1.063689,-0.70395 -0.07949,-0.0807 -0.229769,-0.26083 -0.333963,-0.40035 -0.104194,-0.13952 -0.259949,-0.32977 -0.346123,-0.42278 -0.08617,-0.093 -0.157043,-0.18909 -0.157487,-0.21352 -4.51e-4,-0.0244 -0.07772,-0.10912 -0.171713,-0.18821 -0.133407,-0.11226 -0.170905,-0.12416 -0.170905,-0.0542 0,0.0493 -0.02537,0.0896 -0.05637,0.0896 -0.031,0 -0.05637,0.0265 -0.05637,0.0589 0,0.0554 -0.474143,0.77134 -0.632947,0.95575 -0.123878,0.14385 -0.512688,0.42893 -0.777454,0.57004 -0.225781,0.12034 -0.322118,0.13431 -0.909454,0.13191 -0.452679,-0.002 -0.684375,-0.0255 -0.745218,-0.076 -0.04856,-0.0403 -0.158816,-0.081 -0.245007,-0.0905 -0.311599,-0.0344 -1.21206,-0.43935 -1.654804,-0.74428 -0.303411,-0.20897 -0.911977,-0.84979 -0.870599,-0.91674 0.01577,-0.0255 -0.0092,-0.0609 -0.05557,-0.0787 -0.04633,-0.0178 -0.08423,-0.0712 -0.08423,-0.11865 0,-0.0475 -0.02676,-0.0863 -0.05947,-0.0863 -0.07602,0 -0.298764,-0.50614 -0.387103,-0.8796 l -0.06805,-0.28771 -0.207743,0.0386 c -0.114259,0.0212 -0.283843,0.0775 -0.376855,0.1251 -0.09301,0.0476 -0.384729,0.11809 -0.648262,0.15672 -0.263532,0.0386 -0.5172,0.0833 -0.563705,0.0993 -0.04651,0.016 -0.274807,0.0322 -0.507336,0.036 l -0.422779,0.007 -0.06292,0.36641 c -0.07069,0.41168 -0.382962,1.11185 -0.640289,1.43565 -0.0938,0.11803 -0.170536,0.24013 -0.170536,0.27133 0,0.0904 -0.398555,0.42415 -0.689593,0.5774 -0.712944,0.3754 -2.000365,0.48666 -2.985818,0.25802 -1.319988,-0.30626 -1.506661,-0.392 -2.160785,-0.99244 -0.50189,-0.4607 -0.531438,-0.50149 -0.785867,-1.0848 -0.145403,-0.33335 -0.284434,-0.62696 -0.308959,-0.65247 -0.02452,-0.0255 -0.155625,-0.0153 -0.291335,0.0227 -0.13571,0.038 -0.348212,0.0881 -0.472228,0.11142 -0.124015,0.0233 -0.542567,0.15719 -0.930114,0.29754 -0.387548,0.14036 -0.793416,0.28591 -0.90193,0.32346 -0.108513,0.0375 -0.28608,0.10093 -0.394594,0.14083 -0.108513,0.0399 -0.349497,0.11705 -0.53552,0.17144 -0.186023,0.0544 -0.393902,0.13429 -0.461952,0.17756 -0.07212,0.0459 -0.231319,0.0721 -0.381678,0.0628 -0.250209,-0.0154 -0.269372,-0.005 -0.638689,0.36197 -0.209407,0.2078 -0.408706,0.37782 -0.442886,0.37782 -0.03418,0 -0.09235,0.0364 -0.129259,0.0809 -0.19713,0.23752 -1.541451,0.74947 -2.166235,0.82494 -0.251933,0.0304 -0.521477,0.0788 -0.598986,0.10748 -0.200946,0.0744 -1.235853,0.2271 -1.528733,0.22563 -0.135817,-6.9e-4 -0.349922,-0.048 -0.475789,-0.10519 z m 14.755592,-1.81717 c 0.429801,-0.0912 0.741807,-0.27536 0.967673,-0.57126 0.27912,-0.36566 0.371479,-0.56441 0.405379,-0.87232 0.01627,-0.14781 0.04141,-0.36324 0.05587,-0.47875 0.02453,-0.19595 0.0121,-0.2173 -0.18555,-0.31879 -0.261125,-0.13409 -1.164832,-1.0515 -1.115083,-1.132 0.01989,-0.0322 0.01146,-0.0585 -0.01872,-0.0585 -0.09743,0 -0.353738,-0.52781 -0.385415,-0.79369 l -0.03076,-0.25818 -0.317415,0.0497 c -0.772283,0.1208 -1.676442,0.83691 -1.784598,1.41344 -0.02168,0.11556 -0.062,0.22406 -0.0896,0.24112 -0.0276,0.0171 -0.03536,0.0901 -0.01723,0.16234 0.01813,0.0722 0.0055,0.14827 -0.02798,0.16899 -0.118661,0.0733 -0.07006,0.69472 0.07999,1.02277 0.07751,0.16945 0.141021,0.35174 0.141138,0.40508 4.5e-4,0.20904 0.331495,0.63316 0.64805,0.83027 0.352406,0.21942 1.122869,0.30678 1.674251,0.18983 z m 29.890125,-1.20911 c 0.444629,-0.22817 1.019096,-0.65966 1.365955,-1.02601 0.409504,-0.43251 0.700878,-1.14845 0.865491,-2.12661 0.03653,-0.21703 0.08926,-0.45313 0.117195,-0.52466 0.02793,-0.0715 0.03524,-0.19203 0.01623,-0.26776 -0.02651,-0.10562 -0.07189,-0.1377 -0.194811,-0.1377 -0.339064,0 -1.232019,0.29382 -1.823983,0.60016 -0.844302,0.43693 -2.090547,1.57702 -2.015469,1.8438 0.0075,0.0265 -0.01568,0.0835 -0.05143,0.12654 -0.04465,0.0538 -0.05256,0.21107 -0.02526,0.50235 0.05373,0.57336 0.269955,0.90115 0.711323,1.07831 0.42742,0.17157 0.587765,0.16097 1.034767,-0.0684 z m 125.37169,-0.006 c -0.41996,-0.22351 -0.59225,-0.41612 -0.59225,-0.66211 0,-0.24415 0.16618,-0.44764 0.46237,-0.56615 0.47616,-0.19052 1.10655,0.0471 1.41558,0.53353 0.0825,0.12988 0.0815,0.15866 -0.0125,0.36641 -0.14678,0.3243 -0.30369,0.44078 -0.64239,0.4769 -0.2549,0.0272 -0.33683,0.008 -0.63081,-0.14858 z m -0.3538,-3.28603 c -0.10138,-0.0244 -0.27895,-0.1073 -0.3946,-0.18422 -0.11564,-0.0769 -0.33575,-0.2132 -0.48912,-0.30283 -0.32918,-0.19239 -0.97654,-0.81127 -1.1476,-1.09711 -0.33275,-0.55604 -0.60644,-1.8681 -0.45047,-2.15954 0.16934,-0.31641 1.14388,-1.16231 1.33907,-1.16231 0.0253,0 0.17911,-0.0915 0.34173,-0.20339 0.16262,-0.11186 0.41752,-0.26459 0.56644,-0.33939 0.53151,-0.26696 0.83788,-0.56228 1.03729,-0.99987 0.18203,-0.39942 0.36807,-1.08363 0.36807,-1.35363 0,-0.27537 -0.55978,-0.52774 -1.12741,-0.50828 -0.48982,0.0168 -0.51102,0.0273 -0.95756,0.47674 -0.43903,0.44184 -0.81866,0.67322 -1.10367,0.67268 -0.3006,-5.7e-4 -0.6084,-0.12136 -0.80162,-0.31458 -0.1656,-0.1656 -0.1853,-0.21441 -0.1505,-0.37285 0.0476,-0.21667 0.13986,-0.39436 0.2371,-0.45656 0.0388,-0.0248 0.0705,-0.0716 0.0705,-0.10408 0,-0.11057 0.62714,-0.77374 0.8931,-0.9444 0.5104,-0.32753 1.54496,-0.4405 2.3588,-0.25759 0.40509,0.091 1.22102,0.43263 1.35611,0.56771 0.0439,0.0439 0.0968,0.0702 0.11757,0.0583 0.0545,-0.031 0.68086,0.47127 0.81994,0.65755 0.16034,0.21477 0.19547,0.86611 0.066,1.22314 -0.0506,0.13951 -0.13944,0.41855 -0.19739,0.62007 -0.18267,0.63515 -0.37587,1.11711 -0.52753,1.31594 -0.0896,0.1175 -0.4816,0.39401 -1.00866,0.71155 -0.47415,0.28565 -0.9255,0.57765 -1.00301,0.64887 -0.0775,0.0712 -0.2008,0.14764 -0.27399,0.1698 -0.19186,0.0581 -0.57157,0.41805 -0.57157,0.54183 0,0.56062 0.52279,1.38224 0.99883,1.56975 0.1597,0.0629 0.22052,0.0558 0.50734,-0.0589 0.17923,-0.0717 0.352,-0.14904 0.38394,-0.17184 0.17778,-0.1269 1.62523,-0.89378 1.68698,-0.89378 0.12139,0 0.72613,0.28915 0.86209,0.4122 0.0698,0.0631 0.12684,0.14942 0.12684,0.19176 0,0.29837 -0.62398,0.97304 -1.14303,1.2359 -0.16193,0.082 -0.37052,0.20498 -0.46353,0.27328 -0.093,0.0683 -0.334,0.18297 -0.53552,0.25485 -0.20153,0.0719 -0.39411,0.15169 -0.42797,0.17738 -0.0339,0.0257 -0.0744,0.0339 -0.09,0.0183 -0.0156,-0.0156 -0.11478,0.007 -0.2203,0.0497 -0.21255,0.0866 -0.76729,0.10652 -1.05263,0.0378 z m -56.32719,-2.31737 c -0.32494,-0.18804 -0.62007,-0.53178 -0.62007,-0.7222 0,-0.20136 0.10244,-0.31252 0.42976,-0.46638 0.17341,-0.0815 0.3051,-0.1057 0.44391,-0.0815 0.10855,0.0189 0.27981,0.0491 0.38057,0.0671 0.10077,0.018 0.28468,0.10243 0.40869,0.1876 0.21368,0.14675 0.22498,0.169 0.21576,0.42515 -0.0207,0.57437 -0.1015,0.65453 -0.69103,0.68518 -0.29363,0.0153 -0.41113,-0.004 -0.56759,-0.0949 z m -66.866074,0.0223 c 0.04069,-0.0163 0.08931,-0.0143 0.108045,0.004 0.01873,0.0187 -0.01457,0.032 -0.07399,0.0296 -0.06567,-0.003 -0.07903,-0.0161 -0.03406,-0.0341 z" id="path187"/></g></svg>